<?xml version="1.0" encoding="UTF-8" standalone="no"?><svg xmlns="http://www.w3.org/2000/svg" xmlns:xlink="http://www.w3.org/1999/xlink" clip-rule="evenodd" stroke-miterlimit="4.00" viewBox="0 0 1024 768"><desc>SVG generated by Keynote</desc><defs></defs><g transform="matrix(1.00, 0.00, -0.00, -1.00, 0.0, 768.0)"><path d="M 0.0 768.0 L 1024.0 768.0 L 1024.0 0.0 L 0.0 0.0 Z M 0.0 768.0 " fill="#000000"></path><text xml:space="preserve" font-family="Helvetica-Light" font-size="80.0" fill="#FEFFFF" transform="matrix(1.00, 0.00, -0.00, -1.00, 108.0, 633.0)">W</text><text xml:space="preserve" font-family="Helvetica-Light" font-size="80.0" fill="#FEFFFF" transform="matrix(1.00, 0.00, -0.00, -1.00, 179.1, 633.0)">h</text><text xml:space="preserve" font-family="Helvetica-Light" font-size="80.0" fill="#FEFFFF" transform="matrix(1.00, 0.00, -0.00, -1.00, 223.6, 633.0)">a</text><text xml:space="preserve" font-family="Helvetica-Light" font-size="80.0" fill="#FEFFFF" transform="matrix(1.00, 0.00, -0.00, -1.00, 268.1, 633.0)">t</text><text xml:space="preserve" font-family="Helvetica-Light" font-size="80.0" fill="#FEFFFF" transform="matrix(1.00, 0.00, -0.00, -1.00, 290.3, 633.0)">’</text><text xml:space="preserve" font-family="Helvetica-Light" font-size="80.0" fill="#FEFFFF" transform="matrix(1.00, 0.00, -0.00, -1.00, 302.2, 633.0)">s</text><text xml:space="preserve" font-family="Helvetica-Light" font-size="80.0" fill="#FEFFFF" transform="matrix(1.00, 0.00, -0.00, -1.00, 342.2, 633.0)"> </text><text xml:space="preserve" font-family="Helvetica-Light" font-size="80.0" fill="#FEFFFF" transform="matrix(1.00, 0.00, -0.00, -1.00, 364.4, 633.0)">a</text><text xml:space="preserve" font-family="Helvetica-Light" font-size="80.0" fill="#FEFFFF" transform="matrix(1.00, 0.00, -0.00, -1.00, 408.9, 633.0)"> </text><text xml:space="preserve" font-family="Helvetica-Light" font-size="80.0" fill="#FEFFFF" transform="matrix(1.00, 0.00, -0.00, -1.00, 431.1, 633.0)">n</text><text xml:space="preserve" font-family="Helvetica-Light" font-size="80.0" fill="#FEFFFF" transform="matrix(1.00, 0.00, -0.00, -1.00, 475.6, 633.0)">a</text><text xml:space="preserve" font-family="Helvetica-Light" font-size="80.0" fill="#FEFFFF" transform="matrix(1.00, 0.00, -0.00, -1.00, 520.1, 633.0)">m</text><text xml:space="preserve" font-family="Helvetica-Light" font-size="80.0" fill="#FEFFFF" transform="matrix(1.00, 0.00, -0.00, -1.00, 586.7, 633.0)">e</text><text xml:space="preserve" font-family="Helvetica-Light" font-size="80.0" fill="#FEFFFF" transform="matrix(1.00, 0.00, -0.00, -1.00, 631.2, 633.0)"> </text><text xml:space="preserve" font-family="Helvetica-Light" font-size="80.0" fill="#FEFFFF" transform="matrix(1.00, 0.00, -0.00, -1.00, 653.4, 633.0)">m</text><text xml:space="preserve" font-family="Helvetica-Light" font-size="80.0" fill="#FEFFFF" transform="matrix(1.00, 0.00, -0.00, -1.00, 720.1, 633.0)">a</text><text xml:space="preserve" font-family="Helvetica-Light" font-size="80.0" fill="#FEFFFF" transform="matrix(1.00, 0.00, -0.00, -1.00, 764.6, 633.0)">t</text><text xml:space="preserve" font-family="Helvetica-Light" font-size="80.0" fill="#FEFFFF" transform="matrix(1.00, 0.00, -0.00, -1.00, 786.8, 633.0)">c</text><text xml:space="preserve" font-family="Helvetica-Light" font-size="80.0" fill="#FEFFFF" transform="matrix(1.00, 0.00, -0.00, -1.00, 831.3, 633.0)">h</text><text xml:space="preserve" font-family="Helvetica-Light" font-size="80.0" fill="#FEFFFF" transform="matrix(1.00, 0.00, -0.00, -1.00, 875.8, 633.0)">?</text><text xml:space="preserve" font-family="Helvetica-Light" font-size="27.9" fill="#FEFFFF" transform="matrix(1.00, 0.00, -0.00, -1.00, 79.0, 526.4)">•</text><text xml:space="preserve" font-family="Helvetica-Light" font-size="37.2" fill="#FEFFFF" transform="matrix(1.00, 0.00, -0.00, -1.00, 113.0, 523.0)">S</text><text xml:space="preserve" font-family="Helvetica-Light" font-size="37.2" fill="#FEFFFF" transform="matrix(1.00, 0.00, -0.00, -1.00, 135.8, 523.0)">t</text><text xml:space="preserve" font-family="Helvetica-Light" font-size="37.2" fill="#FEFFFF" transform="matrix(1.00, 0.00, -0.00, -1.00, 146.1, 523.0)">r</text><text xml:space="preserve" font-family="Helvetica-Light" font-size="37.2" fill="#FEFFFF" transform="matrix(1.00, 0.00, -0.00, -1.00, 158.5, 523.0)">i</text><text xml:space="preserve" font-family="Helvetica-Light" font-size="37.2" fill="#FEFFFF" transform="matrix(1.00, 0.00, -0.00, -1.00, 166.8, 523.0)">n</text><text xml:space="preserve" font-family="Helvetica-Light" font-size="37.2" fill="#FEFFFF" transform="matrix(1.00, 0.00, -0.00, -1.00, 187.5, 523.0)">g</text><text xml:space="preserve" font-family="Helvetica-Light" font-size="37.2" fill="#FEFFFF" transform="matrix(1.00, 0.00, -0.00, -1.00, 210.2, 523.0)"> </text><text xml:space="preserve" font-family="Helvetica-Light" font-size="37.2" fill="#FEFFFF" transform="matrix(1.00, 0.00, -0.00, -1.00, 220.6, 523.0)">e</text><text xml:space="preserve" font-family="Helvetica-Light" font-size="37.2" fill="#FEFFFF" transform="matrix(1.00, 0.00, -0.00, -1.00, 241.3, 523.0)">q</text><text xml:space="preserve" font-family="Helvetica-Light" font-size="37.2" fill="#FEFFFF" transform="matrix(1.00, 0.00, -0.00, -1.00, 264.0, 523.0)">u</text><text xml:space="preserve" font-family="Helvetica-Light" font-size="37.2" fill="#FEFFFF" transform="matrix(1.00, 0.00, -0.00, -1.00, 284.8, 523.0)">a</text><text xml:space="preserve" font-family="Helvetica-Light" font-size="37.2" fill="#FEFFFF" transform="matrix(1.00, 0.00, -0.00, -1.00, 305.5, 523.0)">l</text><text xml:space="preserve" font-family="Helvetica-Light" font-size="37.2" fill="#FEFFFF" transform="matrix(1.00, 0.00, -0.00, -1.00, 313.7, 523.0)">i</text><text xml:space="preserve" font-family="Helvetica-Light" font-size="37.2" fill="#FEFFFF" transform="matrix(1.00, 0.00, -0.00, -1.00, 322.0, 523.0)">t</text><text xml:space="preserve" font-family="Helvetica-Light" font-size="37.2" fill="#FEFFFF" transform="matrix(1.00, 0.00, -0.00, -1.00, 332.3, 523.0)">y</text><text xml:space="preserve" font-family="Helvetica-Light" font-size="37.2" fill="#FEFFFF" transform="matrix(1.00, 0.00, -0.00, -1.00, 351.0, 523.0)">:</text><text xml:space="preserve" font-family="Helvetica-Light" font-size="37.2" fill="#FEFFFF" transform="matrix(1.00, 0.00, -0.00, -1.00, 361.3, 523.0)"> </text><text xml:space="preserve" font-family="Helvetica-Light" font-size="37.2" fill="#FEFFFF" transform="matrix(1.00, 0.00, -0.00, -1.00, 371.7, 523.0)">e</text><text xml:space="preserve" font-family="Helvetica-Light" font-size="37.2" fill="#FEFFFF" transform="matrix(1.00, 0.00, -0.00, -1.00, 392.4, 523.0)">a</text><text xml:space="preserve" font-family="Helvetica-Light" font-size="37.2" fill="#FEFFFF" transform="matrix(1.00, 0.00, -0.00, -1.00, 413.1, 523.0)">s</text><text xml:space="preserve" font-family="Helvetica-Light" font-size="37.2" fill="#FEFFFF" transform="matrix(1.00, 0.00, -0.00, -1.00, 431.7, 523.0)">y</text><text xml:space="preserve" font-family="Helvetica-Light" font-size="37.2" fill="#FEFFFF" transform="matrix(1.00, 0.00, -0.00, -1.00, 450.3, 523.0)"> </text><text xml:space="preserve" font-family="Helvetica-Light" font-size="27.9" fill="#FEFFFF" transform="matrix(1.00, 0.00, -0.00, -1.00, 79.0, 439.3)">•</text><text xml:space="preserve" font-family="Helvetica-Light" font-size="37.2" fill="#FEFFFF" transform="matrix(1.00, 0.00, -0.00, -1.00, 113.0, 435.0)">S</text><text xml:space="preserve" font-family="Helvetica-Light" font-size="37.2" fill="#FEFFFF" transform="matrix(1.00, 0.00, -0.00, -1.00, 135.8, 435.0)">u</text><text xml:space="preserve" font-family="Helvetica-Light" font-size="37.2" fill="#FEFFFF" transform="matrix(1.00, 0.00, -0.00, -1.00, 156.5, 435.0)">b</text><text xml:space="preserve" font-family="Helvetica-Light" font-size="37.2" fill="#FEFFFF" transform="matrix(1.00, 0.00, -0.00, -1.00, 179.2, 435.0)">s</text><text xml:space="preserve" font-family="Helvetica-Light" font-size="37.2" fill="#FEFFFF" transform="matrix(1.00, 0.00, -0.00, -1.00, 197.8, 435.0)">t</text><text xml:space="preserve" font-family="Helvetica-Light" font-size="37.2" fill="#FEFFFF" transform="matrix(1.00, 0.00, -0.00, -1.00, 208.2, 435.0)">r</text><text xml:space="preserve" font-family="Helvetica-Light" font-size="37.2" fill="#FEFFFF" transform="matrix(1.00, 0.00, -0.00, -1.00, 220.6, 435.0)">i</text><text xml:space="preserve" font-family="Helvetica-Light" font-size="37.2" fill="#FEFFFF" transform="matrix(1.00, 0.00, -0.00, -1.00, 228.9, 435.0)">n</text><text xml:space="preserve" font-family="Helvetica-Light" font-size="37.2" fill="#FEFFFF" transform="matrix(1.00, 0.00, -0.00, -1.00, 249.6, 435.0)">g</text><text xml:space="preserve" font-family="Helvetica-Light" font-size="37.2" fill="#FEFFFF" transform="matrix(1.00, 0.00, -0.00, -1.00, 272.3, 435.0)"> </text><text xml:space="preserve" font-family="Helvetica-Light" font-size="37.2" fill="#FEFFFF" transform="matrix(1.00, 0.00, -0.00, -1.00, 282.7, 435.0)">m</text><text xml:space="preserve" font-family="Helvetica-Light" font-size="37.2" fill="#FEFFFF" transform="matrix(1.00, 0.00, -0.00, -1.00, 313.7, 435.0)">a</text><text xml:space="preserve" font-family="Helvetica-Light" font-size="37.2" fill="#FEFFFF" transform="matrix(1.00, 0.00, -0.00, -1.00, 334.4, 435.0)">t</text><text xml:space="preserve" font-family="Helvetica-Light" font-size="37.2" fill="#FEFFFF" transform="matrix(1.00, 0.00, -0.00, -1.00, 344.7, 435.0)">c</text><text xml:space="preserve" font-family="Helvetica-Light" font-size="37.2" fill="#FEFFFF" transform="matrix(1.00, 0.00, -0.00, -1.00, 365.4, 435.0)">h</text><text xml:space="preserve" font-family="Helvetica-Light" font-size="37.2" fill="#FEFFFF" transform="matrix(1.00, 0.00, -0.00, -1.00, 386.2, 435.0)">:</text><text xml:space="preserve" font-family="Helvetica-Light" font-size="37.2" fill="#FEFFFF" transform="matrix(1.00, 0.00, -0.00, -1.00, 396.5, 435.0)"> </text><text xml:space="preserve" font-family="Helvetica-Light" font-size="37.2" fill="#FEFFFF" transform="matrix(1.00, 0.00, -0.00, -1.00, 406.9, 435.0)">e</text><text xml:space="preserve" font-family="Helvetica-Light" font-size="37.2" fill="#FEFFFF" transform="matrix(1.00, 0.00, -0.00, -1.00, 427.6, 435.0)">a</text><text xml:space="preserve" font-family="Helvetica-Light" font-size="37.2" fill="#FEFFFF" transform="matrix(1.00, 0.00, -0.00, -1.00, 448.3, 435.0)">s</text><text xml:space="preserve" font-family="Helvetica-Light" font-size="37.2" fill="#FEFFFF" transform="matrix(1.00, 0.00, -0.00, -1.00, 466.9, 435.0)">y</text><text xml:space="preserve" font-family="Helvetica-Light" font-size="37.2" fill="#FEFFFF" transform="matrix(1.00, 0.00, -0.00, -1.00, 482.1, 435.0)">,</text><text xml:space="preserve" font-family="Helvetica-Light" font-size="37.2" fill="#FEFFFF" transform="matrix(1.00, 0.00, -0.00, -1.00, 492.4, 435.0)"> </text><text xml:space="preserve" font-family="Helvetica-Light" font-size="37.2" fill="#FEFFFF" transform="matrix(1.00, 0.00, -0.00, -1.00, 502.8, 435.0)">b</text><text xml:space="preserve" font-family="Helvetica-Light" font-size="37.2" fill="#FEFFFF" transform="matrix(1.00, 0.00, -0.00, -1.00, 525.5, 435.0)">u</text><text xml:space="preserve" font-family="Helvetica-Light" font-size="37.2" fill="#FEFFFF" transform="matrix(1.00, 0.00, -0.00, -1.00, 546.3, 435.0)">t</text><text xml:space="preserve" font-family="Helvetica-Light" font-size="37.2" fill="#FEFFFF" transform="matrix(1.00, 0.00, -0.00, -1.00, 556.6, 435.0)"> </text><text xml:space="preserve" font-family="Helvetica-Light" font-size="37.2" fill="#FEFFFF" transform="matrix(1.00, 0.00, -0.00, -1.00, 567.0, 435.0)">s</text><text xml:space="preserve" font-family="Helvetica-Light" font-size="37.2" fill="#FEFFFF" transform="matrix(1.00, 0.00, -0.00, -1.00, 585.6, 435.0)">l</text><text xml:space="preserve" font-family="Helvetica-Light" font-size="37.2" fill="#FEFFFF" transform="matrix(1.00, 0.00, -0.00, -1.00, 593.8, 435.0)">o</text><text xml:space="preserve" font-family="Helvetica-Light" font-size="37.2" fill="#FEFFFF" transform="matrix(1.00, 0.00, -0.00, -1.00, 614.5, 435.0)">p</text><text xml:space="preserve" font-family="Helvetica-Light" font-size="37.2" fill="#FEFFFF" transform="matrix(1.00, 0.00, -0.00, -1.00, 637.3, 435.0)">p</text><text xml:space="preserve" font-family="Helvetica-Light" font-size="37.2" fill="#FEFFFF" transform="matrix(1.00, 0.00, -0.00, -1.00, 660.1, 435.0)">y</text><text xml:space="preserve" font-family="Helvetica-Light" font-size="37.2" fill="#FEFFFF" transform="matrix(1.00, 0.00, -0.00, -1.00, 678.7, 435.0)"> </text><text xml:space="preserve" font-family="Helvetica-Light" font-size="27.9" fill="#FEFFFF" transform="matrix(1.00, 0.00, -0.00, -1.00, 79.0, 352.1)">•</text><text xml:space="preserve" font-family="Helvetica-Light" font-size="37.2" fill="#FEFFFF" transform="matrix(1.00, 0.00, -0.00, -1.00, 113.0, 348.0)">E</text><text xml:space="preserve" font-family="Helvetica-Light" font-size="37.2" fill="#FEFFFF" transform="matrix(1.00, 0.00, -0.00, -1.00, 135.8, 348.0)">d</text><text xml:space="preserve" font-family="Helvetica-Light" font-size="37.2" fill="#FEFFFF" transform="matrix(1.00, 0.00, -0.00, -1.00, 158.5, 348.0)">i</text><text xml:space="preserve" font-family="Helvetica-Light" font-size="37.2" fill="#FEFFFF" transform="matrix(1.00, 0.00, -0.00, -1.00, 166.8, 348.0)">t</text><text xml:space="preserve" font-family="Helvetica-Light" font-size="37.2" fill="#FEFFFF" transform="matrix(1.00, 0.00, -0.00, -1.00, 177.1, 348.0)">/</text><text xml:space="preserve" font-family="Helvetica-Light" font-size="37.2" fill="#FEFFFF" transform="matrix(1.00, 0.00, -0.00, -1.00, 187.5, 348.0)">L</text><text xml:space="preserve" font-family="Helvetica-Light" font-size="37.2" fill="#FEFFFF" transform="matrix(1.00, 0.00, -0.00, -1.00, 208.2, 348.0)">e</text><text xml:space="preserve" font-family="Helvetica-Light" font-size="37.2" fill="#FEFFFF" transform="matrix(1.00, 0.00, -0.00, -1.00, 228.9, 348.0)">v</text><text xml:space="preserve" font-family="Helvetica-Light" font-size="37.2" fill="#FEFFFF" transform="matrix(1.00, 0.00, -0.00, -1.00, 247.5, 348.0)">e</text><text xml:space="preserve" font-family="Helvetica-Light" font-size="37.2" fill="#FEFFFF" transform="matrix(1.00, 0.00, -0.00, -1.00, 268.2, 348.0)">n</text><text xml:space="preserve" font-family="Helvetica-Light" font-size="37.2" fill="#FEFFFF" transform="matrix(1.00, 0.00, -0.00, -1.00, 288.9, 348.0)">s</text><text xml:space="preserve" font-family="Helvetica-Light" font-size="37.2" fill="#FEFFFF" transform="matrix(1.00, 0.00, -0.00, -1.00, 307.5, 348.0)">h</text><text xml:space="preserve" font-family="Helvetica-Light" font-size="37.2" fill="#FEFFFF" transform="matrix(1.00, 0.00, -0.00, -1.00, 328.2, 348.0)">t</text><text xml:space="preserve" font-family="Helvetica-Light" font-size="37.2" fill="#FEFFFF" transform="matrix(1.00, 0.00, -0.00, -1.00, 338.6, 348.0)">e</text><text xml:space="preserve" font-family="Helvetica-Light" font-size="37.2" fill="#FEFFFF" transform="matrix(1.00, 0.00, -0.00, -1.00, 359.3, 348.0)">i</text><text xml:space="preserve" font-family="Helvetica-Light" font-size="37.2" fill="#FEFFFF" transform="matrix(1.00, 0.00, -0.00, -1.00, 367.6, 348.0)">n</text><text xml:space="preserve" font-family="Helvetica-Light" font-size="37.2" fill="#FEFFFF" transform="matrix(1.00, 0.00, -0.00, -1.00, 388.3, 348.0)"> </text><text xml:space="preserve" font-family="Helvetica-Light" font-size="37.2" fill="#FEFFFF" transform="matrix(1.00, 0.00, -0.00, -1.00, 398.6, 348.0)">d</text><text xml:space="preserve" font-family="Helvetica-Light" font-size="37.2" fill="#FEFFFF" transform="matrix(1.00, 0.00, -0.00, -1.00, 421.4, 348.0)">i</text><text xml:space="preserve" font-family="Helvetica-Light" font-size="37.2" fill="#FEFFFF" transform="matrix(1.00, 0.00, -0.00, -1.00, 429.7, 348.0)">s</text><text xml:space="preserve" font-family="Helvetica-Light" font-size="37.2" fill="#FEFFFF" transform="matrix(1.00, 0.00, -0.00, -1.00, 448.3, 348.0)">t</text><text xml:space="preserve" font-family="Helvetica-Light" font-size="37.2" fill="#FEFFFF" transform="matrix(1.00, 0.00, -0.00, -1.00, 458.6, 348.0)">a</text><text xml:space="preserve" font-family="Helvetica-Light" font-size="37.2" fill="#FEFFFF" transform="matrix(1.00, 0.00, -0.00, -1.00, 479.3, 348.0)">n</text><text xml:space="preserve" font-family="Helvetica-Light" font-size="37.2" fill="#FEFFFF" transform="matrix(1.00, 0.00, -0.00, -1.00, 500.0, 348.0)">c</text><text xml:space="preserve" font-family="Helvetica-Light" font-size="37.2" fill="#FEFFFF" transform="matrix(1.00, 0.00, -0.00, -1.00, 520.7, 348.0)">e</text><text xml:space="preserve" font-family="Helvetica-Light" font-size="37.2" fill="#FEFFFF" transform="matrix(1.00, 0.00, -0.00, -1.00, 541.4, 348.0)">:</text><text xml:space="preserve" font-family="Helvetica-Light" font-size="37.2" fill="#FEFFFF" transform="matrix(1.00, 0.00, -0.00, -1.00, 551.8, 348.0)"> </text><text xml:space="preserve" font-family="Helvetica-Light" font-size="37.2" fill="#FEFFFF" transform="matrix(1.00, 0.00, -0.00, -1.00, 562.2, 348.0)">m</text><text xml:space="preserve" font-family="Helvetica-Light" font-size="37.2" fill="#FEFFFF" transform="matrix(1.00, 0.00, -0.00, -1.00, 593.2, 348.0)">i</text><text xml:space="preserve" font-family="Helvetica-Light" font-size="37.2" fill="#FEFFFF" transform="matrix(1.00, 0.00, -0.00, -1.00, 601.4, 348.0)">n</text><text xml:space="preserve" font-family="Helvetica-Light" font-size="37.2" fill="#FEFFFF" transform="matrix(1.00, 0.00, -0.00, -1.00, 622.1, 348.0)">i</text><text xml:space="preserve" font-family="Helvetica-Light" font-size="37.2" fill="#FEFFFF" transform="matrix(1.00, 0.00, -0.00, -1.00, 630.4, 348.0)">m</text><text xml:space="preserve" font-family="Helvetica-Light" font-size="37.2" fill="#FEFFFF" transform="matrix(1.00, 0.00, -0.00, -1.00, 661.4, 348.0)">u</text><text xml:space="preserve" font-family="Helvetica-Light" font-size="37.2" fill="#FEFFFF" transform="matrix(1.00, 0.00, -0.00, -1.00, 682.1, 348.0)">m</text><text xml:space="preserve" font-family="Helvetica-Light" font-size="37.2" fill="#FEFFFF" transform="matrix(1.00, 0.00, -0.00, -1.00, 713.2, 348.0)"> </text><text xml:space="preserve" font-family="Helvetica-Light" font-size="37.2" fill="#FEFFFF" transform="matrix(1.00, 0.00, -0.00, -1.00, 723.5, 348.0)">n</text><text xml:space="preserve" font-family="Helvetica-Light" font-size="37.2" fill="#FEFFFF" transform="matrix(1.00, 0.00, -0.00, -1.00, 744.2, 348.0)">u</text><text xml:space="preserve" font-family="Helvetica-Light" font-size="37.2" fill="#FEFFFF" transform="matrix(1.00, 0.00, -0.00, -1.00, 764.9, 348.0)">m</text><text xml:space="preserve" font-family="Helvetica-Light" font-size="37.2" fill="#FEFFFF" transform="matrix(1.00, 0.00, -0.00, -1.00, 795.9, 348.0)">b</text><text xml:space="preserve" font-family="Helvetica-Light" font-size="37.2" fill="#FEFFFF" transform="matrix(1.00, 0.00, -0.00, -1.00, 818.7, 348.0)">e</text><text xml:space="preserve" font-family="Helvetica-Light" font-size="37.2" fill="#FEFFFF" transform="matrix(1.00, 0.00, -0.00, -1.00, 839.4, 348.0)">r</text><text xml:space="preserve" font-family="Helvetica-Light" font-size="37.2" fill="#FEFFFF" transform="matrix(1.00, 0.00, -0.00, -1.00, 851.8, 348.0)"> </text><text xml:space="preserve" font-family="Helvetica-Light" font-size="37.2" fill="#FEFFFF" transform="matrix(1.00, 0.00, -0.00, -1.00, 862.2, 348.0)">o</text><text xml:space="preserve" font-family="Helvetica-Light" font-size="37.2" fill="#FEFFFF" transform="matrix(1.00, 0.00, -0.00, -1.00, 882.9, 348.0)">f</text><text xml:space="preserve" font-family="Helvetica-Light" font-size="37.2" fill="#FEFFFF" transform="matrix(1.00, 0.00, -0.00, -1.00, 893.2, 348.0)"> </text><text xml:space="preserve" font-family="Helvetica-Light" font-size="37.2" fill="#FEFFFF" transform="matrix(1.00, 0.00, -0.00, -1.00, 113.0, 302.0)">e</text><text xml:space="preserve" font-family="Helvetica-Light" font-size="37.2" fill="#FEFFFF" transform="matrix(1.00, 0.00, -0.00, -1.00, 133.7, 302.0)">d</text><text xml:space="preserve" font-family="Helvetica-Light" font-size="37.2" fill="#FEFFFF" transform="matrix(1.00, 0.00, -0.00, -1.00, 156.5, 302.0)">i</text><text xml:space="preserve" font-family="Helvetica-Light" font-size="37.2" fill="#FEFFFF" transform="matrix(1.00, 0.00, -0.00, -1.00, 164.7, 302.0)">t</text><text xml:space="preserve" font-family="Helvetica-Light" font-size="37.2" fill="#FEFFFF" transform="matrix(1.00, 0.00, -0.00, -1.00, 175.1, 302.0)">s</text><text xml:space="preserve" font-family="Helvetica-Light" font-size="37.2" fill="#FEFFFF" transform="matrix(1.00, 0.00, -0.00, -1.00, 193.7, 302.0)"> </text><text xml:space="preserve" font-family="Helvetica-Light" font-size="37.2" fill="#FEFFFF" transform="matrix(1.00, 0.00, -0.00, -1.00, 204.1, 302.0)">t</text><text xml:space="preserve" font-family="Helvetica-Light" font-size="37.2" fill="#FEFFFF" transform="matrix(1.00, 0.00, -0.00, -1.00, 214.4, 302.0)">o</text><text xml:space="preserve" font-family="Helvetica-Light" font-size="37.2" fill="#FEFFFF" transform="matrix(1.00, 0.00, -0.00, -1.00, 235.1, 302.0)"> </text><text xml:space="preserve" font-family="Helvetica-Light" font-size="37.2" fill="#FEFFFF" transform="matrix(1.00, 0.00, -0.00, -1.00, 245.5, 302.0)">t</text><text xml:space="preserve" font-family="Helvetica-Light" font-size="37.2" fill="#FEFFFF" transform="matrix(1.00, 0.00, -0.00, -1.00, 255.8, 302.0)">r</text><text xml:space="preserve" font-family="Helvetica-Light" font-size="37.2" fill="#FEFFFF" transform="matrix(1.00, 0.00, -0.00, -1.00, 268.2, 302.0)">a</text><text xml:space="preserve" font-family="Helvetica-Light" font-size="37.2" fill="#FEFFFF" transform="matrix(1.00, 0.00, -0.00, -1.00, 288.9, 302.0)">n</text><text xml:space="preserve" font-family="Helvetica-Light" font-size="37.2" fill="#FEFFFF" transform="matrix(1.00, 0.00, -0.00, -1.00, 309.6, 302.0)">s</text><text xml:space="preserve" font-family="Helvetica-Light" font-size="37.2" fill="#FEFFFF" transform="matrix(1.00, 0.00, -0.00, -1.00, 328.2, 302.0)">f</text><text xml:space="preserve" font-family="Helvetica-Light" font-size="37.2" fill="#FEFFFF" transform="matrix(1.00, 0.00, -0.00, -1.00, 338.6, 302.0)">o</text><text xml:space="preserve" font-family="Helvetica-Light" font-size="37.2" fill="#FEFFFF" transform="matrix(1.00, 0.00, -0.00, -1.00, 359.3, 302.0)">r</text><text xml:space="preserve" font-family="Helvetica-Light" font-size="37.2" fill="#FEFFFF" transform="matrix(1.00, 0.00, -0.00, -1.00, 372.4, 302.0)">m</text><text xml:space="preserve" font-family="Helvetica-Light" font-size="37.2" fill="#FEFFFF" transform="matrix(1.00, 0.00, -0.00, -1.00, 403.4, 302.0)"> </text><text xml:space="preserve" font-family="Helvetica-Light" font-size="37.2" fill="#FEFFFF" transform="matrix(1.00, 0.00, -0.00, -1.00, 413.8, 302.0)">o</text><text xml:space="preserve" font-family="Helvetica-Light" font-size="37.2" fill="#FEFFFF" transform="matrix(1.00, 0.00, -0.00, -1.00, 434.5, 302.0)">n</text><text xml:space="preserve" font-family="Helvetica-Light" font-size="37.2" fill="#FEFFFF" transform="matrix(1.00, 0.00, -0.00, -1.00, 455.2, 302.0)">e</text><text xml:space="preserve" font-family="Helvetica-Light" font-size="37.2" fill="#FEFFFF" transform="matrix(1.00, 0.00, -0.00, -1.00, 475.9, 302.0)"> </text><text xml:space="preserve" font-family="Helvetica-Light" font-size="37.2" fill="#FEFFFF" transform="matrix(1.00, 0.00, -0.00, -1.00, 486.2, 302.0)">s</text><text xml:space="preserve" font-family="Helvetica-Light" font-size="37.2" fill="#FEFFFF" transform="matrix(1.00, 0.00, -0.00, -1.00, 504.8, 302.0)">t</text><text xml:space="preserve" font-family="Helvetica-Light" font-size="37.2" fill="#FEFFFF" transform="matrix(1.00, 0.00, -0.00, -1.00, 515.2, 302.0)">r</text><text xml:space="preserve" font-family="Helvetica-Light" font-size="37.2" fill="#FEFFFF" transform="matrix(1.00, 0.00, -0.00, -1.00, 527.6, 302.0)">i</text><text xml:space="preserve" font-family="Helvetica-Light" font-size="37.2" fill="#FEFFFF" transform="matrix(1.00, 0.00, -0.00, -1.00, 535.9, 302.0)">n</text><text xml:space="preserve" font-family="Helvetica-Light" font-size="37.2" fill="#FEFFFF" transform="matrix(1.00, 0.00, -0.00, -1.00, 556.6, 302.0)">g</text><text xml:space="preserve" font-family="Helvetica-Light" font-size="37.2" fill="#FEFFFF" transform="matrix(1.00, 0.00, -0.00, -1.00, 579.3, 302.0)"> </text><text xml:space="preserve" font-family="Helvetica-Light" font-size="37.2" fill="#FEFFFF" transform="matrix(1.00, 0.00, -0.00, -1.00, 589.7, 302.0)">i</text><text xml:space="preserve" font-family="Helvetica-Light" font-size="37.2" fill="#FEFFFF" transform="matrix(1.00, 0.00, -0.00, -1.00, 597.9, 302.0)">n</text><text xml:space="preserve" font-family="Helvetica-Light" font-size="37.2" fill="#FEFFFF" transform="matrix(1.00, 0.00, -0.00, -1.00, 618.6, 302.0)">t</text><text xml:space="preserve" font-family="Helvetica-Light" font-size="37.2" fill="#FEFFFF" transform="matrix(1.00, 0.00, -0.00, -1.00, 629.0, 302.0)">o</text><text xml:space="preserve" font-family="Helvetica-Light" font-size="37.2" fill="#FEFFFF" transform="matrix(1.00, 0.00, -0.00, -1.00, 649.7, 302.0)"> </text><text xml:space="preserve" font-family="Helvetica-Light" font-size="37.2" fill="#FEFFFF" transform="matrix(1.00, 0.00, -0.00, -1.00, 660.1, 302.0)">a</text><text xml:space="preserve" font-family="Helvetica-Light" font-size="37.2" fill="#FEFFFF" transform="matrix(1.00, 0.00, -0.00, -1.00, 680.8, 302.0)">n</text><text xml:space="preserve" font-family="Helvetica-Light" font-size="37.2" fill="#FEFFFF" transform="matrix(1.00, 0.00, -0.00, -1.00, 701.5, 302.0)">o</text><text xml:space="preserve" font-family="Helvetica-Light" font-size="37.2" fill="#FEFFFF" transform="matrix(1.00, 0.00, -0.00, -1.00, 722.2, 302.0)">t</text><text xml:space="preserve" font-family="Helvetica-Light" font-size="37.2" fill="#FEFFFF" transform="matrix(1.00, 0.00, -0.00, -1.00, 732.5, 302.0)">h</text><text xml:space="preserve" font-family="Helvetica-Light" font-size="37.2" fill="#FEFFFF" transform="matrix(1.00, 0.00, -0.00, -1.00, 753.2, 302.0)">e</text><text xml:space="preserve" font-family="Helvetica-Light" font-size="37.2" fill="#FEFFFF" transform="matrix(1.00, 0.00, -0.00, -1.00, 773.9, 302.0)">r</text><text xml:space="preserve" font-family="Helvetica-Light" font-size="37.2" fill="#FEFFFF" transform="matrix(1.00, 0.00, -0.00, -1.00, 786.3, 302.0)"> </text><text xml:space="preserve" font-family="Helvetica-Light" font-size="27.9" fill="#FEFFFF" transform="matrix(1.00, 0.00, -0.00, -1.00, 79.0, 218.9)">•</text><text xml:space="preserve" font-family="Helvetica-Light" font-size="37.2" fill="#FEFFFF" transform="matrix(1.00, 0.00, -0.00, -1.00, 113.0, 215.0)">C</text><text xml:space="preserve" font-family="Helvetica-Light" font-size="37.2" fill="#FEFFFF" transform="matrix(1.00, 0.00, -0.00, -1.00, 139.9, 215.0)">o</text><text xml:space="preserve" font-family="Helvetica-Light" font-size="37.2" fill="#FEFFFF" transform="matrix(1.00, 0.00, -0.00, -1.00, 160.6, 215.0)">s</text><text xml:space="preserve" font-family="Helvetica-Light" font-size="37.2" fill="#FEFFFF" transform="matrix(1.00, 0.00, -0.00, -1.00, 179.2, 215.0)">i</text><text xml:space="preserve" font-family="Helvetica-Light" font-size="37.2" fill="#FEFFFF" transform="matrix(1.00, 0.00, -0.00, -1.00, 187.5, 215.0)">n</text><text xml:space="preserve" font-family="Helvetica-Light" font-size="37.2" fill="#FEFFFF" transform="matrix(1.00, 0.00, -0.00, -1.00, 208.2, 215.0)">e</text><text xml:space="preserve" font-family="Helvetica-Light" font-size="37.2" fill="#FEFFFF" transform="matrix(1.00, 0.00, -0.00, -1.00, 228.9, 215.0)"> </text><text xml:space="preserve" font-family="Helvetica-Light" font-size="37.2" fill="#FEFFFF" transform="matrix(1.00, 0.00, -0.00, -1.00, 239.2, 215.0)">s</text><text xml:space="preserve" font-family="Helvetica-Light" font-size="37.2" fill="#FEFFFF" transform="matrix(1.00, 0.00, -0.00, -1.00, 257.9, 215.0)">i</text><text xml:space="preserve" font-family="Helvetica-Light" font-size="37.2" fill="#FEFFFF" transform="matrix(1.00, 0.00, -0.00, -1.00, 266.1, 215.0)">m</text><text xml:space="preserve" font-family="Helvetica-Light" font-size="37.2" fill="#FEFFFF" transform="matrix(1.00, 0.00, -0.00, -1.00, 297.2, 215.0)">i</text><text xml:space="preserve" font-family="Helvetica-Light" font-size="37.2" fill="#FEFFFF" transform="matrix(1.00, 0.00, -0.00, -1.00, 305.4, 215.0)">l</text><text xml:space="preserve" font-family="Helvetica-Light" font-size="37.2" fill="#FEFFFF" transform="matrix(1.00, 0.00, -0.00, -1.00, 313.7, 215.0)">a</text><text xml:space="preserve" font-family="Helvetica-Light" font-size="37.2" fill="#FEFFFF" transform="matrix(1.00, 0.00, -0.00, -1.00, 334.4, 215.0)">r</text><text xml:space="preserve" font-family="Helvetica-Light" font-size="37.2" fill="#FEFFFF" transform="matrix(1.00, 0.00, -0.00, -1.00, 346.8, 215.0)">i</text><text xml:space="preserve" font-family="Helvetica-Light" font-size="37.2" fill="#FEFFFF" transform="matrix(1.00, 0.00, -0.00, -1.00, 355.1, 215.0)">t</text><text xml:space="preserve" font-family="Helvetica-Light" font-size="37.2" fill="#FEFFFF" transform="matrix(1.00, 0.00, -0.00, -1.00, 365.4, 215.0)">y</text><text xml:space="preserve" font-family="Helvetica-Light" font-size="37.2" fill="#FEFFFF" transform="matrix(1.00, 0.00, -0.00, -1.00, 384.0, 215.0)">:</text><text xml:space="preserve" font-family="Helvetica-Light" font-size="37.2" fill="#FEFFFF" transform="matrix(1.00, 0.00, -0.00, -1.00, 394.4, 215.0)"> </text><text xml:space="preserve" font-family="Helvetica-Light" font-size="37.2" fill="#FEFFFF" transform="matrix(1.00, 0.00, -0.00, -1.00, 404.7, 215.0)">m</text><text xml:space="preserve" font-family="Helvetica-Light" font-size="37.2" fill="#FEFFFF" transform="matrix(1.00, 0.00, -0.00, -1.00, 435.8, 215.0)">e</text><text xml:space="preserve" font-family="Helvetica-Light" font-size="37.2" fill="#FEFFFF" transform="matrix(1.00, 0.00, -0.00, -1.00, 456.5, 215.0)">a</text><text xml:space="preserve" font-family="Helvetica-Light" font-size="37.2" fill="#FEFFFF" transform="matrix(1.00, 0.00, -0.00, -1.00, 477.2, 215.0)">s</text><text xml:space="preserve" font-family="Helvetica-Light" font-size="37.2" fill="#FEFFFF" transform="matrix(1.00, 0.00, -0.00, -1.00, 495.8, 215.0)">u</text><text xml:space="preserve" font-family="Helvetica-Light" font-size="37.2" fill="#FEFFFF" transform="matrix(1.00, 0.00, -0.00, -1.00, 516.5, 215.0)">r</text><text xml:space="preserve" font-family="Helvetica-Light" font-size="37.2" fill="#FEFFFF" transform="matrix(1.00, 0.00, -0.00, -1.00, 528.2, 215.0)">e</text><text xml:space="preserve" font-family="Helvetica-Light" font-size="37.2" fill="#FEFFFF" transform="matrix(1.00, 0.00, -0.00, -1.00, 548.9, 215.0)"> </text><text xml:space="preserve" font-family="Helvetica-Light" font-size="37.2" fill="#FEFFFF" transform="matrix(1.00, 0.00, -0.00, -1.00, 559.3, 215.0)">d</text><text xml:space="preserve" font-family="Helvetica-Light" font-size="37.2" fill="#FEFFFF" transform="matrix(1.00, 0.00, -0.00, -1.00, 582.0, 215.0)">i</text><text xml:space="preserve" font-family="Helvetica-Light" font-size="37.2" fill="#FEFFFF" transform="matrix(1.00, 0.00, -0.00, -1.00, 590.3, 215.0)">s</text><text xml:space="preserve" font-family="Helvetica-Light" font-size="37.2" fill="#FEFFFF" transform="matrix(1.00, 0.00, -0.00, -1.00, 608.9, 215.0)">t</text><text xml:space="preserve" font-family="Helvetica-Light" font-size="37.2" fill="#FEFFFF" transform="matrix(1.00, 0.00, -0.00, -1.00, 619.3, 215.0)">a</text><text xml:space="preserve" font-family="Helvetica-Light" font-size="37.2" fill="#FEFFFF" transform="matrix(1.00, 0.00, -0.00, -1.00, 640.0, 215.0)">n</text><text xml:space="preserve" font-family="Helvetica-Light" font-size="37.2" fill="#FEFFFF" transform="matrix(1.00, 0.00, -0.00, -1.00, 660.7, 215.0)">c</text><text xml:space="preserve" font-family="Helvetica-Light" font-size="37.2" fill="#FEFFFF" transform="matrix(1.00, 0.00, -0.00, -1.00, 681.4, 215.0)">e</text><text xml:space="preserve" font-family="Helvetica-Light" font-size="37.2" fill="#FEFFFF" transform="matrix(1.00, 0.00, -0.00, -1.00, 702.1, 215.0)"> </text><text xml:space="preserve" font-family="Helvetica-Light" font-size="37.2" fill="#FEFFFF" transform="matrix(1.00, 0.00, -0.00, -1.00, 712.5, 215.0)">o</text><text xml:space="preserve" font-family="Helvetica-Light" font-size="37.2" fill="#FEFFFF" transform="matrix(1.00, 0.00, -0.00, -1.00, 733.2, 215.0)">f</text><text xml:space="preserve" font-family="Helvetica-Light" font-size="37.2" fill="#FEFFFF" transform="matrix(1.00, 0.00, -0.00, -1.00, 743.5, 215.0)"> </text><text xml:space="preserve" font-family="Helvetica-Light" font-size="37.2" fill="#FEFFFF" transform="matrix(1.00, 0.00, -0.00, -1.00, 753.9, 215.0)">s</text><text xml:space="preserve" font-family="Helvetica-Light" font-size="37.2" fill="#FEFFFF" transform="matrix(1.00, 0.00, -0.00, -1.00, 772.5, 215.0)">t</text><text xml:space="preserve" font-family="Helvetica-Light" font-size="37.2" fill="#FEFFFF" transform="matrix(1.00, 0.00, -0.00, -1.00, 782.8, 215.0)">r</text><text xml:space="preserve" font-family="Helvetica-Light" font-size="37.2" fill="#FEFFFF" transform="matrix(1.00, 0.00, -0.00, -1.00, 795.2, 215.0)">i</text><text xml:space="preserve" font-family="Helvetica-Light" font-size="37.2" fill="#FEFFFF" transform="matrix(1.00, 0.00, -0.00, -1.00, 803.5, 215.0)">n</text><text xml:space="preserve" font-family="Helvetica-Light" font-size="37.2" fill="#FEFFFF" transform="matrix(1.00, 0.00, -0.00, -1.00, 824.2, 215.0)">g</text><text xml:space="preserve" font-family="Helvetica-Light" font-size="37.2" fill="#FEFFFF" transform="matrix(1.00, 0.00, -0.00, -1.00, 847.0, 215.0)">s</text><text xml:space="preserve" font-family="Helvetica-Light" font-size="37.2" fill="#FEFFFF" transform="matrix(1.00, 0.00, -0.00, -1.00, 865.6, 215.0)"> </text><text xml:space="preserve" font-family="Helvetica-Light" font-size="37.2" fill="#FEFFFF" transform="matrix(1.00, 0.00, -0.00, -1.00, 875.9, 215.0)">i</text><text xml:space="preserve" font-family="Helvetica-Light" font-size="37.2" fill="#FEFFFF" transform="matrix(1.00, 0.00, -0.00, -1.00, 884.2, 215.0)">n</text><text xml:space="preserve" font-family="Helvetica-Light" font-size="37.2" fill="#FEFFFF" transform="matrix(1.00, 0.00, -0.00, -1.00, 904.9, 215.0)"> </text><text xml:space="preserve" font-family="Helvetica-Light" font-size="37.2" fill="#FEFFFF" transform="matrix(1.00, 0.00, -0.00, -1.00, 113.0, 169.0)">v</text><text xml:space="preserve" font-family="Helvetica-Light" font-size="37.2" fill="#FEFFFF" transform="matrix(1.00, 0.00, -0.00, -1.00, 131.6, 169.0)">e</text><text xml:space="preserve" font-family="Helvetica-Light" font-size="37.2" fill="#FEFFFF" transform="matrix(1.00, 0.00, -0.00, -1.00, 152.3, 169.0)">c</text><text xml:space="preserve" font-family="Helvetica-Light" font-size="37.2" fill="#FEFFFF" transform="matrix(1.00, 0.00, -0.00, -1.00, 173.0, 169.0)">t</text><text xml:space="preserve" font-family="Helvetica-Light" font-size="37.2" fill="#FEFFFF" transform="matrix(1.00, 0.00, -0.00, -1.00, 183.4, 169.0)">o</text><text xml:space="preserve" font-family="Helvetica-Light" font-size="37.2" fill="#FEFFFF" transform="matrix(1.00, 0.00, -0.00, -1.00, 204.1, 169.0)">r</text><text xml:space="preserve" font-family="Helvetica-Light" font-size="37.2" fill="#FEFFFF" transform="matrix(1.00, 0.00, -0.00, -1.00, 216.5, 169.0)"> </text><text xml:space="preserve" font-family="Helvetica-Light" font-size="37.2" fill="#FEFFFF" transform="matrix(1.00, 0.00, -0.00, -1.00, 226.8, 169.0)">s</text><text xml:space="preserve" font-family="Helvetica-Light" font-size="37.2" fill="#FEFFFF" transform="matrix(1.00, 0.00, -0.00, -1.00, 245.5, 169.0)">p</text><text xml:space="preserve" font-family="Helvetica-Light" font-size="37.2" fill="#FEFFFF" transform="matrix(1.00, 0.00, -0.00, -1.00, 268.2, 169.0)">a</text><text xml:space="preserve" font-family="Helvetica-Light" font-size="37.2" fill="#FEFFFF" transform="matrix(1.00, 0.00, -0.00, -1.00, 288.9, 169.0)">c</text><text xml:space="preserve" font-family="Helvetica-Light" font-size="37.2" fill="#FEFFFF" transform="matrix(1.00, 0.00, -0.00, -1.00, 309.6, 169.0)">e</text><text xml:space="preserve" font-family="Helvetica-Light" font-size="37.2" fill="#FEFFFF" transform="matrix(1.00, 0.00, -0.00, -1.00, 330.3, 169.0)"> </text><text xml:space="preserve" font-family="Helvetica-Light" font-size="37.2" fill="#FEFFFF" transform="matrix(1.00, 0.00, -0.00, -1.00, 340.7, 169.0)">-</text><text xml:space="preserve" font-family="Helvetica-Light" font-size="37.2" fill="#FEFFFF" transform="matrix(1.00, 0.00, -0.00, -1.00, 353.1, 169.0)"> </text><text xml:space="preserve" font-family="Helvetica-Light" font-size="37.2" fill="#FEFFFF" transform="matrix(1.00, 0.00, -0.00, -1.00, 363.4, 169.0)">r</text><text xml:space="preserve" font-family="Helvetica-Light" font-size="37.2" fill="#FEFFFF" transform="matrix(1.00, 0.00, -0.00, -1.00, 375.2, 169.0)">o</text><text xml:space="preserve" font-family="Helvetica-Light" font-size="37.2" fill="#FEFFFF" transform="matrix(1.00, 0.00, -0.00, -1.00, 395.9, 169.0)">b</text><text xml:space="preserve" font-family="Helvetica-Light" font-size="37.2" fill="#FEFFFF" transform="matrix(1.00, 0.00, -0.00, -1.00, 418.6, 169.0)">u</text><text xml:space="preserve" font-family="Helvetica-Light" font-size="37.2" fill="#FEFFFF" transform="matrix(1.00, 0.00, -0.00, -1.00, 439.3, 169.0)">s</text><text xml:space="preserve" font-family="Helvetica-Light" font-size="37.2" fill="#FEFFFF" transform="matrix(1.00, 0.00, -0.00, -1.00, 458.0, 169.0)">t</text><text xml:space="preserve" font-family="Helvetica-Light" font-size="37.2" fill="#FEFFFF" transform="matrix(1.00, 0.00, -0.00, -1.00, 468.3, 169.0)"> </text><text xml:space="preserve" font-family="Helvetica-Light" font-size="37.2" fill="#FEFFFF" transform="matrix(1.00, 0.00, -0.00, -1.00, 478.7, 169.0)">t</text><text xml:space="preserve" font-family="Helvetica-Light" font-size="37.2" fill="#FEFFFF" transform="matrix(1.00, 0.00, -0.00, -1.00, 489.0, 169.0)">o</text><text xml:space="preserve" font-family="Helvetica-Light" font-size="37.2" fill="#FEFFFF" transform="matrix(1.00, 0.00, -0.00, -1.00, 509.7, 169.0)"> </text><text xml:space="preserve" font-family="Helvetica-Light" font-size="37.2" fill="#FEFFFF" transform="matrix(1.00, 0.00, -0.00, -1.00, 520.1, 169.0)">r</text><text xml:space="preserve" font-family="Helvetica-Light" font-size="37.2" fill="#FEFFFF" transform="matrix(1.00, 0.00, -0.00, -1.00, 531.8, 169.0)">e</text><text xml:space="preserve" font-family="Helvetica-Light" font-size="37.2" fill="#FEFFFF" transform="matrix(1.00, 0.00, -0.00, -1.00, 552.5, 169.0)">a</text><text xml:space="preserve" font-family="Helvetica-Light" font-size="37.2" fill="#FEFFFF" transform="matrix(1.00, 0.00, -0.00, -1.00, 573.2, 169.0)">r</text><text xml:space="preserve" font-family="Helvetica-Light" font-size="37.2" fill="#FEFFFF" transform="matrix(1.00, 0.00, -0.00, -1.00, 585.6, 169.0)">r</text><text xml:space="preserve" font-family="Helvetica-Light" font-size="37.2" fill="#FEFFFF" transform="matrix(1.00, 0.00, -0.00, -1.00, 598.0, 169.0)">a</text><text xml:space="preserve" font-family="Helvetica-Light" font-size="37.2" fill="#FEFFFF" transform="matrix(1.00, 0.00, -0.00, -1.00, 618.7, 169.0)">n</text><text xml:space="preserve" font-family="Helvetica-Light" font-size="37.2" fill="#FEFFFF" transform="matrix(1.00, 0.00, -0.00, -1.00, 639.4, 169.0)">g</text><text xml:space="preserve" font-family="Helvetica-Light" font-size="37.2" fill="#FEFFFF" transform="matrix(1.00, 0.00, -0.00, -1.00, 662.2, 169.0)">e</text><text xml:space="preserve" font-family="Helvetica-Light" font-size="37.2" fill="#FEFFFF" transform="matrix(1.00, 0.00, -0.00, -1.00, 682.9, 169.0)">m</text><text xml:space="preserve" font-family="Helvetica-Light" font-size="37.2" fill="#FEFFFF" transform="matrix(1.00, 0.00, -0.00, -1.00, 713.9, 169.0)">e</text><text xml:space="preserve" font-family="Helvetica-Light" font-size="37.2" fill="#FEFFFF" transform="matrix(1.00, 0.00, -0.00, -1.00, 734.6, 169.0)">n</text><text xml:space="preserve" font-family="Helvetica-Light" font-size="37.2" fill="#FEFFFF" transform="matrix(1.00, 0.00, -0.00, -1.00, 755.3, 169.0)">t</text><text xml:space="preserve" font-family="Helvetica-Light" font-size="37.2" fill="#FEFFFF" transform="matrix(1.00, 0.00, -0.00, -1.00, 765.7, 169.0)"> </text><text xml:space="preserve" font-family="Helvetica-Light" font-size="37.2" fill="#FEFFFF" transform="matrix(1.00, 0.00, -0.00, -1.00, 776.0, 169.0)">o</text><text xml:space="preserve" font-family="Helvetica-Light" font-size="37.2" fill="#FEFFFF" transform="matrix(1.00, 0.00, -0.00, -1.00, 796.7, 169.0)">f</text><text xml:space="preserve" font-family="Helvetica-Light" font-size="37.2" fill="#FEFFFF" transform="matrix(1.00, 0.00, -0.00, -1.00, 807.1, 169.0)"> </text><text xml:space="preserve" font-family="Helvetica-Light" font-size="37.2" fill="#FEFFFF" transform="matrix(1.00, 0.00, -0.00, -1.00, 817.4, 169.0)">w</text><text xml:space="preserve" font-family="Helvetica-Light" font-size="37.2" fill="#FEFFFF" transform="matrix(1.00, 0.00, -0.00, -1.00, 844.3, 169.0)">o</text><text xml:space="preserve" font-family="Helvetica-Light" font-size="37.2" fill="#FEFFFF" transform="matrix(1.00, 0.00, -0.00, -1.00, 865.0, 169.0)">r</text><text xml:space="preserve" font-family="Helvetica-Light" font-size="37.2" fill="#FEFFFF" transform="matrix(1.00, 0.00, -0.00, -1.00, 876.8, 169.0)">d</text><text xml:space="preserve" font-family="Helvetica-Light" font-size="37.2" fill="#FEFFFF" transform="matrix(1.00, 0.00, -0.00, -1.00, 899.5, 169.0)">s</text><text xml:space="preserve" font-family="Helvetica-Light" font-size="37.2" fill="#FEFFFF" transform="matrix(1.00, 0.00, -0.00, -1.00, 918.1, 169.0)"> </text><text xml:space="preserve" font-family="Helvetica-Light" font-size="27.9" fill="#FEFFFF" transform="matrix(1.00, 0.00, -0.00, -1.00, 79.0, 85.8)">•</text><text xml:space="preserve" font-family="Helvetica-Light" font-size="37.2" fill="#FEFFFF" transform="matrix(1.00, 0.00, -0.00, -1.00, 113.0, 82.0)">P</text><text xml:space="preserve" font-family="Helvetica-Light" font-size="37.2" fill="#FEFFFF" transform="matrix(1.00, 0.00, -0.00, -1.00, 135.8, 82.0)">h</text><text xml:space="preserve" font-family="Helvetica-Light" font-size="37.2" fill="#FEFFFF" transform="matrix(1.00, 0.00, -0.00, -1.00, 156.5, 82.0)">o</text><text xml:space="preserve" font-family="Helvetica-Light" font-size="37.2" fill="#FEFFFF" transform="matrix(1.00, 0.00, -0.00, -1.00, 177.2, 82.0)">n</text><text xml:space="preserve" font-family="Helvetica-Light" font-size="37.2" fill="#FEFFFF" transform="matrix(1.00, 0.00, -0.00, -1.00, 197.9, 82.0)">e</text><text xml:space="preserve" font-family="Helvetica-Light" font-size="37.2" fill="#FEFFFF" transform="matrix(1.00, 0.00, -0.00, -1.00, 218.6, 82.0)">t</text><text xml:space="preserve" font-family="Helvetica-Light" font-size="37.2" fill="#FEFFFF" transform="matrix(1.00, 0.00, -0.00, -1.00, 228.9, 82.0)">i</text><text xml:space="preserve" font-family="Helvetica-Light" font-size="37.2" fill="#FEFFFF" transform="matrix(1.00, 0.00, -0.00, -1.00, 237.2, 82.0)">c</text><text xml:space="preserve" font-family="Helvetica-Light" font-size="37.2" fill="#FEFFFF" transform="matrix(1.00, 0.00, -0.00, -1.00, 257.9, 82.0)"> </text><text xml:space="preserve" font-family="Helvetica-Light" font-size="37.2" fill="#FEFFFF" transform="matrix(1.00, 0.00, -0.00, -1.00, 268.3, 82.0)">a</text><text xml:space="preserve" font-family="Helvetica-Light" font-size="37.2" fill="#FEFFFF" transform="matrix(1.00, 0.00, -0.00, -1.00, 289.0, 82.0)">l</text><text xml:space="preserve" font-family="Helvetica-Light" font-size="37.2" fill="#FEFFFF" transform="matrix(1.00, 0.00, -0.00, -1.00, 297.2, 82.0)">g</text><text xml:space="preserve" font-family="Helvetica-Light" font-size="37.2" fill="#FEFFFF" transform="matrix(1.00, 0.00, -0.00, -1.00, 320.0, 82.0)">o</text><text xml:space="preserve" font-family="Helvetica-Light" font-size="37.2" fill="#FEFFFF" transform="matrix(1.00, 0.00, -0.00, -1.00, 340.7, 82.0)">r</text><text xml:space="preserve" font-family="Helvetica-Light" font-size="37.2" fill="#FEFFFF" transform="matrix(1.00, 0.00, -0.00, -1.00, 353.1, 82.0)">i</text><text xml:space="preserve" font-family="Helvetica-Light" font-size="37.2" fill="#FEFFFF" transform="matrix(1.00, 0.00, -0.00, -1.00, 361.4, 82.0)">t</text><text xml:space="preserve" font-family="Helvetica-Light" font-size="37.2" fill="#FEFFFF" transform="matrix(1.00, 0.00, -0.00, -1.00, 371.7, 82.0)">h</text><text xml:space="preserve" font-family="Helvetica-Light" font-size="37.2" fill="#FEFFFF" transform="matrix(1.00, 0.00, -0.00, -1.00, 392.4, 82.0)">m</text><text xml:space="preserve" font-family="Helvetica-Light" font-size="37.2" fill="#FEFFFF" transform="matrix(1.00, 0.00, -0.00, -1.00, 423.4, 82.0)">s</text><text xml:space="preserve" font-family="Helvetica-Light" font-size="37.2" fill="#FEFFFF" transform="matrix(1.00, 0.00, -0.00, -1.00, 442.1, 82.0)">:</text><text xml:space="preserve" font-family="Helvetica-Light" font-size="37.2" fill="#FEFFFF" transform="matrix(1.00, 0.00, -0.00, -1.00, 452.4, 82.0)"> </text><text xml:space="preserve" font-family="Helvetica-Light" font-size="37.2" fill="#FEFFFF" transform="matrix(1.00, 0.00, -0.00, -1.00, 462.8, 82.0)">e</text><text xml:space="preserve" font-family="Helvetica-Light" font-size="37.2" fill="#FEFFFF" transform="matrix(1.00, 0.00, -0.00, -1.00, 483.5, 82.0)">.</text><text xml:space="preserve" font-family="Helvetica-Light" font-size="37.2" fill="#FEFFFF" transform="matrix(1.00, 0.00, -0.00, -1.00, 493.8, 82.0)">g</text><text xml:space="preserve" font-family="Helvetica-Light" font-size="37.2" fill="#FEFFFF" transform="matrix(1.00, 0.00, -0.00, -1.00, 516.6, 82.0)">.</text><text xml:space="preserve" font-family="Helvetica-Light" font-size="37.2" fill="#FEFFFF" transform="matrix(1.00, 0.00, -0.00, -1.00, 526.9, 82.0)"> </text><text xml:space="preserve" font-family="Helvetica-Light" font-size="37.2" fill="#FEFFFF" transform="matrix(1.00, 0.00, -0.00, -1.00, 537.3, 82.0)">M</text><text xml:space="preserve" font-family="Helvetica-Light" font-size="37.2" fill="#FEFFFF" transform="matrix(1.00, 0.00, -0.00, -1.00, 568.3, 82.0)">e</text><text xml:space="preserve" font-family="Helvetica-Light" font-size="37.2" fill="#FEFFFF" transform="matrix(1.00, 0.00, -0.00, -1.00, 589.0, 82.0)">t</text><text xml:space="preserve" font-family="Helvetica-Light" font-size="37.2" fill="#FEFFFF" transform="matrix(1.00, 0.00, -0.00, -1.00, 599.4, 82.0)">a</text><text xml:space="preserve" font-family="Helvetica-Light" font-size="37.2" fill="#FEFFFF" transform="matrix(1.00, 0.00, -0.00, -1.00, 620.1, 82.0)">p</text><text xml:space="preserve" font-family="Helvetica-Light" font-size="37.2" fill="#FEFFFF" transform="matrix(1.00, 0.00, -0.00, -1.00, 642.8, 82.0)">h</text><text xml:space="preserve" font-family="Helvetica-Light" font-size="37.2" fill="#FEFFFF" transform="matrix(1.00, 0.00, -0.00, -1.00, 663.5, 82.0)">o</text><text xml:space="preserve" font-family="Helvetica-Light" font-size="37.2" fill="#FEFFFF" transform="matrix(1.00, 0.00, -0.00, -1.00, 684.2, 82.0)">n</text><text xml:space="preserve" font-family="Helvetica-Light" font-size="37.2" fill="#FEFFFF" transform="matrix(1.00, 0.00, -0.00, -1.00, 704.9, 82.0)">e</text></g></svg>