<?xml version="1.0" encoding="UTF-8" standalone="no"?><svg xmlns="http://www.w3.org/2000/svg" xmlns:xlink="http://www.w3.org/1999/xlink" clip-rule="evenodd" stroke-miterlimit="4.00" viewBox="0 0 1024 768"><desc>SVG generated by Keynote</desc><defs></defs><g transform="matrix(1.00, 0.00, -0.00, -1.00, 0.0, 768.0)"><path d="M 0.0 768.0 L 1024.0 768.0 L 1024.0 0.0 L 0.0 0.0 Z M 0.0 768.0 " fill="#000000"></path><image xlink:href="9C664A6EC57AEAEC3821B4D14F3EA128.png" width="897.00" height="539.00" transform="matrix(1.14, 0.00, -0.00, -1.14, 0.0, 684.0)"></image><text xml:space="preserve" font-family="Helvetica-Light" font-size="36.0" fill="#FEFFFF" transform="matrix(1.00, 0.00, -0.00, -1.00, 254.0, 709.0)">h</text><text xml:space="preserve" font-family="Helvetica-Light" font-size="36.0" fill="#FEFFFF" transform="matrix(1.00, 0.00, -0.00, -1.00, 274.0, 709.0)">t</text><text xml:space="preserve" font-family="Helvetica-Light" font-size="36.0" fill="#FEFFFF" transform="matrix(1.00, 0.00, -0.00, -1.00, 284.0, 709.0)">t</text><text xml:space="preserve" font-family="Helvetica-Light" font-size="36.0" fill="#FEFFFF" transform="matrix(1.00, 0.00, -0.00, -1.00, 294.0, 709.0)">p</text><text xml:space="preserve" font-family="Helvetica-Light" font-size="36.0" fill="#FEFFFF" transform="matrix(1.00, 0.00, -0.00, -1.00, 316.0, 709.0)">:</text><text xml:space="preserve" font-family="Helvetica-Light" font-size="36.0" fill="#FEFFFF" transform="matrix(1.00, 0.00, -0.00, -1.00, 326.0, 709.0)">/</text><text xml:space="preserve" font-family="Helvetica-Light" font-size="36.0" fill="#FEFFFF" transform="matrix(1.00, 0.00, -0.00, -1.00, 336.0, 709.0)">/</text><text xml:space="preserve" font-family="Helvetica-Light" font-size="36.0" fill="#FEFFFF" transform="matrix(1.00, 0.00, -0.00, -1.00, 346.1, 709.0)">a</text><text xml:space="preserve" font-family="Helvetica-Light" font-size="36.0" fill="#FEFFFF" transform="matrix(1.00, 0.00, -0.00, -1.00, 366.1, 709.0)">t</text><text xml:space="preserve" font-family="Helvetica-Light" font-size="36.0" fill="#FEFFFF" transform="matrix(1.00, 0.00, -0.00, -1.00, 376.1, 709.0)">l</text><text xml:space="preserve" font-family="Helvetica-Light" font-size="36.0" fill="#FEFFFF" transform="matrix(1.00, 0.00, -0.00, -1.00, 384.1, 709.0)">a</text><text xml:space="preserve" font-family="Helvetica-Light" font-size="36.0" fill="#FEFFFF" transform="matrix(1.00, 0.00, -0.00, -1.00, 404.1, 709.0)">n</text><text xml:space="preserve" font-family="Helvetica-Light" font-size="36.0" fill="#FEFFFF" transform="matrix(1.00, 0.00, -0.00, -1.00, 424.1, 709.0)">t</text><text xml:space="preserve" font-family="Helvetica-Light" font-size="36.0" fill="#FEFFFF" transform="matrix(1.00, 0.00, -0.00, -1.00, 434.1, 709.0)">i</text><text xml:space="preserve" font-family="Helvetica-Light" font-size="36.0" fill="#FEFFFF" transform="matrix(1.00, 0.00, -0.00, -1.00, 442.1, 709.0)">d</text><text xml:space="preserve" font-family="Helvetica-Light" font-size="36.0" fill="#FEFFFF" transform="matrix(1.00, 0.00, -0.00, -1.00, 464.1, 709.0)">e</text><text xml:space="preserve" font-family="Helvetica-Light" font-size="36.0" fill="#FEFFFF" transform="matrix(1.00, 0.00, -0.00, -1.00, 484.1, 709.0)">s</text><text xml:space="preserve" font-family="Helvetica-Light" font-size="36.0" fill="#FEFFFF" transform="matrix(1.00, 0.00, -0.00, -1.00, 502.1, 709.0)">.</text><text xml:space="preserve" font-family="Helvetica-Light" font-size="36.0" fill="#FEFFFF" transform="matrix(1.00, 0.00, -0.00, -1.00, 512.1, 709.0)">o</text><text xml:space="preserve" font-family="Helvetica-Light" font-size="36.0" fill="#FEFFFF" transform="matrix(1.00, 0.00, -0.00, -1.00, 532.1, 709.0)">r</text><text xml:space="preserve" font-family="Helvetica-Light" font-size="36.0" fill="#FEFFFF" transform="matrix(1.00, 0.00, -0.00, -1.00, 544.1, 709.0)">g</text><text xml:space="preserve" font-family="Helvetica-Light" font-size="36.0" fill="#FEFFFF" transform="matrix(1.00, 0.00, -0.00, -1.00, 566.1, 709.0)">/</text><text xml:space="preserve" font-family="Helvetica-Light" font-size="36.0" fill="#FEFFFF" transform="matrix(1.00, 0.00, -0.00, -1.00, 576.1, 709.0)">c</text><text xml:space="preserve" font-family="Helvetica-Light" font-size="36.0" fill="#FEFFFF" transform="matrix(1.00, 0.00, -0.00, -1.00, 596.1, 709.0)">a</text><text xml:space="preserve" font-family="Helvetica-Light" font-size="36.0" fill="#FEFFFF" transform="matrix(1.00, 0.00, -0.00, -1.00, 616.2, 709.0)">p</text><text xml:space="preserve" font-family="Helvetica-Light" font-size="36.0" fill="#FEFFFF" transform="matrix(1.00, 0.00, -0.00, -1.00, 638.2, 709.0)">g</text><text xml:space="preserve" font-family="Helvetica-Light" font-size="36.0" fill="#FEFFFF" transform="matrix(1.00, 0.00, -0.00, -1.00, 660.2, 709.0)">r</text><text xml:space="preserve" font-family="Helvetica-Light" font-size="36.0" fill="#FEFFFF" transform="matrix(1.00, 0.00, -0.00, -1.00, 672.1, 709.0)">i</text><text xml:space="preserve" font-family="Helvetica-Light" font-size="36.0" fill="#FEFFFF" transform="matrix(1.00, 0.00, -0.00, -1.00, 680.1, 709.0)">d</text><text xml:space="preserve" font-family="Helvetica-Light" font-size="36.0" fill="#FEFFFF" transform="matrix(1.00, 0.00, -0.00, -1.00, 702.1, 709.0)">s</text><text xml:space="preserve" font-family="Helvetica-Light" font-size="36.0" fill="#FEFFFF" transform="matrix(1.00, 0.00, -0.00, -1.00, 720.1, 709.0)">/</text><text xml:space="preserve" font-family="Helvetica-Light" font-size="36.0" fill="#FEFFFF" transform="matrix(1.00, 0.00, -0.00, -1.00, 730.1, 709.0)">6</text><text xml:space="preserve" font-family="Helvetica-Light" font-size="36.0" fill="#FEFFFF" transform="matrix(1.00, 0.00, -0.00, -1.00, 750.2, 709.0)">1</text><g><clipPath id="clip-26"><path d="M 252.9 704.2 L 770.1 704.2 L 770.1 708.0 L 252.9 708.0 Z M 252.9 704.2 "></path></clipPath><g clip-path="url(#clip-26)"><path d="M 4.5 41.4 L 520.7 41.4 " fill="none" stroke="#FEFFFF" stroke-width="1.80" stroke-miterlimit="0.00" transform="matrix(1.00, 0.00, 0.00, -1.00, 249.4, 747.5)"></path></g></g></g></svg>