<?xml version="1.0" encoding="UTF-8" standalone="no"?><svg xmlns="http://www.w3.org/2000/svg" xmlns:xlink="http://www.w3.org/1999/xlink" clip-rule="evenodd" stroke-miterlimit="4.00" viewBox="0 0 1024 768"><desc>SVG generated by Keynote</desc><defs></defs><g transform="matrix(1.00, 0.00, -0.00, -1.00, 0.0, 768.0)"><path d="M 0.0 768.0 L 1024.0 768.0 L 1024.0 0.0 L 0.0 0.0 Z M 0.0 768.0 " fill="#000000"></path><text xml:space="preserve" font-family="Helvetica-Light" font-size="80.0" fill="#FEFFFF" transform="matrix(1.00, 0.00, -0.00, -1.00, 168.0, 633.0)">C</text><text xml:space="preserve" font-family="Helvetica-Light" font-size="80.0" fill="#FEFFFF" transform="matrix(1.00, 0.00, -0.00, -1.00, 225.8, 633.0)">u</text><text xml:space="preserve" font-family="Helvetica-Light" font-size="80.0" fill="#FEFFFF" transform="matrix(1.00, 0.00, -0.00, -1.00, 270.2, 633.0)">r</text><text xml:space="preserve" font-family="Helvetica-Light" font-size="80.0" fill="#FEFFFF" transform="matrix(1.00, 0.00, -0.00, -1.00, 296.9, 633.0)">r</text><text xml:space="preserve" font-family="Helvetica-Light" font-size="80.0" fill="#FEFFFF" transform="matrix(1.00, 0.00, -0.00, -1.00, 322.1, 633.0)">e</text><text xml:space="preserve" font-family="Helvetica-Light" font-size="80.0" fill="#FEFFFF" transform="matrix(1.00, 0.00, -0.00, -1.00, 366.6, 633.0)">n</text><text xml:space="preserve" font-family="Helvetica-Light" font-size="80.0" fill="#FEFFFF" transform="matrix(1.00, 0.00, -0.00, -1.00, 411.0, 633.0)">t</text><text xml:space="preserve" font-family="Helvetica-Light" font-size="80.0" fill="#FEFFFF" transform="matrix(1.00, 0.00, -0.00, -1.00, 433.3, 633.0)"> </text><text xml:space="preserve" font-family="Helvetica-Light" font-size="80.0" fill="#FEFFFF" transform="matrix(1.00, 0.00, -0.00, -1.00, 455.5, 633.0)">A</text><text xml:space="preserve" font-family="Helvetica-Light" font-size="80.0" fill="#FEFFFF" transform="matrix(1.00, 0.00, -0.00, -1.00, 508.9, 633.0)">l</text><text xml:space="preserve" font-family="Helvetica-Light" font-size="80.0" fill="#FEFFFF" transform="matrix(1.00, 0.00, -0.00, -1.00, 526.6, 633.0)">i</text><text xml:space="preserve" font-family="Helvetica-Light" font-size="80.0" fill="#FEFFFF" transform="matrix(1.00, 0.00, -0.00, -1.00, 544.4, 633.0)">g</text><text xml:space="preserve" font-family="Helvetica-Light" font-size="80.0" fill="#FEFFFF" transform="matrix(1.00, 0.00, -0.00, -1.00, 593.3, 633.0)">n</text><text xml:space="preserve" font-family="Helvetica-Light" font-size="80.0" fill="#FEFFFF" transform="matrix(1.00, 0.00, -0.00, -1.00, 637.8, 633.0)">m</text><text xml:space="preserve" font-family="Helvetica-Light" font-size="80.0" fill="#FEFFFF" transform="matrix(1.00, 0.00, -0.00, -1.00, 704.4, 633.0)">e</text><text xml:space="preserve" font-family="Helvetica-Light" font-size="80.0" fill="#FEFFFF" transform="matrix(1.00, 0.00, -0.00, -1.00, 748.9, 633.0)">n</text><text xml:space="preserve" font-family="Helvetica-Light" font-size="80.0" fill="#FEFFFF" transform="matrix(1.00, 0.00, -0.00, -1.00, 793.4, 633.0)">t</text><text xml:space="preserve" font-family="Helvetica-Light" font-size="80.0" fill="#FEFFFF" transform="matrix(1.00, 0.00, -0.00, -1.00, 815.6, 633.0)">s</text><text xml:space="preserve" font-family="Helvetica-Light" font-size="28.5" fill="#FEFFFF" transform="matrix(1.00, 0.00, -0.00, -1.00, 79.0, 508.1)">•</text><text xml:space="preserve" font-family="Helvetica-Light" font-size="38.0" fill="#FEFFFF" transform="matrix(1.00, 0.00, -0.00, -1.00, 114.0, 505.0)">P</text><text xml:space="preserve" font-family="Helvetica-Light" font-size="38.0" fill="#FEFFFF" transform="matrix(1.00, 0.00, -0.00, -1.00, 137.2, 505.0)">l</text><text xml:space="preserve" font-family="Helvetica-Light" font-size="38.0" fill="#FEFFFF" transform="matrix(1.00, 0.00, -0.00, -1.00, 145.7, 505.0)">e</text><text xml:space="preserve" font-family="Helvetica-Light" font-size="38.0" fill="#FEFFFF" transform="matrix(1.00, 0.00, -0.00, -1.00, 166.8, 505.0)">i</text><text xml:space="preserve" font-family="Helvetica-Light" font-size="38.0" fill="#FEFFFF" transform="matrix(1.00, 0.00, -0.00, -1.00, 175.2, 505.0)">a</text><text xml:space="preserve" font-family="Helvetica-Light" font-size="38.0" fill="#FEFFFF" transform="matrix(1.00, 0.00, -0.00, -1.00, 196.3, 505.0)">d</text><text xml:space="preserve" font-family="Helvetica-Light" font-size="38.0" fill="#FEFFFF" transform="matrix(1.00, 0.00, -0.00, -1.00, 219.6, 505.0)">e</text><text xml:space="preserve" font-family="Helvetica-Light" font-size="38.0" fill="#FEFFFF" transform="matrix(1.00, 0.00, -0.00, -1.00, 240.7, 505.0)">s</text><text xml:space="preserve" font-family="Helvetica-Light" font-size="38.0" fill="#FEFFFF" transform="matrix(1.00, 0.00, -0.00, -1.00, 259.7, 505.0)">&lt;</text><text xml:space="preserve" font-family="Helvetica-Light" font-size="38.0" fill="#FEFFFF" transform="matrix(1.00, 0.00, -0.00, -1.00, 284.8, 505.0)">-</text><text xml:space="preserve" font-family="Helvetica-Light" font-size="38.0" fill="#FEFFFF" transform="matrix(1.00, 0.00, -0.00, -1.00, 297.4, 505.0)">&gt;</text><text xml:space="preserve" font-family="Helvetica-Light" font-size="38.0" fill="#FEFFFF" transform="matrix(1.00, 0.00, -0.00, -1.00, 322.5, 505.0)">G</text><text xml:space="preserve" font-family="Helvetica-Light" font-size="38.0" fill="#FEFFFF" transform="matrix(1.00, 0.00, -0.00, -1.00, 352.1, 505.0)">e</text><text xml:space="preserve" font-family="Helvetica-Light" font-size="38.0" fill="#FEFFFF" transform="matrix(1.00, 0.00, -0.00, -1.00, 373.2, 505.0)">o</text><text xml:space="preserve" font-family="Helvetica-Light" font-size="38.0" fill="#FEFFFF" transform="matrix(1.00, 0.00, -0.00, -1.00, 394.3, 505.0)">N</text><text xml:space="preserve" font-family="Helvetica-Light" font-size="38.0" fill="#FEFFFF" transform="matrix(1.00, 0.00, -0.00, -1.00, 421.8, 505.0)">a</text><text xml:space="preserve" font-family="Helvetica-Light" font-size="38.0" fill="#FEFFFF" transform="matrix(1.00, 0.00, -0.00, -1.00, 442.9, 505.0)">m</text><text xml:space="preserve" font-family="Helvetica-Light" font-size="38.0" fill="#FEFFFF" transform="matrix(1.00, 0.00, -0.00, -1.00, 474.5, 505.0)">e</text><text xml:space="preserve" font-family="Helvetica-Light" font-size="38.0" fill="#FEFFFF" transform="matrix(1.00, 0.00, -0.00, -1.00, 495.7, 505.0)">s</text><text xml:space="preserve" font-family="Helvetica-Light" font-size="38.0" fill="#FEFFFF" transform="matrix(1.00, 0.00, -0.00, -1.00, 514.7, 505.0)">:</text><text xml:space="preserve" font-family="LucidaGrande" font-size="38.0" fill="#FEFFFF" transform="matrix(1.00, 0.00, -0.00, -1.00, 525.2, 505.0)"> </text><text xml:space="preserve" font-family="Helvetica-Light" font-size="38.0" fill="#FEFFFF" transform="matrix(1.00, 0.00, -0.00, -1.00, 114.0, 459.0)">h</text><text xml:space="preserve" font-family="Helvetica-Light" font-size="38.0" fill="#FEFFFF" transform="matrix(1.00, 0.00, -0.00, -1.00, 135.1, 459.0)">t</text><text xml:space="preserve" font-family="Helvetica-Light" font-size="38.0" fill="#FEFFFF" transform="matrix(1.00, 0.00, -0.00, -1.00, 145.7, 459.0)">t</text><text xml:space="preserve" font-family="Helvetica-Light" font-size="38.0" fill="#FEFFFF" transform="matrix(1.00, 0.00, -0.00, -1.00, 156.3, 459.0)">p</text><text xml:space="preserve" font-family="Helvetica-Light" font-size="38.0" fill="#FEFFFF" transform="matrix(1.00, 0.00, -0.00, -1.00, 179.5, 459.0)">s</text><text xml:space="preserve" font-family="Helvetica-Light" font-size="38.0" fill="#FEFFFF" transform="matrix(1.00, 0.00, -0.00, -1.00, 198.5, 459.0)">:</text><text xml:space="preserve" font-family="Helvetica-Light" font-size="38.0" fill="#FEFFFF" transform="matrix(1.00, 0.00, -0.00, -1.00, 209.0, 459.0)">/</text><text xml:space="preserve" font-family="Helvetica-Light" font-size="38.0" fill="#FEFFFF" transform="matrix(1.00, 0.00, -0.00, -1.00, 219.6, 459.0)">/</text><text xml:space="preserve" font-family="Helvetica-Light" font-size="38.0" fill="#FEFFFF" transform="matrix(1.00, 0.00, -0.00, -1.00, 230.2, 459.0)">g</text><text xml:space="preserve" font-family="Helvetica-Light" font-size="38.0" fill="#FEFFFF" transform="matrix(1.00, 0.00, -0.00, -1.00, 253.4, 459.0)">i</text><text xml:space="preserve" font-family="Helvetica-Light" font-size="38.0" fill="#FEFFFF" transform="matrix(1.00, 0.00, -0.00, -1.00, 261.8, 459.0)">t</text><text xml:space="preserve" font-family="Helvetica-Light" font-size="38.0" fill="#FEFFFF" transform="matrix(1.00, 0.00, -0.00, -1.00, 272.4, 459.0)">h</text><text xml:space="preserve" font-family="Helvetica-Light" font-size="38.0" fill="#FEFFFF" transform="matrix(1.00, 0.00, -0.00, -1.00, 293.5, 459.0)">u</text><text xml:space="preserve" font-family="Helvetica-Light" font-size="38.0" fill="#FEFFFF" transform="matrix(1.00, 0.00, -0.00, -1.00, 314.6, 459.0)">b</text><text xml:space="preserve" font-family="Helvetica-Light" font-size="38.0" fill="#FEFFFF" transform="matrix(1.00, 0.00, -0.00, -1.00, 337.9, 459.0)">.</text><text xml:space="preserve" font-family="Helvetica-Light" font-size="38.0" fill="#FEFFFF" transform="matrix(1.00, 0.00, -0.00, -1.00, 348.4, 459.0)">c</text><text xml:space="preserve" font-family="Helvetica-Light" font-size="38.0" fill="#FEFFFF" transform="matrix(1.00, 0.00, -0.00, -1.00, 369.5, 459.0)">o</text><text xml:space="preserve" font-family="Helvetica-Light" font-size="38.0" fill="#FEFFFF" transform="matrix(1.00, 0.00, -0.00, -1.00, 390.7, 459.0)">m</text><text xml:space="preserve" font-family="Helvetica-Light" font-size="38.0" fill="#FEFFFF" transform="matrix(1.00, 0.00, -0.00, -1.00, 422.3, 459.0)">/</text><text xml:space="preserve" font-family="Helvetica-Light" font-size="38.0" fill="#FEFFFF" transform="matrix(1.00, 0.00, -0.00, -1.00, 432.9, 459.0)">r</text><text xml:space="preserve" font-family="Helvetica-Light" font-size="38.0" fill="#FEFFFF" transform="matrix(1.00, 0.00, -0.00, -1.00, 446.2, 459.0)">y</text><text xml:space="preserve" font-family="Helvetica-Light" font-size="38.0" fill="#FEFFFF" transform="matrix(1.00, 0.00, -0.00, -1.00, 465.2, 459.0)">a</text><text xml:space="preserve" font-family="Helvetica-Light" font-size="38.0" fill="#FEFFFF" transform="matrix(1.00, 0.00, -0.00, -1.00, 486.4, 459.0)">n</text><text xml:space="preserve" font-family="Helvetica-Light" font-size="38.0" fill="#FEFFFF" transform="matrix(1.00, 0.00, -0.00, -1.00, 507.5, 459.0)">f</text><text xml:space="preserve" font-family="Helvetica-Light" font-size="38.0" fill="#FEFFFF" transform="matrix(1.00, 0.00, -0.00, -1.00, 518.1, 459.0)">b</text><text xml:space="preserve" font-family="Helvetica-Light" font-size="38.0" fill="#FEFFFF" transform="matrix(1.00, 0.00, -0.00, -1.00, 541.3, 459.0)">/</text><text xml:space="preserve" font-family="Helvetica-Light" font-size="38.0" fill="#FEFFFF" transform="matrix(1.00, 0.00, -0.00, -1.00, 551.8, 459.0)">p</text><text xml:space="preserve" font-family="Helvetica-Light" font-size="38.0" fill="#FEFFFF" transform="matrix(1.00, 0.00, -0.00, -1.00, 575.1, 459.0)">l</text><text xml:space="preserve" font-family="Helvetica-Light" font-size="38.0" fill="#FEFFFF" transform="matrix(1.00, 0.00, -0.00, -1.00, 583.5, 459.0)">e</text><text xml:space="preserve" font-family="Helvetica-Light" font-size="38.0" fill="#FEFFFF" transform="matrix(1.00, 0.00, -0.00, -1.00, 604.6, 459.0)">i</text><text xml:space="preserve" font-family="Helvetica-Light" font-size="38.0" fill="#FEFFFF" transform="matrix(1.00, 0.00, -0.00, -1.00, 613.1, 459.0)">a</text><text xml:space="preserve" font-family="Helvetica-Light" font-size="38.0" fill="#FEFFFF" transform="matrix(1.00, 0.00, -0.00, -1.00, 634.2, 459.0)">d</text><text xml:space="preserve" font-family="Helvetica-Light" font-size="38.0" fill="#FEFFFF" transform="matrix(1.00, 0.00, -0.00, -1.00, 657.4, 459.0)">e</text><text xml:space="preserve" font-family="Helvetica-Light" font-size="38.0" fill="#FEFFFF" transform="matrix(1.00, 0.00, -0.00, -1.00, 678.5, 459.0)">s</text><text xml:space="preserve" font-family="Helvetica-Light" font-size="38.0" fill="#FEFFFF" transform="matrix(1.00, 0.00, -0.00, -1.00, 697.5, 459.0)">-</text><text xml:space="preserve" font-family="Helvetica-Light" font-size="38.0" fill="#FEFFFF" transform="matrix(1.00, 0.00, -0.00, -1.00, 710.2, 459.0)">p</text><text xml:space="preserve" font-family="Helvetica-Light" font-size="38.0" fill="#FEFFFF" transform="matrix(1.00, 0.00, -0.00, -1.00, 733.4, 459.0)">l</text><text xml:space="preserve" font-family="Helvetica-Light" font-size="38.0" fill="#FEFFFF" transform="matrix(1.00, 0.00, -0.00, -1.00, 741.8, 459.0)">u</text><text xml:space="preserve" font-family="Helvetica-Light" font-size="38.0" fill="#FEFFFF" transform="matrix(1.00, 0.00, -0.00, -1.00, 763.0, 459.0)">s</text><text xml:space="preserve" font-family="Helvetica-Light" font-size="38.0" fill="#FEFFFF" transform="matrix(1.00, 0.00, -0.00, -1.00, 782.0, 459.0)"> </text><g><clipPath id="clip-28"><path d="M 113.0 453.9 L 782.0 453.9 L 782.0 457.8 L 113.0 457.8 Z M 113.0 453.9 "></path></clipPath><g clip-path="url(#clip-28)"><path d="M 39.0 108.1 L 707.0 108.1 " fill="none" stroke="#FEFFFF" stroke-width="1.90" stroke-miterlimit="0.00" transform="matrix(1.00, 0.00, 0.00, -1.00, 75.0, 564.0)"></path></g></g><text xml:space="preserve" font-family="Helvetica-Light" font-size="28.5" fill="#FEFFFF" transform="matrix(1.00, 0.00, -0.00, -1.00, 79.0, 374.1)">•</text><text xml:space="preserve" font-family="Helvetica-Light" font-size="38.0" fill="#FEFFFF" transform="matrix(1.00, 0.00, -0.00, -1.00, 114.0, 371.0)">P</text><text xml:space="preserve" font-family="Helvetica-Light" font-size="38.0" fill="#FEFFFF" transform="matrix(1.00, 0.00, -0.00, -1.00, 137.2, 371.0)">l</text><text xml:space="preserve" font-family="Helvetica-Light" font-size="38.0" fill="#FEFFFF" transform="matrix(1.00, 0.00, -0.00, -1.00, 145.7, 371.0)">e</text><text xml:space="preserve" font-family="Helvetica-Light" font-size="38.0" fill="#FEFFFF" transform="matrix(1.00, 0.00, -0.00, -1.00, 166.8, 371.0)">i</text><text xml:space="preserve" font-family="Helvetica-Light" font-size="38.0" fill="#FEFFFF" transform="matrix(1.00, 0.00, -0.00, -1.00, 175.2, 371.0)">a</text><text xml:space="preserve" font-family="Helvetica-Light" font-size="38.0" fill="#FEFFFF" transform="matrix(1.00, 0.00, -0.00, -1.00, 196.3, 371.0)">d</text><text xml:space="preserve" font-family="Helvetica-Light" font-size="38.0" fill="#FEFFFF" transform="matrix(1.00, 0.00, -0.00, -1.00, 219.6, 371.0)">e</text><text xml:space="preserve" font-family="Helvetica-Light" font-size="38.0" fill="#FEFFFF" transform="matrix(1.00, 0.00, -0.00, -1.00, 240.7, 371.0)">s</text><text xml:space="preserve" font-family="Helvetica-Light" font-size="38.0" fill="#FEFFFF" transform="matrix(1.00, 0.00, -0.00, -1.00, 259.7, 371.0)">&lt;</text><text xml:space="preserve" font-family="Helvetica-Light" font-size="38.0" fill="#FEFFFF" transform="matrix(1.00, 0.00, -0.00, -1.00, 284.8, 371.0)">-</text><text xml:space="preserve" font-family="Helvetica-Light" font-size="38.0" fill="#FEFFFF" transform="matrix(1.00, 0.00, -0.00, -1.00, 297.4, 371.0)">&gt;</text><text xml:space="preserve" font-family="Helvetica-Light" font-size="38.0" fill="#FEFFFF" transform="matrix(1.00, 0.00, -0.00, -1.00, 322.5, 371.0)">T</text><text xml:space="preserve" font-family="Helvetica-Light" font-size="38.0" fill="#FEFFFF" transform="matrix(1.00, 0.00, -0.00, -1.00, 343.6, 371.0)">G</text><text xml:space="preserve" font-family="Helvetica-Light" font-size="38.0" fill="#FEFFFF" transform="matrix(1.00, 0.00, -0.00, -1.00, 373.2, 371.0)">N</text><text xml:space="preserve" font-family="Helvetica-Light" font-size="38.0" fill="#FEFFFF" transform="matrix(1.00, 0.00, -0.00, -1.00, 400.6, 371.0)"> </text><text xml:space="preserve" font-family="Helvetica-Light" font-size="38.0" fill="#FEFFFF" transform="matrix(1.00, 0.00, -0.00, -1.00, 411.2, 371.0)">(</text><text xml:space="preserve" font-family="Helvetica-Light" font-size="38.0" fill="#FEFFFF" transform="matrix(1.00, 0.00, -0.00, -1.00, 423.9, 371.0)">G</text><text xml:space="preserve" font-family="Helvetica-Light" font-size="38.0" fill="#FEFFFF" transform="matrix(1.00, 0.00, -0.00, -1.00, 453.4, 371.0)">e</text><text xml:space="preserve" font-family="Helvetica-Light" font-size="38.0" fill="#FEFFFF" transform="matrix(1.00, 0.00, -0.00, -1.00, 474.5, 371.0)">t</text><text xml:space="preserve" font-family="Helvetica-Light" font-size="38.0" fill="#FEFFFF" transform="matrix(1.00, 0.00, -0.00, -1.00, 485.1, 371.0)">t</text><text xml:space="preserve" font-family="Helvetica-Light" font-size="38.0" fill="#FEFFFF" transform="matrix(1.00, 0.00, -0.00, -1.00, 495.7, 371.0)">y</text><text xml:space="preserve" font-family="Helvetica-Light" font-size="38.0" fill="#FEFFFF" transform="matrix(1.00, 0.00, -0.00, -1.00, 514.7, 371.0)"> </text><text xml:space="preserve" font-family="Helvetica-Light" font-size="38.0" fill="#FEFFFF" transform="matrix(1.00, 0.00, -0.00, -1.00, 525.2, 371.0)">T</text><text xml:space="preserve" font-family="Helvetica-Light" font-size="38.0" fill="#FEFFFF" transform="matrix(1.00, 0.00, -0.00, -1.00, 546.4, 371.0)">h</text><text xml:space="preserve" font-family="Helvetica-Light" font-size="38.0" fill="#FEFFFF" transform="matrix(1.00, 0.00, -0.00, -1.00, 567.5, 371.0)">e</text><text xml:space="preserve" font-family="Helvetica-Light" font-size="38.0" fill="#FEFFFF" transform="matrix(1.00, 0.00, -0.00, -1.00, 588.6, 371.0)">s</text><text xml:space="preserve" font-family="Helvetica-Light" font-size="38.0" fill="#FEFFFF" transform="matrix(1.00, 0.00, -0.00, -1.00, 607.6, 371.0)">a</text><text xml:space="preserve" font-family="Helvetica-Light" font-size="38.0" fill="#FEFFFF" transform="matrix(1.00, 0.00, -0.00, -1.00, 628.7, 371.0)">u</text><text xml:space="preserve" font-family="Helvetica-Light" font-size="38.0" fill="#FEFFFF" transform="matrix(1.00, 0.00, -0.00, -1.00, 649.9, 371.0)">r</text><text xml:space="preserve" font-family="Helvetica-Light" font-size="38.0" fill="#FEFFFF" transform="matrix(1.00, 0.00, -0.00, -1.00, 662.5, 371.0)">u</text><text xml:space="preserve" font-family="Helvetica-Light" font-size="38.0" fill="#FEFFFF" transform="matrix(1.00, 0.00, -0.00, -1.00, 683.7, 371.0)">s</text><text xml:space="preserve" font-family="Helvetica-Light" font-size="38.0" fill="#FEFFFF" transform="matrix(1.00, 0.00, -0.00, -1.00, 702.7, 371.0)"> </text><text xml:space="preserve" font-family="Helvetica-Light" font-size="38.0" fill="#FEFFFF" transform="matrix(1.00, 0.00, -0.00, -1.00, 713.2, 371.0)">o</text><text xml:space="preserve" font-family="Helvetica-Light" font-size="38.0" fill="#FEFFFF" transform="matrix(1.00, 0.00, -0.00, -1.00, 734.4, 371.0)">f</text><text xml:space="preserve" font-family="Helvetica-Light" font-size="38.0" fill="#FEFFFF" transform="matrix(1.00, 0.00, -0.00, -1.00, 744.9, 371.0)"> </text><text xml:space="preserve" font-family="Helvetica-Light" font-size="38.0" fill="#FEFFFF" transform="matrix(1.00, 0.00, -0.00, -1.00, 114.0, 325.0)">G</text><text xml:space="preserve" font-family="Helvetica-Light" font-size="38.0" fill="#FEFFFF" transform="matrix(1.00, 0.00, -0.00, -1.00, 143.6, 325.0)">e</text><text xml:space="preserve" font-family="Helvetica-Light" font-size="38.0" fill="#FEFFFF" transform="matrix(1.00, 0.00, -0.00, -1.00, 164.7, 325.0)">o</text><text xml:space="preserve" font-family="Helvetica-Light" font-size="38.0" fill="#FEFFFF" transform="matrix(1.00, 0.00, -0.00, -1.00, 185.8, 325.0)">g</text><text xml:space="preserve" font-family="Helvetica-Light" font-size="38.0" fill="#FEFFFF" transform="matrix(1.00, 0.00, -0.00, -1.00, 209.0, 325.0)">r</text><text xml:space="preserve" font-family="Helvetica-Light" font-size="38.0" fill="#FEFFFF" transform="matrix(1.00, 0.00, -0.00, -1.00, 221.7, 325.0)">a</text><text xml:space="preserve" font-family="Helvetica-Light" font-size="38.0" fill="#FEFFFF" transform="matrix(1.00, 0.00, -0.00, -1.00, 242.8, 325.0)">p</text><text xml:space="preserve" font-family="Helvetica-Light" font-size="38.0" fill="#FEFFFF" transform="matrix(1.00, 0.00, -0.00, -1.00, 266.0, 325.0)">h</text><text xml:space="preserve" font-family="Helvetica-Light" font-size="38.0" fill="#FEFFFF" transform="matrix(1.00, 0.00, -0.00, -1.00, 287.2, 325.0)">i</text><text xml:space="preserve" font-family="Helvetica-Light" font-size="38.0" fill="#FEFFFF" transform="matrix(1.00, 0.00, -0.00, -1.00, 295.6, 325.0)">c</text><text xml:space="preserve" font-family="Helvetica-Light" font-size="38.0" fill="#FEFFFF" transform="matrix(1.00, 0.00, -0.00, -1.00, 316.7, 325.0)"> </text><text xml:space="preserve" font-family="Helvetica-Light" font-size="38.0" fill="#FEFFFF" transform="matrix(1.00, 0.00, -0.00, -1.00, 327.3, 325.0)">N</text><text xml:space="preserve" font-family="Helvetica-Light" font-size="38.0" fill="#FEFFFF" transform="matrix(1.00, 0.00, -0.00, -1.00, 354.7, 325.0)">a</text><text xml:space="preserve" font-family="Helvetica-Light" font-size="38.0" fill="#FEFFFF" transform="matrix(1.00, 0.00, -0.00, -1.00, 375.9, 325.0)">m</text><text xml:space="preserve" font-family="Helvetica-Light" font-size="38.0" fill="#FEFFFF" transform="matrix(1.00, 0.00, -0.00, -1.00, 407.5, 325.0)">e</text><text xml:space="preserve" font-family="Helvetica-Light" font-size="38.0" fill="#FEFFFF" transform="matrix(1.00, 0.00, -0.00, -1.00, 428.6, 325.0)">s</text><text xml:space="preserve" font-family="Helvetica-Light" font-size="38.0" fill="#FEFFFF" transform="matrix(1.00, 0.00, -0.00, -1.00, 447.6, 325.0)">)</text><text xml:space="preserve" font-family="Helvetica-Light" font-size="38.0" fill="#FEFFFF" transform="matrix(1.00, 0.00, -0.00, -1.00, 460.3, 325.0)">:</text><text xml:space="preserve" font-family="Helvetica-Light" font-size="38.0" fill="#FEFFFF" transform="matrix(1.00, 0.00, -0.00, -1.00, 470.9, 325.0)"> </text><text xml:space="preserve" font-family="LucidaGrande" font-size="38.0" fill="#FEFFFF" transform="matrix(1.00, 0.00, -0.00, -1.00, 481.4, 325.0)"> </text><text xml:space="preserve" font-family="Helvetica-Light" font-size="38.0" fill="#FEFFFF" transform="matrix(1.00, 0.00, -0.00, -1.00, 114.0, 279.0)">h</text><text xml:space="preserve" font-family="Helvetica-Light" font-size="38.0" fill="#FEFFFF" transform="matrix(1.00, 0.00, -0.00, -1.00, 135.1, 279.0)">t</text><text xml:space="preserve" font-family="Helvetica-Light" font-size="38.0" fill="#FEFFFF" transform="matrix(1.00, 0.00, -0.00, -1.00, 145.7, 279.0)">t</text><text xml:space="preserve" font-family="Helvetica-Light" font-size="38.0" fill="#FEFFFF" transform="matrix(1.00, 0.00, -0.00, -1.00, 156.3, 279.0)">p</text><text xml:space="preserve" font-family="Helvetica-Light" font-size="38.0" fill="#FEFFFF" transform="matrix(1.00, 0.00, -0.00, -1.00, 179.5, 279.0)">s</text><text xml:space="preserve" font-family="Helvetica-Light" font-size="38.0" fill="#FEFFFF" transform="matrix(1.00, 0.00, -0.00, -1.00, 198.5, 279.0)">:</text><text xml:space="preserve" font-family="Helvetica-Light" font-size="38.0" fill="#FEFFFF" transform="matrix(1.00, 0.00, -0.00, -1.00, 209.0, 279.0)">/</text><text xml:space="preserve" font-family="Helvetica-Light" font-size="38.0" fill="#FEFFFF" transform="matrix(1.00, 0.00, -0.00, -1.00, 219.6, 279.0)">/</text><text xml:space="preserve" font-family="Helvetica-Light" font-size="38.0" fill="#FEFFFF" transform="matrix(1.00, 0.00, -0.00, -1.00, 230.2, 279.0)">g</text><text xml:space="preserve" font-family="Helvetica-Light" font-size="38.0" fill="#FEFFFF" transform="matrix(1.00, 0.00, -0.00, -1.00, 253.4, 279.0)">i</text><text xml:space="preserve" font-family="Helvetica-Light" font-size="38.0" fill="#FEFFFF" transform="matrix(1.00, 0.00, -0.00, -1.00, 261.8, 279.0)">t</text><text xml:space="preserve" font-family="Helvetica-Light" font-size="38.0" fill="#FEFFFF" transform="matrix(1.00, 0.00, -0.00, -1.00, 272.4, 279.0)">h</text><text xml:space="preserve" font-family="Helvetica-Light" font-size="38.0" fill="#FEFFFF" transform="matrix(1.00, 0.00, -0.00, -1.00, 293.5, 279.0)">u</text><text xml:space="preserve" font-family="Helvetica-Light" font-size="38.0" fill="#FEFFFF" transform="matrix(1.00, 0.00, -0.00, -1.00, 314.6, 279.0)">b</text><text xml:space="preserve" font-family="Helvetica-Light" font-size="38.0" fill="#FEFFFF" transform="matrix(1.00, 0.00, -0.00, -1.00, 337.9, 279.0)">.</text><text xml:space="preserve" font-family="Helvetica-Light" font-size="38.0" fill="#FEFFFF" transform="matrix(1.00, 0.00, -0.00, -1.00, 348.4, 279.0)">c</text><text xml:space="preserve" font-family="Helvetica-Light" font-size="38.0" fill="#FEFFFF" transform="matrix(1.00, 0.00, -0.00, -1.00, 369.5, 279.0)">o</text><text xml:space="preserve" font-family="Helvetica-Light" font-size="38.0" fill="#FEFFFF" transform="matrix(1.00, 0.00, -0.00, -1.00, 390.7, 279.0)">m</text><text xml:space="preserve" font-family="Helvetica-Light" font-size="38.0" fill="#FEFFFF" transform="matrix(1.00, 0.00, -0.00, -1.00, 422.3, 279.0)">/</text><text xml:space="preserve" font-family="Helvetica-Light" font-size="38.0" fill="#FEFFFF" transform="matrix(1.00, 0.00, -0.00, -1.00, 432.9, 279.0)">r</text><text xml:space="preserve" font-family="Helvetica-Light" font-size="38.0" fill="#FEFFFF" transform="matrix(1.00, 0.00, -0.00, -1.00, 446.2, 279.0)">y</text><text xml:space="preserve" font-family="Helvetica-Light" font-size="38.0" fill="#FEFFFF" transform="matrix(1.00, 0.00, -0.00, -1.00, 465.2, 279.0)">a</text><text xml:space="preserve" font-family="Helvetica-Light" font-size="38.0" fill="#FEFFFF" transform="matrix(1.00, 0.00, -0.00, -1.00, 486.4, 279.0)">n</text><text xml:space="preserve" font-family="Helvetica-Light" font-size="38.0" fill="#FEFFFF" transform="matrix(1.00, 0.00, -0.00, -1.00, 507.5, 279.0)">f</text><text xml:space="preserve" font-family="Helvetica-Light" font-size="38.0" fill="#FEFFFF" transform="matrix(1.00, 0.00, -0.00, -1.00, 518.1, 279.0)">b</text><text xml:space="preserve" font-family="Helvetica-Light" font-size="38.0" fill="#FEFFFF" transform="matrix(1.00, 0.00, -0.00, -1.00, 541.3, 279.0)">/</text><text xml:space="preserve" font-family="Helvetica-Light" font-size="38.0" fill="#FEFFFF" transform="matrix(1.00, 0.00, -0.00, -1.00, 551.8, 279.0)">p</text><text xml:space="preserve" font-family="Helvetica-Light" font-size="38.0" fill="#FEFFFF" transform="matrix(1.00, 0.00, -0.00, -1.00, 575.1, 279.0)">l</text><text xml:space="preserve" font-family="Helvetica-Light" font-size="38.0" fill="#FEFFFF" transform="matrix(1.00, 0.00, -0.00, -1.00, 583.5, 279.0)">e</text><text xml:space="preserve" font-family="Helvetica-Light" font-size="38.0" fill="#FEFFFF" transform="matrix(1.00, 0.00, -0.00, -1.00, 604.6, 279.0)">i</text><text xml:space="preserve" font-family="Helvetica-Light" font-size="38.0" fill="#FEFFFF" transform="matrix(1.00, 0.00, -0.00, -1.00, 613.1, 279.0)">a</text><text xml:space="preserve" font-family="Helvetica-Light" font-size="38.0" fill="#FEFFFF" transform="matrix(1.00, 0.00, -0.00, -1.00, 634.2, 279.0)">d</text><text xml:space="preserve" font-family="Helvetica-Light" font-size="38.0" fill="#FEFFFF" transform="matrix(1.00, 0.00, -0.00, -1.00, 657.4, 279.0)">e</text><text xml:space="preserve" font-family="Helvetica-Light" font-size="38.0" fill="#FEFFFF" transform="matrix(1.00, 0.00, -0.00, -1.00, 678.5, 279.0)">s</text><text xml:space="preserve" font-family="Helvetica-Light" font-size="38.0" fill="#FEFFFF" transform="matrix(1.00, 0.00, -0.00, -1.00, 697.5, 279.0)">-</text><text xml:space="preserve" font-family="Helvetica-Light" font-size="38.0" fill="#FEFFFF" transform="matrix(1.00, 0.00, -0.00, -1.00, 710.2, 279.0)">t</text><text xml:space="preserve" font-family="Helvetica-Light" font-size="38.0" fill="#FEFFFF" transform="matrix(1.00, 0.00, -0.00, -1.00, 720.7, 279.0)">g</text><text xml:space="preserve" font-family="Helvetica-Light" font-size="38.0" fill="#FEFFFF" transform="matrix(1.00, 0.00, -0.00, -1.00, 744.0, 279.0)">n</text><text xml:space="preserve" font-family="Helvetica-Light" font-size="38.0" fill="#FEFFFF" transform="matrix(1.00, 0.00, -0.00, -1.00, 765.1, 279.0)"> </text><text xml:space="preserve" font-family="Helvetica-Light" font-size="38.0" fill="#FEFFFF" transform="matrix(1.00, 0.00, -0.00, -1.00, 775.7, 279.0)"> </text><g><clipPath id="clip-29"><path d="M 113.0 273.9 L 765.1 273.9 L 765.1 277.8 L 113.0 277.8 Z M 113.0 273.9 "></path></clipPath><g clip-path="url(#clip-29)"><path d="M 39.0 288.1 L 690.1 288.1 " fill="none" stroke="#FEFFFF" stroke-width="1.90" stroke-miterlimit="0.00" transform="matrix(1.00, 0.00, 0.00, -1.00, 75.0, 564.0)"></path></g></g><text xml:space="preserve" font-family="Helvetica-Light" font-size="28.5" fill="#FEFFFF" transform="matrix(1.00, 0.00, -0.00, -1.00, 79.0, 194.1)">•</text><text xml:space="preserve" font-family="Helvetica-Light" font-size="38.0" fill="#FEFFFF" transform="matrix(1.00, 0.00, -0.00, -1.00, 114.0, 191.0)">C</text><text xml:space="preserve" font-family="Helvetica-Light" font-size="38.0" fill="#FEFFFF" transform="matrix(1.00, 0.00, -0.00, -1.00, 141.4, 191.0)">H</text><text xml:space="preserve" font-family="Helvetica-Light" font-size="38.0" fill="#FEFFFF" transform="matrix(1.00, 0.00, -0.00, -1.00, 168.9, 191.0)">G</text><text xml:space="preserve" font-family="Helvetica-Light" font-size="38.0" fill="#FEFFFF" transform="matrix(1.00, 0.00, -0.00, -1.00, 198.4, 191.0)">I</text><text xml:space="preserve" font-family="Helvetica-Light" font-size="38.0" fill="#FEFFFF" transform="matrix(1.00, 0.00, -0.00, -1.00, 209.0, 191.0)">S</text><text xml:space="preserve" font-family="Helvetica-Light" font-size="38.0" fill="#FEFFFF" transform="matrix(1.00, 0.00, -0.00, -1.00, 232.2, 191.0)">/</text><text xml:space="preserve" font-family="Helvetica-Light" font-size="38.0" fill="#FEFFFF" transform="matrix(1.00, 0.00, -0.00, -1.00, 242.8, 191.0)">R</text><text xml:space="preserve" font-family="Helvetica-Light" font-size="38.0" fill="#FEFFFF" transform="matrix(1.00, 0.00, -0.00, -1.00, 268.1, 191.0)">e</text><text xml:space="preserve" font-family="Helvetica-Light" font-size="38.0" fill="#FEFFFF" transform="matrix(1.00, 0.00, -0.00, -1.00, 289.3, 191.0)">g</text><text xml:space="preserve" font-family="Helvetica-Light" font-size="38.0" fill="#FEFFFF" transform="matrix(1.00, 0.00, -0.00, -1.00, 312.5, 191.0)">n</text><text xml:space="preserve" font-family="Helvetica-Light" font-size="38.0" fill="#FEFFFF" transform="matrix(1.00, 0.00, -0.00, -1.00, 333.6, 191.0)">u</text><text xml:space="preserve" font-family="Helvetica-Light" font-size="38.0" fill="#FEFFFF" transform="matrix(1.00, 0.00, -0.00, -1.00, 354.7, 191.0)">m</text><text xml:space="preserve" font-family="Helvetica-Light" font-size="38.0" fill="#FEFFFF" transform="matrix(1.00, 0.00, -0.00, -1.00, 386.4, 191.0)"> </text><text xml:space="preserve" font-family="Helvetica-Light" font-size="38.0" fill="#FEFFFF" transform="matrix(1.00, 0.00, -0.00, -1.00, 396.9, 191.0)">F</text><text xml:space="preserve" font-family="Helvetica-Light" font-size="38.0" fill="#FEFFFF" transform="matrix(1.00, 0.00, -0.00, -1.00, 418.1, 191.0)">r</text><text xml:space="preserve" font-family="Helvetica-Light" font-size="38.0" fill="#FEFFFF" transform="matrix(1.00, 0.00, -0.00, -1.00, 430.7, 191.0)">a</text><text xml:space="preserve" font-family="Helvetica-Light" font-size="38.0" fill="#FEFFFF" transform="matrix(1.00, 0.00, -0.00, -1.00, 451.9, 191.0)">n</text><text xml:space="preserve" font-family="Helvetica-Light" font-size="38.0" fill="#FEFFFF" transform="matrix(1.00, 0.00, -0.00, -1.00, 473.0, 191.0)">c</text><text xml:space="preserve" font-family="Helvetica-Light" font-size="38.0" fill="#FEFFFF" transform="matrix(1.00, 0.00, -0.00, -1.00, 494.1, 191.0)">o</text><text xml:space="preserve" font-family="Helvetica-Light" font-size="38.0" fill="#FEFFFF" transform="matrix(1.00, 0.00, -0.00, -1.00, 515.2, 191.0)">r</text><text xml:space="preserve" font-family="Helvetica-Light" font-size="38.0" fill="#FEFFFF" transform="matrix(1.00, 0.00, -0.00, -1.00, 527.9, 191.0)">u</text><text xml:space="preserve" font-family="Helvetica-Light" font-size="38.0" fill="#FEFFFF" transform="matrix(1.00, 0.00, -0.00, -1.00, 549.0, 191.0)">m</text><text xml:space="preserve" font-family="Helvetica-Light" font-size="38.0" fill="#FEFFFF" transform="matrix(1.00, 0.00, -0.00, -1.00, 580.7, 191.0)">&lt;</text><text xml:space="preserve" font-family="Helvetica-Light" font-size="38.0" fill="#FEFFFF" transform="matrix(1.00, 0.00, -0.00, -1.00, 605.8, 191.0)">-</text><text xml:space="preserve" font-family="Helvetica-Light" font-size="38.0" fill="#FEFFFF" transform="matrix(1.00, 0.00, -0.00, -1.00, 618.4, 191.0)">&gt;</text><text xml:space="preserve" font-family="Helvetica-Light" font-size="38.0" fill="#FEFFFF" transform="matrix(1.00, 0.00, -0.00, -1.00, 643.5, 191.0)">G</text><text xml:space="preserve" font-family="Helvetica-Light" font-size="38.0" fill="#FEFFFF" transform="matrix(1.00, 0.00, -0.00, -1.00, 673.1, 191.0)">e</text><text xml:space="preserve" font-family="Helvetica-Light" font-size="38.0" fill="#FEFFFF" transform="matrix(1.00, 0.00, -0.00, -1.00, 694.2, 191.0)">o</text><text xml:space="preserve" font-family="Helvetica-Light" font-size="38.0" fill="#FEFFFF" transform="matrix(1.00, 0.00, -0.00, -1.00, 715.3, 191.0)">N</text><text xml:space="preserve" font-family="Helvetica-Light" font-size="38.0" fill="#FEFFFF" transform="matrix(1.00, 0.00, -0.00, -1.00, 742.7, 191.0)">a</text><text xml:space="preserve" font-family="Helvetica-Light" font-size="38.0" fill="#FEFFFF" transform="matrix(1.00, 0.00, -0.00, -1.00, 763.9, 191.0)">m</text><text xml:space="preserve" font-family="Helvetica-Light" font-size="38.0" fill="#FEFFFF" transform="matrix(1.00, 0.00, -0.00, -1.00, 795.5, 191.0)">e</text><text xml:space="preserve" font-family="Helvetica-Light" font-size="38.0" fill="#FEFFFF" transform="matrix(1.00, 0.00, -0.00, -1.00, 816.7, 191.0)">s</text><text xml:space="preserve" font-family="Helvetica-Light" font-size="38.0" fill="#FEFFFF" transform="matrix(1.00, 0.00, -0.00, -1.00, 835.7, 191.0)">:</text><text xml:space="preserve" font-family="Helvetica-Light" font-size="38.0" fill="#FEFFFF" transform="matrix(1.00, 0.00, -0.00, -1.00, 846.2, 191.0)"> </text><text xml:space="preserve" font-family="Helvetica-Light" font-size="38.0" fill="#FEFFFF" transform="matrix(1.00, 0.00, -0.00, -1.00, 114.0, 145.0)">M</text><text xml:space="preserve" font-family="Helvetica-Light" font-size="38.0" fill="#FEFFFF" transform="matrix(1.00, 0.00, -0.00, -1.00, 145.7, 145.0)">e</text><text xml:space="preserve" font-family="Helvetica-Light" font-size="38.0" fill="#FEFFFF" transform="matrix(1.00, 0.00, -0.00, -1.00, 166.8, 145.0)">r</text><text xml:space="preserve" font-family="Helvetica-Light" font-size="38.0" fill="#FEFFFF" transform="matrix(1.00, 0.00, -0.00, -1.00, 179.4, 145.0)">r</text><text xml:space="preserve" font-family="Helvetica-Light" font-size="38.0" fill="#FEFFFF" transform="matrix(1.00, 0.00, -0.00, -1.00, 192.1, 145.0)">i</text><text xml:space="preserve" font-family="Helvetica-Light" font-size="38.0" fill="#FEFFFF" transform="matrix(1.00, 0.00, -0.00, -1.00, 200.5, 145.0)">c</text><text xml:space="preserve" font-family="Helvetica-Light" font-size="38.0" fill="#FEFFFF" transform="matrix(1.00, 0.00, -0.00, -1.00, 221.7, 145.0)">k</text><text xml:space="preserve" font-family="Helvetica-Light" font-size="38.0" fill="#FEFFFF" transform="matrix(1.00, 0.00, -0.00, -1.00, 240.7, 145.0)"> </text><text xml:space="preserve" font-family="Helvetica-Light" font-size="38.0" fill="#FEFFFF" transform="matrix(1.00, 0.00, -0.00, -1.00, 251.2, 145.0)">L</text><text xml:space="preserve" font-family="Helvetica-Light" font-size="38.0" fill="#FEFFFF" transform="matrix(1.00, 0.00, -0.00, -1.00, 272.3, 145.0)">e</text><text xml:space="preserve" font-family="Helvetica-Light" font-size="38.0" fill="#FEFFFF" transform="matrix(1.00, 0.00, -0.00, -1.00, 293.5, 145.0)">x</text><text xml:space="preserve" font-family="Helvetica-Light" font-size="38.0" fill="#FEFFFF" transform="matrix(1.00, 0.00, -0.00, -1.00, 312.5, 145.0)"> </text><text xml:space="preserve" font-family="Helvetica-Light" font-size="38.0" fill="#FEFFFF" transform="matrix(1.00, 0.00, -0.00, -1.00, 323.0, 145.0)">B</text><text xml:space="preserve" font-family="Helvetica-Light" font-size="38.0" fill="#FEFFFF" transform="matrix(1.00, 0.00, -0.00, -1.00, 348.4, 145.0)">e</text><text xml:space="preserve" font-family="Helvetica-Light" font-size="38.0" fill="#FEFFFF" transform="matrix(1.00, 0.00, -0.00, -1.00, 369.5, 145.0)">r</text><text xml:space="preserve" font-family="Helvetica-Light" font-size="38.0" fill="#FEFFFF" transform="matrix(1.00, 0.00, -0.00, -1.00, 382.9, 145.0)">m</text><text xml:space="preserve" font-family="Helvetica-Light" font-size="38.0" fill="#FEFFFF" transform="matrix(1.00, 0.00, -0.00, -1.00, 414.5, 145.0)">a</text><text xml:space="preserve" font-family="Helvetica-Light" font-size="38.0" fill="#FEFFFF" transform="matrix(1.00, 0.00, -0.00, -1.00, 435.6, 145.0)">n</text><text xml:space="preserve" font-family="Helvetica-Light" font-size="38.0" fill="#FEFFFF" transform="matrix(1.00, 0.00, -0.00, -1.00, 456.8, 145.0)"> </text><text xml:space="preserve" font-family="Helvetica-Light" font-size="38.0" fill="#FEFFFF" transform="matrix(1.00, 0.00, -0.00, -1.00, 467.3, 145.0)">&amp;</text><text xml:space="preserve" font-family="Helvetica-Light" font-size="38.0" fill="#FEFFFF" transform="matrix(1.00, 0.00, -0.00, -1.00, 492.7, 145.0)"> </text><text xml:space="preserve" font-family="Helvetica-Light" font-size="38.0" fill="#FEFFFF" transform="matrix(1.00, 0.00, -0.00, -1.00, 503.2, 145.0)">J</text><text xml:space="preserve" font-family="Helvetica-Light" font-size="38.0" fill="#FEFFFF" transform="matrix(1.00, 0.00, -0.00, -1.00, 522.2, 145.0)">o</text><text xml:space="preserve" font-family="Helvetica-Light" font-size="38.0" fill="#FEFFFF" transform="matrix(1.00, 0.00, -0.00, -1.00, 543.4, 145.0)">h</text><text xml:space="preserve" font-family="Helvetica-Light" font-size="38.0" fill="#FEFFFF" transform="matrix(1.00, 0.00, -0.00, -1.00, 564.5, 145.0)">a</text><text xml:space="preserve" font-family="Helvetica-Light" font-size="38.0" fill="#FEFFFF" transform="matrix(1.00, 0.00, -0.00, -1.00, 585.6, 145.0)">n</text><text xml:space="preserve" font-family="Helvetica-Light" font-size="38.0" fill="#FEFFFF" transform="matrix(1.00, 0.00, -0.00, -1.00, 606.7, 145.0)"> </text><text xml:space="preserve" font-family="Helvetica-Light" font-size="38.0" fill="#FEFFFF" transform="matrix(1.00, 0.00, -0.00, -1.00, 617.3, 145.0)">Å</text><text xml:space="preserve" font-family="Helvetica-Light" font-size="38.0" fill="#FEFFFF" transform="matrix(1.00, 0.00, -0.00, -1.00, 642.7, 145.0)">h</text><text xml:space="preserve" font-family="Helvetica-Light" font-size="38.0" fill="#FEFFFF" transform="matrix(1.00, 0.00, -0.00, -1.00, 663.8, 145.0)">l</text><text xml:space="preserve" font-family="Helvetica-Light" font-size="38.0" fill="#FEFFFF" transform="matrix(1.00, 0.00, -0.00, -1.00, 672.2, 145.0)">f</text><text xml:space="preserve" font-family="Helvetica-Light" font-size="38.0" fill="#FEFFFF" transform="matrix(1.00, 0.00, -0.00, -1.00, 682.8, 145.0)">e</text><text xml:space="preserve" font-family="Helvetica-Light" font-size="38.0" fill="#FEFFFF" transform="matrix(1.00, 0.00, -0.00, -1.00, 703.9, 145.0)">l</text><text xml:space="preserve" font-family="Helvetica-Light" font-size="38.0" fill="#FEFFFF" transform="matrix(1.00, 0.00, -0.00, -1.00, 712.3, 145.0)">d</text><text xml:space="preserve" font-family="Helvetica-Light" font-size="38.0" fill="#FEFFFF" transform="matrix(1.00, 0.00, -0.00, -1.00, 735.6, 145.0)">t</text><text xml:space="preserve" font-family="Helvetica-Light" font-size="38.0" fill="#FEFFFF" transform="matrix(1.00, 0.00, -0.00, -1.00, 746.1, 145.0)">,</text><text xml:space="preserve" font-family="Helvetica-Light" font-size="38.0" fill="#FEFFFF" transform="matrix(1.00, 0.00, -0.00, -1.00, 756.7, 145.0)"> </text><text xml:space="preserve" font-family="Helvetica-Light" font-size="38.0" fill="#FEFFFF" transform="matrix(1.00, 0.00, -0.00, -1.00, 767.3, 145.0)">H</text><text xml:space="preserve" font-family="Helvetica-Light" font-size="38.0" fill="#FEFFFF" transform="matrix(1.00, 0.00, -0.00, -1.00, 794.7, 145.0)">i</text><text xml:space="preserve" font-family="Helvetica-Light" font-size="38.0" fill="#FEFFFF" transform="matrix(1.00, 0.00, -0.00, -1.00, 803.1, 145.0)">s</text><text xml:space="preserve" font-family="Helvetica-Light" font-size="38.0" fill="#FEFFFF" transform="matrix(1.00, 0.00, -0.00, -1.00, 822.1, 145.0)">t</text><text xml:space="preserve" font-family="Helvetica-Light" font-size="38.0" fill="#FEFFFF" transform="matrix(1.00, 0.00, -0.00, -1.00, 832.7, 145.0)">o</text><text xml:space="preserve" font-family="Helvetica-Light" font-size="38.0" fill="#FEFFFF" transform="matrix(1.00, 0.00, -0.00, -1.00, 853.8, 145.0)">r</text><text xml:space="preserve" font-family="Helvetica-Light" font-size="38.0" fill="#FEFFFF" transform="matrix(1.00, 0.00, -0.00, -1.00, 866.5, 145.0)">i</text><text xml:space="preserve" font-family="Helvetica-Light" font-size="38.0" fill="#FEFFFF" transform="matrix(1.00, 0.00, -0.00, -1.00, 874.9, 145.0)">c</text><text xml:space="preserve" font-family="Helvetica-Light" font-size="38.0" fill="#FEFFFF" transform="matrix(1.00, 0.00, -0.00, -1.00, 896.0, 145.0)">a</text><text xml:space="preserve" font-family="Helvetica-Light" font-size="38.0" fill="#FEFFFF" transform="matrix(1.00, 0.00, -0.00, -1.00, 917.2, 145.0)">l</text><text xml:space="preserve" font-family="Helvetica-Light" font-size="38.0" fill="#FEFFFF" transform="matrix(1.00, 0.00, -0.00, -1.00, 925.6, 145.0)"> </text><text xml:space="preserve" font-family="Helvetica-Light" font-size="38.0" fill="#FEFFFF" transform="matrix(1.00, 0.00, -0.00, -1.00, 114.0, 99.0)">G</text><text xml:space="preserve" font-family="Helvetica-Light" font-size="38.0" fill="#FEFFFF" transform="matrix(1.00, 0.00, -0.00, -1.00, 143.6, 99.0)">a</text><text xml:space="preserve" font-family="Helvetica-Light" font-size="38.0" fill="#FEFFFF" transform="matrix(1.00, 0.00, -0.00, -1.00, 164.7, 99.0)">z</text><text xml:space="preserve" font-family="Helvetica-Light" font-size="38.0" fill="#FEFFFF" transform="matrix(1.00, 0.00, -0.00, -1.00, 183.7, 99.0)">e</text><text xml:space="preserve" font-family="Helvetica-Light" font-size="38.0" fill="#FEFFFF" transform="matrix(1.00, 0.00, -0.00, -1.00, 204.8, 99.0)">t</text><text xml:space="preserve" font-family="Helvetica-Light" font-size="38.0" fill="#FEFFFF" transform="matrix(1.00, 0.00, -0.00, -1.00, 215.4, 99.0)">t</text><text xml:space="preserve" font-family="Helvetica-Light" font-size="38.0" fill="#FEFFFF" transform="matrix(1.00, 0.00, -0.00, -1.00, 225.9, 99.0)">e</text><text xml:space="preserve" font-family="Helvetica-Light" font-size="38.0" fill="#FEFFFF" transform="matrix(1.00, 0.00, -0.00, -1.00, 247.1, 99.0)">e</text><text xml:space="preserve" font-family="Helvetica-Light" font-size="38.0" fill="#FEFFFF" transform="matrix(1.00, 0.00, -0.00, -1.00, 268.2, 99.0)">r</text><text xml:space="preserve" font-family="Helvetica-Light" font-size="38.0" fill="#FEFFFF" transform="matrix(1.00, 0.00, -0.00, -1.00, 280.9, 99.0)"> </text><text xml:space="preserve" font-family="Helvetica-Light" font-size="38.0" fill="#FEFFFF" transform="matrix(1.00, 0.00, -0.00, -1.00, 291.4, 99.0)">S</text><text xml:space="preserve" font-family="Helvetica-Light" font-size="38.0" fill="#FEFFFF" transform="matrix(1.00, 0.00, -0.00, -1.00, 314.6, 99.0)">y</text><text xml:space="preserve" font-family="Helvetica-Light" font-size="38.0" fill="#FEFFFF" transform="matrix(1.00, 0.00, -0.00, -1.00, 333.6, 99.0)">s</text><text xml:space="preserve" font-family="Helvetica-Light" font-size="38.0" fill="#FEFFFF" transform="matrix(1.00, 0.00, -0.00, -1.00, 352.6, 99.0)">t</text><text xml:space="preserve" font-family="Helvetica-Light" font-size="38.0" fill="#FEFFFF" transform="matrix(1.00, 0.00, -0.00, -1.00, 363.2, 99.0)">e</text><text xml:space="preserve" font-family="Helvetica-Light" font-size="38.0" fill="#FEFFFF" transform="matrix(1.00, 0.00, -0.00, -1.00, 384.3, 99.0)">m</text><text xml:space="preserve" font-family="Helvetica-Light" font-size="38.0" fill="#FEFFFF" transform="matrix(1.00, 0.00, -0.00, -1.00, 416.0, 99.0)"> </text><text xml:space="preserve" font-family="Helvetica-Light" font-size="38.0" fill="#FEFFFF" transform="matrix(1.00, 0.00, -0.00, -1.00, 426.6, 99.0)">I</text><text xml:space="preserve" font-family="Helvetica-Light" font-size="38.0" fill="#FEFFFF" transform="matrix(1.00, 0.00, -0.00, -1.00, 437.1, 99.0)">n</text><text xml:space="preserve" font-family="Helvetica-Light" font-size="38.0" fill="#FEFFFF" transform="matrix(1.00, 0.00, -0.00, -1.00, 458.2, 99.0)">t</text><text xml:space="preserve" font-family="Helvetica-Light" font-size="38.0" fill="#FEFFFF" transform="matrix(1.00, 0.00, -0.00, -1.00, 468.8, 99.0)">e</text><text xml:space="preserve" font-family="Helvetica-Light" font-size="38.0" fill="#FEFFFF" transform="matrix(1.00, 0.00, -0.00, -1.00, 489.9, 99.0)">g</text><text xml:space="preserve" font-family="Helvetica-Light" font-size="38.0" fill="#FEFFFF" transform="matrix(1.00, 0.00, -0.00, -1.00, 513.2, 99.0)">r</text><text xml:space="preserve" font-family="Helvetica-Light" font-size="38.0" fill="#FEFFFF" transform="matrix(1.00, 0.00, -0.00, -1.00, 525.8, 99.0)">a</text><text xml:space="preserve" font-family="Helvetica-Light" font-size="38.0" fill="#FEFFFF" transform="matrix(1.00, 0.00, -0.00, -1.00, 546.9, 99.0)">t</text><text xml:space="preserve" font-family="Helvetica-Light" font-size="38.0" fill="#FEFFFF" transform="matrix(1.00, 0.00, -0.00, -1.00, 557.5, 99.0)">i</text><text xml:space="preserve" font-family="Helvetica-Light" font-size="38.0" fill="#FEFFFF" transform="matrix(1.00, 0.00, -0.00, -1.00, 565.9, 99.0)">o</text><text xml:space="preserve" font-family="Helvetica-Light" font-size="38.0" fill="#FEFFFF" transform="matrix(1.00, 0.00, -0.00, -1.00, 587.1, 99.0)">n</text></g></svg>