<?xml version="1.0" encoding="UTF-8" standalone="no"?>
<!-- Created with Inkscape (http://www.inkscape.org/) -->

<svg
   xmlns:dc="http://purl.org/dc/elements/1.1/"
   xmlns:cc="http://creativecommons.org/ns#"
   xmlns:rdf="http://www.w3.org/1999/02/22-rdf-syntax-ns#"
   xmlns:svg="http://www.w3.org/2000/svg"
   xmlns="http://www.w3.org/2000/svg"
   xmlns:sodipodi="http://sodipodi.sourceforge.net/DTD/sodipodi-0.dtd"
   xmlns:inkscape="http://www.inkscape.org/namespaces/inkscape"
   id="svg3311"
   version="1.1"
   inkscape:version="0.48.2 r9819"
   width="760"
   height="460"
   xml:space="preserve"
   sodipodi:docname="LAWD.pdf"><metadata
     id="metadata3317"><rdf:RDF><cc:Work
         rdf:about=""><dc:format>image/svg+xml</dc:format><dc:type
           rdf:resource="http://purl.org/dc/dcmitype/StillImage" /><dc:title></dc:title></cc:Work></rdf:RDF></metadata><defs
     id="defs3315" /><sodipodi:namedview
     pagecolor="#ffffff"
     bordercolor="#666666"
     borderopacity="1"
     objecttolerance="10"
     gridtolerance="10"
     guidetolerance="10"
     inkscape:pageopacity="0"
     inkscape:pageshadow="2"
     inkscape:window-width="640"
     inkscape:window-height="480"
     id="namedview3313"
     showgrid="false"
     inkscape:zoom="0.46315789"
     inkscape:cx="380"
     inkscape:cy="230"
     inkscape:window-x="0"
     inkscape:window-y="0"
     inkscape:window-maximized="0"
     inkscape:current-layer="g3319" /><g
     id="g3319"
     inkscape:groupmode="layer"
     inkscape:label="LAWD"
     transform="matrix(1.25,0,0,-1.25,0,460)"><g
       id="g3321" /><g
       id="g3323"><g
         id="g3325"
         transform="translate(40,41)"><path
           d="m 364.0522,270 c 0,9.9411 -27.334,18 -61.0522,18 -33.7182,0 -61.0522,-8.0589 -61.0522,-18 0,-9.9411 27.334,-18 61.0522,-18 33.7182,0 61.0522,8.0589 61.0522,18 z"
           style="fill:none;stroke:#000000;stroke-opacity:1;stroke-width:1;stroke-linecap:butt;stroke-linejoin:round;stroke-miterlimit:1;stroke-dasharray:none"
           id="path3327" /></g><g
         id="g3329"
         transform="translate(40,41)"><text
           transform="matrix(1,0,0,-1,266.5166,264.4)"
           id="text3331"><tspan
             style="fill:#000000;fill-opacity:1;fill-rule:nonzero;stroke:none;font-family:Times;font-variant:normal;font-weight:normal;font-size:14;writing-mode:lr;-inkscape-font-specification:Times-Roman"
             x="0 12.6602 17.3222 21.2114 25.1006 28.9898 35.203 42.203 54.3032 61.3032 65.9652"
             y="0"
             sodipodi:role="line"
             id="tspan3333">WrittenWork</tspan></text>
</g><g
         id="g3335"
         transform="translate(40,41)"><path
           d="m 152.3529,186 c 0,9.9411 -34.1844,18 -76.3529,18 -42.16855,0 -76.3529085,-8.0589 -76.3529085,-18 0,-9.9411 34.1843585,-18 76.3529085,-18 42.1685,0 76.3529,8.0589 76.3529,18 z"
           style="fill:none;stroke:#000000;stroke-opacity:1;stroke-width:1;stroke-linecap:butt;stroke-linejoin:round;stroke-miterlimit:1;stroke-dasharray:none"
           id="path3337" /></g><g
         id="g3339"
         transform="translate(40,41)"><text
           transform="matrix(1,0,0,-1,28.73975,180.4)"
           id="text3341"><tspan
             style="fill:#000000;fill-opacity:1;fill-rule:nonzero;stroke:none;font-family:Times;font-variant:normal;font-weight:normal;font-size:14;writing-mode:lr;-inkscape-font-specification:Times-Roman"
             x="0 9.338 16.338 23.338 29.5512 35.7644 42.7644 46.6536 53.6536 59.8668 63.756 75.8562 82.8562 87.5182"
             y="0"
             sodipodi:role="line"
             id="tspan3343">ConceptualWork</tspan></text>
</g><g
         id="g3345"
         transform="translate(40,41)"><path
           d="M 245.544,263.6048 C 212.2566,258.8843 170.2328,250.1288 135.6748,234 123.0393,228.1028 110.6615,219.0593 100.4839,210.4744"
           style="fill:none;stroke:#000000;stroke-opacity:1;stroke-width:1;stroke-linecap:butt;stroke-linejoin:round;stroke-miterlimit:1;stroke-dasharray:none"
           id="path3347" /></g><g
         id="g3349"
         transform="translate(40,41)"><path
           d="m 102.655,207.7231 -9.82444,-3.9663 5.20672,9.2272 4.61772,-5.2609 z"
           style="fill:#000000;fill-opacity:1;fill-rule:nonzero;stroke:#000000;stroke-opacity:1;stroke-width:1;stroke-linecap:butt;stroke-linejoin:round;stroke-miterlimit:1;stroke-dasharray:none"
           id="path3351" /></g><g
         id="g3353"
         transform="translate(40,41)"><text
           transform="matrix(1,0,0,-1,136,224)"
           id="text3355"><tspan
             style="fill:#000000;fill-opacity:1;fill-rule:nonzero;stroke:none;font-family:Times;font-variant:normal;font-weight:normal;font-size:10;writing-mode:lr;-inkscape-font-specification:Times-Roman"
             x="0 4.438 12.216 17.216 22.216 27.216 29.994 34.432"
             y="0"
             sodipodi:role="line"
             id="tspan3357">embodies</tspan></text>
</g><g
         id="g3359"
         transform="translate(40,41)"><path
           d="m 202.2295,102 c 0,9.9411 -18.9068,18 -42.2295,18 -23.3227,0 -42.2295,-8.0589 -42.2295,-18 0,-9.94113 18.9068,-18 42.2295,-18 23.3227,0 42.2295,8.05887 42.2295,18 z"
           style="fill:none;stroke:#000000;stroke-opacity:1;stroke-width:1;stroke-linecap:butt;stroke-linejoin:round;stroke-miterlimit:1;stroke-dasharray:none"
           id="path3361" /></g><g
         id="g3363"
         transform="translate(40,41)"><text
           transform="matrix(1,0,0,-1,137.4448,96.4)"
           id="text3365"><tspan
             style="fill:#000000;fill-opacity:1;fill-rule:nonzero;stroke:none;font-family:Times;font-variant:normal;font-weight:normal;font-size:14;writing-mode:lr;-inkscape-font-specification:Times-Roman"
             x="0 9.338 13.2272 17.1164 23.3296 27.2188 31.108 38.108"
             y="0"
             sodipodi:role="line"
             id="tspan3367">Citation</tspan></text>
</g><g
         id="g3369"
         transform="translate(40,41)"><path
           d="M 268.3218,254.9628 C 245.3544,244.0943 216.0962,227.0032 197.2461,204 c -9.5163,-11.6129 -21.759,-48.4339 -29.5572,-74.2461"
           style="fill:none;stroke:#000000;stroke-opacity:1;stroke-width:1;stroke-linecap:butt;stroke-linejoin:round;stroke-miterlimit:1;stroke-dasharray:none"
           id="path3371" /></g><g
         id="g3373"
         transform="translate(40,41)"><path
           d="m 171.0365,128.7317 -6.2013,-8.5903 -0.5092,10.5826 6.7105,-1.9923 z"
           style="fill:#000000;fill-opacity:1;fill-rule:nonzero;stroke:#000000;stroke-opacity:1;stroke-width:1;stroke-linecap:butt;stroke-linejoin:round;stroke-miterlimit:1;stroke-dasharray:none"
           id="path3375" /></g><g
         id="g3377"
         transform="translate(40,41)"><text
           transform="matrix(1,0,0,-1,198,182)"
           id="text3379"><tspan
             style="fill:#000000;fill-opacity:1;fill-rule:nonzero;stroke:none;font-family:Times;font-variant:normal;font-weight:normal;font-size:10;writing-mode:lr;-inkscape-font-specification:Times-Roman"
             x="0 3.33 7.768 12.768 16.098 20.536 24.428 28.866 33.866 36.644 41.082 46.082 52.752"
             y="0"
             sodipodi:role="line"
             id="tspan3381">representedBy</tspan></text>
</g><g
         id="g3383"
         transform="translate(40,41)"><path
           d="m 342.2049,186 c 0,9.9411 -17.5526,18 -39.2049,18 -21.6523,0 -39.2049,-8.0589 -39.2049,-18 0,-9.9411 17.5526,-18 39.2049,-18 21.6523,0 39.2049,8.0589 39.2049,18 z"
           style="fill:none;stroke:#000000;stroke-opacity:1;stroke-width:1;stroke-linecap:butt;stroke-linejoin:round;stroke-miterlimit:1;stroke-dasharray:none"
           id="path3385" /></g><g
         id="g3387"
         transform="translate(40,41)"><text
           transform="matrix(1,0,0,-1,282.3896,180.4)"
           id="text3389"><tspan
             style="fill:#000000;fill-opacity:1;fill-rule:nonzero;stroke:none;font-family:Times;font-variant:normal;font-weight:normal;font-size:14;writing-mode:lr;-inkscape-font-specification:Times-Roman"
             x="0 8.5512 15.5512 19.4404 23.3296 27.2188 34.2188"
             y="0"
             sodipodi:role="line"
             id="tspan3391">Edition</tspan></text>
</g><g
         id="g3393"
         transform="translate(40,41)"><path
           d="m 303,251.6099 c 0,-10.8356 0,-25.0087 0,-37.3186"
           style="fill:none;stroke:#000000;stroke-opacity:1;stroke-width:1;stroke-linecap:butt;stroke-linejoin:round;stroke-miterlimit:1;stroke-dasharray:none"
           id="path3395" /></g><g
         id="g3397"
         transform="translate(40,41)"><path
           d="m 306.5001,214.0838 -3.5001,-10 -3.4999,10.0001 7,-1e-4 z"
           style="fill:#000000;fill-opacity:1;fill-rule:nonzero;stroke:#000000;stroke-opacity:1;stroke-width:1;stroke-linecap:butt;stroke-linejoin:round;stroke-miterlimit:1;stroke-dasharray:none"
           id="path3399" /></g><g
         id="g3401"
         transform="translate(40,41)"><text
           transform="matrix(1,0,0,-1,303,224)"
           id="text3403"><tspan
             style="fill:#000000;fill-opacity:1;fill-rule:nonzero;stroke:none;font-family:Times;font-variant:normal;font-weight:normal;font-size:10;writing-mode:lr;-inkscape-font-specification:Times-Roman"
             x="0 5 9.438 13.33 15.83 19.722 24.722 29.722 34.16 36.938 41.376 45.268"
             y="0"
             sodipodi:role="line"
             id="tspan3405">has subclass</tspan></text>
</g><g
         id="g3407"
         transform="translate(40,41)"><path
           d="m 469.5215,186 c 0,9.9411 -24.4101,18 -54.5215,18 -30.1114,0 -54.5215,-8.0589 -54.5215,-18 0,-9.9411 24.4101,-18 54.5215,-18 30.1114,0 54.5215,8.0589 54.5215,18 z"
           style="fill:none;stroke:#000000;stroke-opacity:1;stroke-width:1;stroke-linecap:butt;stroke-linejoin:round;stroke-miterlimit:1;stroke-dasharray:none"
           id="path3409" /></g><g
         id="g3411"
         transform="translate(40,41)"><text
           transform="matrix(1,0,0,-1,383.3633,180.4)"
           id="text3413"><tspan
             style="fill:#000000;fill-opacity:1;fill-rule:nonzero;stroke:none;font-family:Times;font-variant:normal;font-weight:normal;font-size:14;writing-mode:lr;-inkscape-font-specification:Times-Roman"
             x="0 8.0668 12.7288 18.942 25.942 31.3908 35.28 41.4932 45.3824 49.2716 56.2716"
             y="0"
             sodipodi:role="line"
             id="tspan3415">Translation</tspan></text>
</g><g
         id="g3417"
         transform="translate(40,41)"><path
           d="M 327.5836,253.4167 C 336.6373,247.5083 346.8997,240.6095 356,234 c 10.6788,-7.7559 22.0935,-16.6893 32.0097,-24.6711"
           style="fill:none;stroke:#000000;stroke-opacity:1;stroke-width:1;stroke-linecap:butt;stroke-linejoin:round;stroke-miterlimit:1;stroke-dasharray:none"
           id="path3419" /></g><g
         id="g3421"
         transform="translate(40,41)"><path
           d="m 390.3786,211.914 5.5592,-9.0192 -9.9703,3.5839 4.4111,5.4353 z"
           style="fill:#000000;fill-opacity:1;fill-rule:nonzero;stroke:#000000;stroke-opacity:1;stroke-width:1;stroke-linecap:butt;stroke-linejoin:round;stroke-miterlimit:1;stroke-dasharray:none"
           id="path3423" /></g><g
         id="g3425"
         transform="translate(40,41)"><text
           transform="matrix(1,0,0,-1,371,224)"
           id="text3427"><tspan
             style="fill:#000000;fill-opacity:1;fill-rule:nonzero;stroke:none;font-family:Times;font-variant:normal;font-weight:normal;font-size:10;writing-mode:lr;-inkscape-font-specification:Times-Roman"
             x="0 5 9.438 13.33 15.83 19.722 24.722 29.722 34.16 36.938 41.376 45.268"
             y="0"
             sodipodi:role="line"
             id="tspan3429">has subclass</tspan></text>
</g><g
         id="g3431"
         transform="translate(40,41)"><path
           d="M 58.60607,168.1589 C 51.12306,158.8506 45.47452,147.3193 52.24609,138 65.16316,120.223 87.3275,111.2962 108.2081,106.8806"
           style="fill:none;stroke:#000000;stroke-opacity:1;stroke-width:1;stroke-linecap:butt;stroke-linejoin:round;stroke-miterlimit:1;stroke-dasharray:none"
           id="path3433" /></g><g
         id="g3435"
         transform="translate(40,41)"><path
           d="m 109.0905,110.278 9.2187,-5.2216 -10.4628,-1.667 1.2441,6.8886 z"
           style="fill:#000000;fill-opacity:1;fill-rule:nonzero;stroke:#000000;stroke-opacity:1;stroke-width:1;stroke-linecap:butt;stroke-linejoin:round;stroke-miterlimit:1;stroke-dasharray:none"
           id="path3437" /></g><g
         id="g3439"
         transform="translate(40,41)"><text
           transform="matrix(1,0,0,-1,53,140)"
           id="text3441"><tspan
             style="fill:#000000;fill-opacity:1;fill-rule:nonzero;stroke:none;font-family:Times;font-variant:normal;font-weight:normal;font-size:10;writing-mode:lr;-inkscape-font-specification:Times-Roman"
             x="0 3.33 7.768 12.768 16.098 20.536 24.428 28.866 33.866 36.644 41.082 46.082 52.752"
             y="0"
             sodipodi:role="line"
             id="tspan3443">representedBy</tspan></text>
</g><g
         id="g3445"
         transform="translate(40,41)"><path
           d="m 191.0755,114.1475 c 6.5304,2.1197 13.4133,4.1912 19.9245,5.8525 58.4132,14.9037 228.3271,1.7547 267,48 37.9151,45.3391 -49.8806,74.7476 -114.3374,89.5559"
           style="fill:none;stroke:#000000;stroke-opacity:1;stroke-width:1;stroke-linecap:butt;stroke-linejoin:round;stroke-miterlimit:1;stroke-dasharray:none"
           id="path3447" /></g><g
         id="g3449"
         transform="translate(40,41)"><path
           d="m 362.5423,254.2194 -9.0014,5.5879 10.5214,1.2451 -1.52,-6.833 z"
           style="fill:#000000;fill-opacity:1;fill-rule:nonzero;stroke:#000000;stroke-opacity:1;stroke-width:1;stroke-linecap:butt;stroke-linejoin:round;stroke-miterlimit:1;stroke-dasharray:none"
           id="path3451" /></g><g
         id="g3453"
         transform="translate(40,41)"><text
           transform="matrix(1,0,0,-1,487,182)"
           id="text3455"><tspan
             style="fill:#000000;fill-opacity:1;fill-rule:nonzero;stroke:none;font-family:Times;font-variant:normal;font-weight:normal;font-size:10;writing-mode:lr;-inkscape-font-specification:Times-Roman"
             x="0 3.33 7.768 12.768 16.098 20.536 24.428 28.866 33.866 36.644"
             y="0"
             sodipodi:role="line"
             id="tspan3457">represents</tspan></text>
</g><g
         id="g3459"
         transform="translate(40,41)"><path
           d="m 143.8816,118.7346 c -12.3139,12.0208 -29.4925,28.7903 -43.4869,42.4516"
           style="fill:none;stroke:#000000;stroke-opacity:1;stroke-width:1;stroke-linecap:butt;stroke-linejoin:round;stroke-miterlimit:1;stroke-dasharray:none"
           id="path3461" /></g><g
         id="g3463"
         transform="translate(40,41)"><path
           d="m 97.70953,158.9162 -4.71088,9.4899 9.60065,-4.4809 -4.88977,-5.009 z"
           style="fill:#000000;fill-opacity:1;fill-rule:nonzero;stroke:#000000;stroke-opacity:1;stroke-width:1;stroke-linecap:butt;stroke-linejoin:round;stroke-miterlimit:1;stroke-dasharray:none"
           id="path3465" /></g><g
         id="g3467"
         transform="translate(40,41)"><text
           transform="matrix(1,0,0,-1,124,140)"
           id="text3469"><tspan
             style="fill:#000000;fill-opacity:1;fill-rule:nonzero;stroke:none;font-family:Times;font-variant:normal;font-weight:normal;font-size:10;writing-mode:lr;-inkscape-font-specification:Times-Roman"
             x="0 3.33 7.768 12.768 16.098 20.536 24.428 28.866 33.866 36.644"
             y="0"
             sodipodi:role="line"
             id="tspan3471">represents</tspan></text>
</g><g
         id="g3473"
         transform="translate(40,41)"><path
           d="m 207.4133,18 c 0,9.94113 -17.1982,18 -38.4133,18 -21.2151,0 -38.4133,-8.05887 -38.4133,-18 0,-9.941125 17.1982,-18 38.4133,-18 21.2151,0 38.4133,8.058875 38.4133,18 z"
           style="fill:none;stroke:#000000;stroke-opacity:1;stroke-width:1;stroke-linecap:butt;stroke-linejoin:round;stroke-miterlimit:1;stroke-dasharray:none"
           id="path3475" /></g><g
         id="g3477"
         transform="translate(40,41)"><text
           transform="matrix(1,0,0,-1,148.7725,12.4)"
           id="text3479"><tspan
             style="fill:#000000;fill-opacity:1;fill-rule:nonzero;stroke:none;font-family:Times;font-variant:normal;font-weight:normal;font-size:14;writing-mode:lr;-inkscape-font-specification:Times-Roman"
             x="0 7.7868 11.676 18.676 22.5652 29.5652"
             y="0"
             sodipodi:role="line"
             id="tspan3481">Siglum</tspan></text>
</g><g
         id="g3483"
         transform="translate(40,41)"><path
           d="m 159.4416,83.97038 c -0.0761,-8.9523 0.1721,-20.08971 1.3982,-29.97038 0.3343,-2.69346 0.7905,-5.48213 1.3177,-8.2559"
           style="fill:none;stroke:#000000;stroke-opacity:1;stroke-width:1;stroke-linecap:butt;stroke-linejoin:round;stroke-miterlimit:1;stroke-dasharray:none"
           id="path3485" /></g><g
         id="g3487"
         transform="translate(40,41)"><path
           d="m 165.5802,46.47545 -1.294,-10.51551 -5.546,9.02733 6.84,1.48818 z"
           style="fill:#000000;fill-opacity:1;fill-rule:nonzero;stroke:#000000;stroke-opacity:1;stroke-width:1;stroke-linecap:butt;stroke-linejoin:round;stroke-miterlimit:1;stroke-dasharray:none"
           id="path3489" /></g><g
         id="g3491"
         transform="translate(40,41)"><text
           transform="matrix(1,0,0,-1,161,56)"
           id="text3493"><tspan
             style="fill:#000000;fill-opacity:1;fill-rule:nonzero;stroke:none;font-family:Times;font-variant:normal;font-weight:normal;font-size:10;writing-mode:lr;-inkscape-font-specification:Times-Roman"
             x="0 5 9.438 13.33 15.83 19.722 24.722 29.722 34.16 36.938 41.376 45.268"
             y="0"
             sodipodi:role="line"
             id="tspan3495">has subclass</tspan></text>
</g><g
         id="g3497"
         transform="translate(40,41)"><path
           d="m 349.5163,102 c 0,9.9411 -28.8849,18 -64.5163,18 -35.6314,0 -64.5163,-8.0589 -64.5163,-18 0,-9.94113 28.8849,-18 64.5163,-18 35.6314,0 64.5163,8.05887 64.5163,18 z"
           style="fill:none;stroke:#000000;stroke-opacity:1;stroke-width:1;stroke-linecap:butt;stroke-linejoin:round;stroke-miterlimit:1;stroke-dasharray:none"
           id="path3499" /></g><g
         id="g3501"
         transform="translate(40,41)"><text
           transform="matrix(1,0,0,-1,246.1172,96.4)"
           id="text3503"><tspan
             style="fill:#000000;fill-opacity:1;fill-rule:nonzero;stroke:none;font-family:Times;font-variant:normal;font-weight:normal;font-size:14;writing-mode:lr;-inkscape-font-specification:Times-Roman"
             x="0 9.338 16.338 20.2272 24.1164 30.3296 34.2188 38.108 45.108 52.108 56.77 60.6592 66.8724"
             y="0"
             sodipodi:role="line"
             id="tspan3505">CollationItem</tspan></text>
</g><g
         id="g3507"
         transform="translate(40,41)"><path
           d="M 262.3587,84.99491 C 243.8647,71.92162 217.6149,53.36568 197.6575,39.25789"
           style="fill:none;stroke:#000000;stroke-opacity:1;stroke-width:1;stroke-linecap:butt;stroke-linejoin:round;stroke-miterlimit:1;stroke-dasharray:none"
           id="path3509" /></g><g
         id="g3511"
         transform="translate(40,41)"><path
           d="m 199.4426,36.23358 -10.1862,-2.91438 6.1455,8.63043 4.0407,-5.71605 z"
           style="fill:#000000;fill-opacity:1;fill-rule:nonzero;stroke:#000000;stroke-opacity:1;stroke-width:1;stroke-linecap:butt;stroke-linejoin:round;stroke-miterlimit:1;stroke-dasharray:none"
           id="path3513" /></g><g
         id="g3515"
         transform="translate(40,41)"><text
           transform="matrix(1,0,0,-1,234,56)"
           id="text3517"><tspan
             style="fill:#000000;fill-opacity:1;fill-rule:nonzero;stroke:none;font-family:Times;font-variant:normal;font-weight:normal;font-size:10;writing-mode:lr;-inkscape-font-specification:Times-Roman"
             x="0 7.222 10 12.778 17.778 22.216 26.108"
             y="0"
             sodipodi:role="line"
             id="tspan3519">witness</tspan></text>
</g><g
         id="g3521"
         transform="translate(40,41)"><path
           d="m 335.2535,18 c 0,9.94113 -22.4992,18 -50.2535,18 -27.7543,0 -50.2535,-8.05887 -50.2535,-18 0,-9.941125 22.4992,-18 50.2535,-18 27.7543,0 50.2535,8.058875 50.2535,18 z"
           style="fill:none;stroke:#000000;stroke-opacity:1;stroke-width:1;stroke-linecap:butt;stroke-linejoin:round;stroke-miterlimit:1;stroke-dasharray:none"
           id="path3523" /></g><g
         id="g3525"
         transform="translate(40,41)"><text
           transform="matrix(1,0,0,-1,256.6343,12.4)"
           id="text3527"><tspan
             style="fill:#000000;fill-opacity:1;fill-rule:nonzero;stroke:none;font-family:Times;font-variant:normal;font-weight:normal;font-size:14;writing-mode:lr;-inkscape-font-specification:Times-Roman"
             x="0 9.338 15.5512 20.2132 26.4264 31.0884 37.3016 44.3016 50.5148"
             y="0"
             sodipodi:role="line"
             id="tspan3529">Reference</tspan></text>
</g><g
         id="g3531"
         transform="translate(40,41)"><path
           d="m 285,83.60991 c 0,-10.83563 0,-25.00871 0,-37.31862"
           style="fill:none;stroke:#000000;stroke-opacity:1;stroke-width:1;stroke-linecap:butt;stroke-linejoin:round;stroke-miterlimit:1;stroke-dasharray:none"
           id="path3533" /></g><g
         id="g3535"
         transform="translate(40,41)"><path
           d="M 288.5001,46.08381 285,36.08384 l -3.4999,10.00004 7,-7e-5 z"
           style="fill:#000000;fill-opacity:1;fill-rule:nonzero;stroke:#000000;stroke-opacity:1;stroke-width:1;stroke-linecap:butt;stroke-linejoin:round;stroke-miterlimit:1;stroke-dasharray:none"
           id="path3537" /></g><g
         id="g3539"
         transform="translate(40,41)"><text
           transform="matrix(1,0,0,-1,285,56)"
           id="text3541"><tspan
             style="fill:#000000;fill-opacity:1;fill-rule:nonzero;stroke:none;font-family:Times;font-variant:normal;font-weight:normal;font-size:10;writing-mode:lr;-inkscape-font-specification:Times-Roman"
             x="0 5 9.438 13.33 15.83 19.722 24.722 29.722 34.16 36.938 41.376 45.268"
             y="0"
             sodipodi:role="line"
             id="tspan3543">has subclass</tspan></text>
</g><g
         id="g3545"
         transform="translate(40,41)"><path
           d="m 518.3755,18 c 0,9.94113 -36.8808,18 -82.3755,18 -45.4947,0 -82.3755,-8.05887 -82.3755,-18 0,-9.941125 36.8808,-18 82.3755,-18 45.4947,0 82.3755,8.058875 82.3755,18 z"
           style="fill:none;stroke:#000000;stroke-opacity:1;stroke-width:1;stroke-linecap:butt;stroke-linejoin:round;stroke-miterlimit:1;stroke-dasharray:none"
           id="path3547" /></g><g
         id="g3549"
         transform="translate(40,41)"><text
           transform="matrix(1,0,0,-1,383.8965,12.4)"
           id="text3551"><tspan
             style="fill:#000000;fill-opacity:1;fill-rule:nonzero;stroke:none;font-family:Times;font-variant:normal;font-weight:normal;font-size:14;writing-mode:lr;-inkscape-font-specification:Times-Roman"
             x="0 8.5512 15.5512 19.4404 23.3296 30.3296 34.9916 38.8808 45.094 48.9832 58.3212 65.3212 76.2104 87.0996 93.3128 100.3128"
             y="0"
             sodipodi:role="line"
             id="tspan3553">EditorialComment</tspan></text>
</g><g
         id="g3555"
         transform="translate(40,41)"><path
           d="M 313.0481,85.7686 C 336.928,72.80067 371.4588,54.04885 397.8503,39.71704"
           style="fill:none;stroke:#000000;stroke-opacity:1;stroke-width:1;stroke-linecap:butt;stroke-linejoin:round;stroke-miterlimit:1;stroke-dasharray:none"
           id="path3557" /></g><g
         id="g3559"
         transform="translate(40,41)"><path
           d="m 399.6975,42.69676 7.1176,-7.848 -10.4581,1.69651 3.3405,6.15149 z"
           style="fill:#000000;fill-opacity:1;fill-rule:nonzero;stroke:#000000;stroke-opacity:1;stroke-width:1;stroke-linecap:butt;stroke-linejoin:round;stroke-miterlimit:1;stroke-dasharray:none"
           id="path3561" /></g><g
         id="g3563"
         transform="translate(40,41)"><text
           transform="matrix(1,0,0,-1,370,56)"
           id="text3565"><tspan
             style="fill:#000000;fill-opacity:1;fill-rule:nonzero;stroke:none;font-family:Times;font-variant:normal;font-weight:normal;font-size:10;writing-mode:lr;-inkscape-font-specification:Times-Roman"
             x="0 5 9.438 13.33 15.83 19.722 24.722 29.722 34.16 36.938 41.376 45.268"
             y="0"
             sodipodi:role="line"
             id="tspan3567">has subclass</tspan></text>
</g></g></g></svg>