<?xml version="1.0" encoding="UTF-8" standalone="no"?><svg xmlns="http://www.w3.org/2000/svg" xmlns:xlink="http://www.w3.org/1999/xlink" clip-rule="evenodd" stroke-miterlimit="4.00" viewBox="0 0 1024 768"><desc>SVG generated by Keynote</desc><defs></defs><g transform="matrix(1.00, 0.00, -0.00, -1.00, 0.0, 768.0)"><path d="M 0.0 768.0 L 1024.0 768.0 L 1024.0 0.0 L 0.0 0.0 Z M 0.0 768.0 " fill="#000000"></path><text xml:space="preserve" font-family="Helvetica-Light" font-size="80.0" fill="#FEFFFF" transform="matrix(1.00, 0.00, -0.00, -1.00, 108.0, 633.0)">W</text><text xml:space="preserve" font-family="Helvetica-Light" font-size="80.0" fill="#FEFFFF" transform="matrix(1.00, 0.00, -0.00, -1.00, 179.1, 633.0)">h</text><text xml:space="preserve" font-family="Helvetica-Light" font-size="80.0" fill="#FEFFFF" transform="matrix(1.00, 0.00, -0.00, -1.00, 223.6, 633.0)">a</text><text xml:space="preserve" font-family="Helvetica-Light" font-size="80.0" fill="#FEFFFF" transform="matrix(1.00, 0.00, -0.00, -1.00, 268.1, 633.0)">t</text><text xml:space="preserve" font-family="Helvetica-Light" font-size="80.0" fill="#FEFFFF" transform="matrix(1.00, 0.00, -0.00, -1.00, 290.3, 633.0)">’</text><text xml:space="preserve" font-family="Helvetica-Light" font-size="80.0" fill="#FEFFFF" transform="matrix(1.00, 0.00, -0.00, -1.00, 302.2, 633.0)">s</text><text xml:space="preserve" font-family="Helvetica-Light" font-size="80.0" fill="#FEFFFF" transform="matrix(1.00, 0.00, -0.00, -1.00, 342.2, 633.0)"> </text><text xml:space="preserve" font-family="Helvetica-Light" font-size="80.0" fill="#FEFFFF" transform="matrix(1.00, 0.00, -0.00, -1.00, 364.4, 633.0)">a</text><text xml:space="preserve" font-family="Helvetica-Light" font-size="80.0" fill="#FEFFFF" transform="matrix(1.00, 0.00, -0.00, -1.00, 408.9, 633.0)"> </text><text xml:space="preserve" font-family="Helvetica-Light" font-size="80.0" fill="#FEFFFF" transform="matrix(1.00, 0.00, -0.00, -1.00, 431.1, 633.0)">n</text><text xml:space="preserve" font-family="Helvetica-Light" font-size="80.0" fill="#FEFFFF" transform="matrix(1.00, 0.00, -0.00, -1.00, 475.6, 633.0)">a</text><text xml:space="preserve" font-family="Helvetica-Light" font-size="80.0" fill="#FEFFFF" transform="matrix(1.00, 0.00, -0.00, -1.00, 520.1, 633.0)">m</text><text xml:space="preserve" font-family="Helvetica-Light" font-size="80.0" fill="#FEFFFF" transform="matrix(1.00, 0.00, -0.00, -1.00, 586.7, 633.0)">e</text><text xml:space="preserve" font-family="Helvetica-Light" font-size="80.0" fill="#FEFFFF" transform="matrix(1.00, 0.00, -0.00, -1.00, 631.2, 633.0)"> </text><text xml:space="preserve" font-family="Helvetica-Light" font-size="80.0" fill="#FEFFFF" transform="matrix(1.00, 0.00, -0.00, -1.00, 653.4, 633.0)">m</text><text xml:space="preserve" font-family="Helvetica-Light" font-size="80.0" fill="#FEFFFF" transform="matrix(1.00, 0.00, -0.00, -1.00, 720.1, 633.0)">a</text><text xml:space="preserve" font-family="Helvetica-Light" font-size="80.0" fill="#FEFFFF" transform="matrix(1.00, 0.00, -0.00, -1.00, 764.6, 633.0)">t</text><text xml:space="preserve" font-family="Helvetica-Light" font-size="80.0" fill="#FEFFFF" transform="matrix(1.00, 0.00, -0.00, -1.00, 786.8, 633.0)">c</text><text xml:space="preserve" font-family="Helvetica-Light" font-size="80.0" fill="#FEFFFF" transform="matrix(1.00, 0.00, -0.00, -1.00, 831.3, 633.0)">h</text><text xml:space="preserve" font-family="Helvetica-Light" font-size="80.0" fill="#FEFFFF" transform="matrix(1.00, 0.00, -0.00, -1.00, 875.8, 633.0)">?</text><text xml:space="preserve" font-family="Helvetica-Light" font-size="28.5" fill="#FEFFFF" transform="matrix(1.00, 0.00, -0.00, -1.00, 79.0, 393.1)">•</text><text xml:space="preserve" font-family="Helvetica-Light" font-size="38.0" fill="#FEFFFF" transform="matrix(1.00, 0.00, -0.00, -1.00, 114.0, 390.0)">P</text><text xml:space="preserve" font-family="Helvetica-Light" font-size="38.0" fill="#FEFFFF" transform="matrix(1.00, 0.00, -0.00, -1.00, 137.2, 390.0)">l</text><text xml:space="preserve" font-family="Helvetica-Light" font-size="38.0" fill="#FEFFFF" transform="matrix(1.00, 0.00, -0.00, -1.00, 145.7, 390.0)">e</text><text xml:space="preserve" font-family="Helvetica-Light" font-size="38.0" fill="#FEFFFF" transform="matrix(1.00, 0.00, -0.00, -1.00, 166.8, 390.0)">i</text><text xml:space="preserve" font-family="Helvetica-Light" font-size="38.0" fill="#FEFFFF" transform="matrix(1.00, 0.00, -0.00, -1.00, 175.2, 390.0)">a</text><text xml:space="preserve" font-family="Helvetica-Light" font-size="38.0" fill="#FEFFFF" transform="matrix(1.00, 0.00, -0.00, -1.00, 196.3, 390.0)">d</text><text xml:space="preserve" font-family="Helvetica-Light" font-size="38.0" fill="#FEFFFF" transform="matrix(1.00, 0.00, -0.00, -1.00, 219.6, 390.0)">e</text><text xml:space="preserve" font-family="Helvetica-Light" font-size="38.0" fill="#FEFFFF" transform="matrix(1.00, 0.00, -0.00, -1.00, 240.7, 390.0)">s</text><text xml:space="preserve" font-family="Helvetica-Light" font-size="38.0" fill="#FEFFFF" transform="matrix(1.00, 0.00, -0.00, -1.00, 259.7, 390.0)">:</text><text xml:space="preserve" font-family="Helvetica-Light" font-size="38.0" fill="#FEFFFF" transform="matrix(1.00, 0.00, -0.00, -1.00, 270.3, 390.0)"> </text><text xml:space="preserve" font-family="Helvetica-Light" font-size="38.0" fill="#FEFFFF" transform="matrix(1.00, 0.00, -0.00, -1.00, 280.8, 390.0)">A</text><text xml:space="preserve" font-family="Helvetica-Light" font-size="38.0" fill="#FEFFFF" transform="matrix(1.00, 0.00, -0.00, -1.00, 306.2, 390.0)">l</text><text xml:space="preserve" font-family="Helvetica-Light" font-size="38.0" fill="#FEFFFF" transform="matrix(1.00, 0.00, -0.00, -1.00, 314.6, 390.0)">e</text><text xml:space="preserve" font-family="Helvetica-Light" font-size="38.0" fill="#FEFFFF" transform="matrix(1.00, 0.00, -0.00, -1.00, 335.7, 390.0)">x</text><text xml:space="preserve" font-family="Helvetica-Light" font-size="38.0" fill="#FEFFFF" transform="matrix(1.00, 0.00, -0.00, -1.00, 354.7, 390.0)">a</text><text xml:space="preserve" font-family="Helvetica-Light" font-size="38.0" fill="#FEFFFF" transform="matrix(1.00, 0.00, -0.00, -1.00, 375.9, 390.0)">n</text><text xml:space="preserve" font-family="Helvetica-Light" font-size="38.0" fill="#FEFFFF" transform="matrix(1.00, 0.00, -0.00, -1.00, 397.0, 390.0)">d</text><text xml:space="preserve" font-family="Helvetica-Light" font-size="38.0" fill="#FEFFFF" transform="matrix(1.00, 0.00, -0.00, -1.00, 420.2, 390.0)">r</text><text xml:space="preserve" font-family="Helvetica-Light" font-size="38.0" fill="#FEFFFF" transform="matrix(1.00, 0.00, -0.00, -1.00, 432.2, 390.0)">e</text><text xml:space="preserve" font-family="Helvetica-Light" font-size="38.0" fill="#FEFFFF" transform="matrix(1.00, 0.00, -0.00, -1.00, 453.3, 390.0)">i</text><text xml:space="preserve" font-family="Helvetica-Light" font-size="38.0" fill="#FEFFFF" transform="matrix(1.00, 0.00, -0.00, -1.00, 461.7, 390.0)">a</text><text xml:space="preserve" font-family="Helvetica-Light" font-size="38.0" fill="#FEFFFF" transform="matrix(1.00, 0.00, -0.00, -1.00, 482.9, 390.0)"> </text><text xml:space="preserve" font-family="Helvetica-Light" font-size="28.5" fill="#FEFFFF" transform="matrix(1.00, 0.00, -0.00, -1.00, 79.0, 305.1)">•</text><text xml:space="preserve" font-family="Helvetica-Light" font-size="38.0" fill="#FEFFFF" transform="matrix(1.00, 0.00, -0.00, -1.00, 114.0, 302.0)">G</text><text xml:space="preserve" font-family="Helvetica-Light" font-size="38.0" fill="#FEFFFF" transform="matrix(1.00, 0.00, -0.00, -1.00, 143.6, 302.0)">e</text><text xml:space="preserve" font-family="Helvetica-Light" font-size="38.0" fill="#FEFFFF" transform="matrix(1.00, 0.00, -0.00, -1.00, 164.7, 302.0)">o</text><text xml:space="preserve" font-family="Helvetica-Light" font-size="38.0" fill="#FEFFFF" transform="matrix(1.00, 0.00, -0.00, -1.00, 185.8, 302.0)">N</text><text xml:space="preserve" font-family="Helvetica-Light" font-size="38.0" fill="#FEFFFF" transform="matrix(1.00, 0.00, -0.00, -1.00, 213.3, 302.0)">a</text><text xml:space="preserve" font-family="Helvetica-Light" font-size="38.0" fill="#FEFFFF" transform="matrix(1.00, 0.00, -0.00, -1.00, 234.4, 302.0)">m</text><text xml:space="preserve" font-family="Helvetica-Light" font-size="38.0" fill="#FEFFFF" transform="matrix(1.00, 0.00, -0.00, -1.00, 266.0, 302.0)">e</text><text xml:space="preserve" font-family="Helvetica-Light" font-size="38.0" fill="#FEFFFF" transform="matrix(1.00, 0.00, -0.00, -1.00, 287.2, 302.0)">s</text><text xml:space="preserve" font-family="Helvetica-Light" font-size="38.0" fill="#FEFFFF" transform="matrix(1.00, 0.00, -0.00, -1.00, 306.2, 302.0)">:</text><text xml:space="preserve" font-family="Helvetica-Light" font-size="38.0" fill="#FEFFFF" transform="matrix(1.00, 0.00, -0.00, -1.00, 316.7, 302.0)"> </text><text xml:space="preserve" font-family="Helvetica-Light" font-size="38.0" fill="#FEFFFF" transform="matrix(1.00, 0.00, -0.00, -1.00, 327.3, 302.0)">Α</text><text xml:space="preserve" font-family="Helvetica-Light" font-size="38.0" fill="#FEFFFF" transform="matrix(1.00, 0.00, -0.00, -1.00, 351.2, 302.0)">λ</text><text xml:space="preserve" font-family="Helvetica-Light" font-size="38.0" fill="#FEFFFF" transform="matrix(1.00, 0.00, -0.00, -1.00, 369.5, 302.0)">ε</text><text xml:space="preserve" font-family="Helvetica-Light" font-size="38.0" fill="#FEFFFF" transform="matrix(1.00, 0.00, -0.00, -1.00, 388.6, 302.0)">ξ</text><text xml:space="preserve" font-family="Helvetica-Light" font-size="38.0" fill="#FEFFFF" transform="matrix(1.00, 0.00, -0.00, -1.00, 405.5, 302.0)">ά</text><text xml:space="preserve" font-family="Helvetica-Light" font-size="38.0" fill="#FEFFFF" transform="matrix(1.00, 0.00, -0.00, -1.00, 428.0, 302.0)">ν</text><text xml:space="preserve" font-family="Helvetica-Light" font-size="38.0" fill="#FEFFFF" transform="matrix(1.00, 0.00, -0.00, -1.00, 445.9, 302.0)">δ</text><text xml:space="preserve" font-family="Helvetica-Light" font-size="38.0" fill="#FEFFFF" transform="matrix(1.00, 0.00, -0.00, -1.00, 467.1, 302.0)">ρ</text><text xml:space="preserve" font-family="Helvetica-Light" font-size="38.0" fill="#FEFFFF" transform="matrix(1.00, 0.00, -0.00, -1.00, 488.9, 302.0)">ε</text><text xml:space="preserve" font-family="Helvetica-Light" font-size="38.0" fill="#FEFFFF" transform="matrix(1.00, 0.00, -0.00, -1.00, 508.0, 302.0)">ι</text><text xml:space="preserve" font-family="Helvetica-Light" font-size="38.0" fill="#FEFFFF" transform="matrix(1.00, 0.00, -0.00, -1.00, 515.2, 302.0)">α</text><text xml:space="preserve" font-family="Helvetica-Light" font-size="38.0" fill="#FEFFFF" transform="matrix(1.00, 0.00, -0.00, -1.00, 537.7, 302.0)"> </text><text xml:space="preserve" font-family="Helvetica-Light" font-size="28.5" fill="#FEFFFF" transform="matrix(1.00, 0.00, -0.00, -1.00, 79.0, 217.1)">•</text><text xml:space="preserve" font-family="Helvetica-Light" font-size="38.0" fill="#FEFFFF" transform="matrix(1.00, 0.00, -0.00, -1.00, 114.0, 214.0)">N</text><text xml:space="preserve" font-family="Helvetica-Light" font-size="38.0" fill="#FEFFFF" transform="matrix(1.00, 0.00, -0.00, -1.00, 141.4, 214.0)">o</text><text xml:space="preserve" font-family="Helvetica-Light" font-size="38.0" fill="#FEFFFF" transform="matrix(1.00, 0.00, -0.00, -1.00, 162.6, 214.0)">t</text><text xml:space="preserve" font-family="Helvetica-Light" font-size="38.0" fill="#FEFFFF" transform="matrix(1.00, 0.00, -0.00, -1.00, 173.1, 214.0)"> </text><text xml:space="preserve" font-family="Helvetica-Light" font-size="38.0" fill="#FEFFFF" transform="matrix(1.00, 0.00, -0.00, -1.00, 183.7, 214.0)">a</text><text xml:space="preserve" font-family="Helvetica-Light" font-size="38.0" fill="#FEFFFF" transform="matrix(1.00, 0.00, -0.00, -1.00, 204.8, 214.0)">s</text><text xml:space="preserve" font-family="Helvetica-Light" font-size="38.0" fill="#FEFFFF" transform="matrix(1.00, 0.00, -0.00, -1.00, 223.8, 214.0)"> </text><text xml:space="preserve" font-family="Helvetica-Light" font-size="38.0" fill="#FEFFFF" transform="matrix(1.00, 0.00, -0.00, -1.00, 234.4, 214.0)">e</text><text xml:space="preserve" font-family="Helvetica-Light" font-size="38.0" fill="#FEFFFF" transform="matrix(1.00, 0.00, -0.00, -1.00, 255.5, 214.0)">a</text><text xml:space="preserve" font-family="Helvetica-Light" font-size="38.0" fill="#FEFFFF" transform="matrix(1.00, 0.00, -0.00, -1.00, 276.6, 214.0)">s</text><text xml:space="preserve" font-family="Helvetica-Light" font-size="38.0" fill="#FEFFFF" transform="matrix(1.00, 0.00, -0.00, -1.00, 295.6, 214.0)">y</text></g></svg>