<?xml version="1.0" encoding="UTF-8" standalone="no"?><svg xmlns="http://www.w3.org/2000/svg" xmlns:xlink="http://www.w3.org/1999/xlink" clip-rule="evenodd" stroke-miterlimit="4.00" viewBox="0 0 1024 768"><desc>SVG generated by Keynote</desc><defs></defs><g transform="matrix(1.00, 0.00, -0.00, -1.00, 0.0, 768.0)"><path d="M 0.0 768.0 L 1024.0 768.0 L 1024.0 0.0 L 0.0 0.0 Z M 0.0 768.0 " fill="#000000"></path><text xml:space="preserve" font-family="Helvetica-Light" font-size="67.2" fill="#FEFFFF" transform="matrix(1.00, 0.00, -0.00, -1.00, 187.0, 678.0)">B</text><text xml:space="preserve" font-family="Helvetica-Light" font-size="67.2" fill="#FEFFFF" transform="matrix(1.00, 0.00, -0.00, -1.00, 231.8, 678.0)">o</text><text xml:space="preserve" font-family="Helvetica-Light" font-size="67.2" fill="#FEFFFF" transform="matrix(1.00, 0.00, -0.00, -1.00, 269.2, 678.0)">n</text><text xml:space="preserve" font-family="Helvetica-Light" font-size="67.2" fill="#FEFFFF" transform="matrix(1.00, 0.00, -0.00, -1.00, 306.5, 678.0)">u</text><text xml:space="preserve" font-family="Helvetica-Light" font-size="67.2" fill="#FEFFFF" transform="matrix(1.00, 0.00, -0.00, -1.00, 343.9, 678.0)">s</text><text xml:space="preserve" font-family="Helvetica-Light" font-size="67.2" fill="#FEFFFF" transform="matrix(1.00, 0.00, -0.00, -1.00, 377.5, 678.0)"> </text><text xml:space="preserve" font-family="Helvetica-Light" font-size="67.2" fill="#FEFFFF" transform="matrix(1.00, 0.00, -0.00, -1.00, 396.2, 678.0)">B</text><text xml:space="preserve" font-family="Helvetica-Light" font-size="67.2" fill="#FEFFFF" transform="matrix(1.00, 0.00, -0.00, -1.00, 441.0, 678.0)">o</text><text xml:space="preserve" font-family="Helvetica-Light" font-size="67.2" fill="#FEFFFF" transform="matrix(1.00, 0.00, -0.00, -1.00, 478.4, 678.0)">n</text><text xml:space="preserve" font-family="Helvetica-Light" font-size="67.2" fill="#FEFFFF" transform="matrix(1.00, 0.00, -0.00, -1.00, 515.7, 678.0)">u</text><text xml:space="preserve" font-family="Helvetica-Light" font-size="67.2" fill="#FEFFFF" transform="matrix(1.00, 0.00, -0.00, -1.00, 553.1, 678.0)">s</text><text xml:space="preserve" font-family="Helvetica-Light" font-size="67.2" fill="#FEFFFF" transform="matrix(1.00, 0.00, -0.00, -1.00, 586.7, 678.0)"> </text><text xml:space="preserve" font-family="Helvetica-Light" font-size="67.2" fill="#FEFFFF" transform="matrix(1.00, 0.00, -0.00, -1.00, 605.4, 678.0)">R</text><text xml:space="preserve" font-family="Helvetica-Light" font-size="67.2" fill="#FEFFFF" transform="matrix(1.00, 0.00, -0.00, -1.00, 650.2, 678.0)">o</text><text xml:space="preserve" font-family="Helvetica-Light" font-size="67.2" fill="#FEFFFF" transform="matrix(1.00, 0.00, -0.00, -1.00, 687.6, 678.0)">u</text><text xml:space="preserve" font-family="Helvetica-Light" font-size="67.2" fill="#FEFFFF" transform="matrix(1.00, 0.00, -0.00, -1.00, 724.9, 678.0)">n</text><text xml:space="preserve" font-family="Helvetica-Light" font-size="67.2" fill="#FEFFFF" transform="matrix(1.00, 0.00, -0.00, -1.00, 762.3, 678.0)">d</text><text xml:space="preserve" font-family="Helvetica-Light" font-size="67.2" fill="#FEFFFF" transform="matrix(1.00, 0.00, -0.00, -1.00, 803.4, 678.0)">?</text><text xml:space="preserve" font-family="Helvetica-Light" font-size="67.2" fill="#FEFFFF" transform="matrix(1.00, 0.00, -0.00, -1.00, 837.0, 678.0)"> </text><text xml:space="preserve" font-family="Helvetica-Light" font-size="67.2" fill="#FEFFFF" transform="matrix(1.00, 0.00, -0.00, -1.00, 320.0, 598.0)">B</text><text xml:space="preserve" font-family="Helvetica-Light" font-size="67.2" fill="#FEFFFF" transform="matrix(1.00, 0.00, -0.00, -1.00, 364.8, 598.0)">o</text><text xml:space="preserve" font-family="Helvetica-Light" font-size="67.2" fill="#FEFFFF" transform="matrix(1.00, 0.00, -0.00, -1.00, 402.2, 598.0)">o</text><text xml:space="preserve" font-family="Helvetica-Light" font-size="67.2" fill="#FEFFFF" transform="matrix(1.00, 0.00, -0.00, -1.00, 439.5, 598.0)">k</text><text xml:space="preserve" font-family="Helvetica-Light" font-size="67.2" fill="#FEFFFF" transform="matrix(1.00, 0.00, -0.00, -1.00, 473.1, 598.0)"> </text><text xml:space="preserve" font-family="Helvetica-Light" font-size="67.2" fill="#FEFFFF" transform="matrix(1.00, 0.00, -0.00, -1.00, 491.8, 598.0)">A</text><text xml:space="preserve" font-family="Helvetica-Light" font-size="67.2" fill="#FEFFFF" transform="matrix(1.00, 0.00, -0.00, -1.00, 536.7, 598.0)">l</text><text xml:space="preserve" font-family="Helvetica-Light" font-size="67.2" fill="#FEFFFF" transform="matrix(1.00, 0.00, -0.00, -1.00, 551.6, 598.0)">i</text><text xml:space="preserve" font-family="Helvetica-Light" font-size="67.2" fill="#FEFFFF" transform="matrix(1.00, 0.00, -0.00, -1.00, 566.5, 598.0)">g</text><text xml:space="preserve" font-family="Helvetica-Light" font-size="67.2" fill="#FEFFFF" transform="matrix(1.00, 0.00, -0.00, -1.00, 607.5, 598.0)">n</text><text xml:space="preserve" font-family="Helvetica-Light" font-size="67.2" fill="#FEFFFF" transform="matrix(1.00, 0.00, -0.00, -1.00, 644.9, 598.0)">e</text><text xml:space="preserve" font-family="Helvetica-Light" font-size="67.2" fill="#FEFFFF" transform="matrix(1.00, 0.00, -0.00, -1.00, 682.3, 598.0)">r</text><image xlink:href="5326F19984C7FDA6F13BE9E18586234F.png" width="484.00" height="412.00" transform="matrix(1.00, 0.00, -0.00, -1.00, 270.0, 466.0)"></image><text xml:space="preserve" font-family="Helvetica-Light" font-size="36.0" fill="#FEFFFF" transform="matrix(1.00, 0.00, -0.00, -1.00, 229.0, 519.0)">h</text><text xml:space="preserve" font-family="Helvetica-Light" font-size="36.0" fill="#FEFFFF" transform="matrix(1.00, 0.00, -0.00, -1.00, 249.0, 519.0)">t</text><text xml:space="preserve" font-family="Helvetica-Light" font-size="36.0" fill="#FEFFFF" transform="matrix(1.00, 0.00, -0.00, -1.00, 259.0, 519.0)">t</text><text xml:space="preserve" font-family="Helvetica-Light" font-size="36.0" fill="#FEFFFF" transform="matrix(1.00, 0.00, -0.00, -1.00, 269.0, 519.0)">p</text><text xml:space="preserve" font-family="Helvetica-Light" font-size="36.0" fill="#FEFFFF" transform="matrix(1.00, 0.00, -0.00, -1.00, 291.0, 519.0)">:</text><text xml:space="preserve" font-family="Helvetica-Light" font-size="36.0" fill="#FEFFFF" transform="matrix(1.00, 0.00, -0.00, -1.00, 301.0, 519.0)">/</text><text xml:space="preserve" font-family="Helvetica-Light" font-size="36.0" fill="#FEFFFF" transform="matrix(1.00, 0.00, -0.00, -1.00, 311.0, 519.0)">/</text><text xml:space="preserve" font-family="Helvetica-Light" font-size="36.0" fill="#FEFFFF" transform="matrix(1.00, 0.00, -0.00, -1.00, 321.1, 519.0)">r</text><text xml:space="preserve" font-family="Helvetica-Light" font-size="36.0" fill="#FEFFFF" transform="matrix(1.00, 0.00, -0.00, -1.00, 333.7, 519.0)">y</text><text xml:space="preserve" font-family="Helvetica-Light" font-size="36.0" fill="#FEFFFF" transform="matrix(1.00, 0.00, -0.00, -1.00, 351.7, 519.0)">a</text><text xml:space="preserve" font-family="Helvetica-Light" font-size="36.0" fill="#FEFFFF" transform="matrix(1.00, 0.00, -0.00, -1.00, 371.7, 519.0)">n</text><text xml:space="preserve" font-family="Helvetica-Light" font-size="36.0" fill="#FEFFFF" transform="matrix(1.00, 0.00, -0.00, -1.00, 391.7, 519.0)">f</text><text xml:space="preserve" font-family="Helvetica-Light" font-size="36.0" fill="#FEFFFF" transform="matrix(1.00, 0.00, -0.00, -1.00, 401.7, 519.0)">b</text><text xml:space="preserve" font-family="Helvetica-Light" font-size="36.0" fill="#FEFFFF" transform="matrix(1.00, 0.00, -0.00, -1.00, 423.7, 519.0)">.</text><text xml:space="preserve" font-family="Helvetica-Light" font-size="36.0" fill="#FEFFFF" transform="matrix(1.00, 0.00, -0.00, -1.00, 433.7, 519.0)">g</text><text xml:space="preserve" font-family="Helvetica-Light" font-size="36.0" fill="#FEFFFF" transform="matrix(1.00, 0.00, -0.00, -1.00, 455.7, 519.0)">i</text><text xml:space="preserve" font-family="Helvetica-Light" font-size="36.0" fill="#FEFFFF" transform="matrix(1.00, 0.00, -0.00, -1.00, 463.7, 519.0)">t</text><text xml:space="preserve" font-family="Helvetica-Light" font-size="36.0" fill="#FEFFFF" transform="matrix(1.00, 0.00, -0.00, -1.00, 473.7, 519.0)">h</text><text xml:space="preserve" font-family="Helvetica-Light" font-size="36.0" fill="#FEFFFF" transform="matrix(1.00, 0.00, -0.00, -1.00, 493.7, 519.0)">u</text><text xml:space="preserve" font-family="Helvetica-Light" font-size="36.0" fill="#FEFFFF" transform="matrix(1.00, 0.00, -0.00, -1.00, 513.8, 519.0)">b</text><text xml:space="preserve" font-family="Helvetica-Light" font-size="36.0" fill="#FEFFFF" transform="matrix(1.00, 0.00, -0.00, -1.00, 535.8, 519.0)">.</text><text xml:space="preserve" font-family="Helvetica-Light" font-size="36.0" fill="#FEFFFF" transform="matrix(1.00, 0.00, -0.00, -1.00, 545.8, 519.0)">i</text><text xml:space="preserve" font-family="Helvetica-Light" font-size="36.0" fill="#FEFFFF" transform="matrix(1.00, 0.00, -0.00, -1.00, 553.8, 519.0)">o</text><text xml:space="preserve" font-family="Helvetica-Light" font-size="36.0" fill="#FEFFFF" transform="matrix(1.00, 0.00, -0.00, -1.00, 573.8, 519.0)">/</text><text xml:space="preserve" font-family="Helvetica-Light" font-size="36.0" fill="#FEFFFF" transform="matrix(1.00, 0.00, -0.00, -1.00, 583.8, 519.0)">b</text><text xml:space="preserve" font-family="Helvetica-Light" font-size="36.0" fill="#FEFFFF" transform="matrix(1.00, 0.00, -0.00, -1.00, 605.8, 519.0)">o</text><text xml:space="preserve" font-family="Helvetica-Light" font-size="36.0" fill="#FEFFFF" transform="matrix(1.00, 0.00, -0.00, -1.00, 625.8, 519.0)">o</text><text xml:space="preserve" font-family="Helvetica-Light" font-size="36.0" fill="#FEFFFF" transform="matrix(1.00, 0.00, -0.00, -1.00, 645.8, 519.0)">k</text><text xml:space="preserve" font-family="Helvetica-Light" font-size="36.0" fill="#FEFFFF" transform="matrix(1.00, 0.00, -0.00, -1.00, 663.8, 519.0)">-</text><text xml:space="preserve" font-family="Helvetica-Light" font-size="36.0" fill="#FEFFFF" transform="matrix(1.00, 0.00, -0.00, -1.00, 675.8, 519.0)">a</text><text xml:space="preserve" font-family="Helvetica-Light" font-size="36.0" fill="#FEFFFF" transform="matrix(1.00, 0.00, -0.00, -1.00, 695.8, 519.0)">l</text><text xml:space="preserve" font-family="Helvetica-Light" font-size="36.0" fill="#FEFFFF" transform="matrix(1.00, 0.00, -0.00, -1.00, 703.8, 519.0)">i</text><text xml:space="preserve" font-family="Helvetica-Light" font-size="36.0" fill="#FEFFFF" transform="matrix(1.00, 0.00, -0.00, -1.00, 711.8, 519.0)">g</text><text xml:space="preserve" font-family="Helvetica-Light" font-size="36.0" fill="#FEFFFF" transform="matrix(1.00, 0.00, -0.00, -1.00, 733.8, 519.0)">n</text><text xml:space="preserve" font-family="Helvetica-Light" font-size="36.0" fill="#FEFFFF" transform="matrix(1.00, 0.00, -0.00, -1.00, 753.8, 519.0)">e</text><text xml:space="preserve" font-family="Helvetica-Light" font-size="36.0" fill="#FEFFFF" transform="matrix(1.00, 0.00, -0.00, -1.00, 773.8, 519.0)">r</text><text xml:space="preserve" font-family="Helvetica-Light" font-size="36.0" fill="#FEFFFF" transform="matrix(1.00, 0.00, -0.00, -1.00, 785.8, 519.0)">/</text><g><clipPath id="clip-36"><path d="M 227.6 514.1 L 795.4 514.1 L 795.4 517.9 L 227.6 517.9 Z M 227.6 514.1 "></path></clipPath><g clip-path="url(#clip-36)"><path d="M 4.5 41.4 L 571.3 41.4 " fill="none" stroke="#FEFFFF" stroke-width="1.80" stroke-miterlimit="0.00" transform="matrix(1.00, 0.00, 0.00, -1.00, 224.1, 557.4)"></path></g></g></g></svg>