<?xml version="1.0" encoding="UTF-8" standalone="no"?><svg xmlns="http://www.w3.org/2000/svg" xmlns:xlink="http://www.w3.org/1999/xlink" clip-rule="evenodd" stroke-miterlimit="4.00" viewBox="0 0 1024 768"><desc>SVG generated by Keynote</desc><defs></defs><g transform="matrix(1.00, 0.00, -0.00, -1.00, 0.0, 768.0)"><path d="M 0.0 768.0 L 1024.0 768.0 L 1024.0 0.0 L 0.0 0.0 Z M 0.0 768.0 " fill="#000000"></path><text xml:space="preserve" font-family="Helvetica-Light" font-size="80.0" fill="#FEFFFF" transform="matrix(1.00, 0.00, -0.00, -1.00, 236.0, 633.0)">“</text><text xml:space="preserve" font-family="Helvetica-Light" font-size="80.0" fill="#FEFFFF" transform="matrix(1.00, 0.00, -0.00, -1.00, 267.1, 633.0)">N</text><text xml:space="preserve" font-family="Helvetica-Light" font-size="80.0" fill="#FEFFFF" transform="matrix(1.00, 0.00, -0.00, -1.00, 324.9, 633.0)">o</text><text xml:space="preserve" font-family="Helvetica-Light" font-size="80.0" fill="#FEFFFF" transform="matrix(1.00, 0.00, -0.00, -1.00, 369.4, 633.0)">r</text><text xml:space="preserve" font-family="Helvetica-Light" font-size="80.0" fill="#FEFFFF" transform="matrix(1.00, 0.00, -0.00, -1.00, 397.4, 633.0)">m</text><text xml:space="preserve" font-family="Helvetica-Light" font-size="80.0" fill="#FEFFFF" transform="matrix(1.00, 0.00, -0.00, -1.00, 464.1, 633.0)">a</text><text xml:space="preserve" font-family="Helvetica-Light" font-size="80.0" fill="#FEFFFF" transform="matrix(1.00, 0.00, -0.00, -1.00, 508.6, 633.0)">l</text><text xml:space="preserve" font-family="Helvetica-Light" font-size="80.0" fill="#FEFFFF" transform="matrix(1.00, 0.00, -0.00, -1.00, 526.3, 633.0)">i</text><text xml:space="preserve" font-family="Helvetica-Light" font-size="80.0" fill="#FEFFFF" transform="matrix(1.00, 0.00, -0.00, -1.00, 544.1, 633.0)">z</text><text xml:space="preserve" font-family="Helvetica-Light" font-size="80.0" fill="#FEFFFF" transform="matrix(1.00, 0.00, -0.00, -1.00, 584.1, 633.0)">a</text><text xml:space="preserve" font-family="Helvetica-Light" font-size="80.0" fill="#FEFFFF" transform="matrix(1.00, 0.00, -0.00, -1.00, 628.6, 633.0)">t</text><text xml:space="preserve" font-family="Helvetica-Light" font-size="80.0" fill="#FEFFFF" transform="matrix(1.00, 0.00, -0.00, -1.00, 650.8, 633.0)">i</text><text xml:space="preserve" font-family="Helvetica-Light" font-size="80.0" fill="#FEFFFF" transform="matrix(1.00, 0.00, -0.00, -1.00, 668.6, 633.0)">o</text><text xml:space="preserve" font-family="Helvetica-Light" font-size="80.0" fill="#FEFFFF" transform="matrix(1.00, 0.00, -0.00, -1.00, 713.0, 633.0)">n</text><text xml:space="preserve" font-family="Helvetica-Light" font-size="80.0" fill="#FEFFFF" transform="matrix(1.00, 0.00, -0.00, -1.00, 757.5, 633.0)">”</text><text xml:space="preserve" font-family="Helvetica-Light" font-size="25.4" fill="#FEFFFF" transform="matrix(1.00, 0.00, -0.00, -1.00, 79.0, 511.8)">•</text><text xml:space="preserve" font-family="Helvetica-Light" font-size="33.8" fill="#FEFFFF" transform="matrix(1.00, 0.00, -0.00, -1.00, 110.0, 509.0)">P</text><text xml:space="preserve" font-family="Helvetica-Light" font-size="33.8" fill="#FEFFFF" transform="matrix(1.00, 0.00, -0.00, -1.00, 130.7, 509.0)">e</text><text xml:space="preserve" font-family="Helvetica-Light" font-size="33.8" fill="#FEFFFF" transform="matrix(1.00, 0.00, -0.00, -1.00, 149.5, 509.0)">r</text><text xml:space="preserve" font-family="Helvetica-Light" font-size="33.8" fill="#FEFFFF" transform="matrix(1.00, 0.00, -0.00, -1.00, 161.3, 509.0)">f</text><text xml:space="preserve" font-family="Helvetica-Light" font-size="33.8" fill="#FEFFFF" transform="matrix(1.00, 0.00, -0.00, -1.00, 170.7, 509.0)">o</text><text xml:space="preserve" font-family="Helvetica-Light" font-size="33.8" fill="#FEFFFF" transform="matrix(1.00, 0.00, -0.00, -1.00, 189.5, 509.0)">r</text><text xml:space="preserve" font-family="Helvetica-Light" font-size="33.8" fill="#FEFFFF" transform="matrix(1.00, 0.00, -0.00, -1.00, 201.4, 509.0)">m</text><text xml:space="preserve" font-family="Helvetica-Light" font-size="33.8" fill="#FEFFFF" transform="matrix(1.00, 0.00, -0.00, -1.00, 229.6, 509.0)"> </text><text xml:space="preserve" font-family="Helvetica-Light" font-size="33.8" fill="#FEFFFF" transform="matrix(1.00, 0.00, -0.00, -1.00, 239.0, 509.0)">a</text><text xml:space="preserve" font-family="Helvetica-Light" font-size="33.8" fill="#FEFFFF" transform="matrix(1.00, 0.00, -0.00, -1.00, 257.8, 509.0)"> </text><text xml:space="preserve" font-family="Helvetica-Light" font-size="33.8" fill="#FEFFFF" transform="matrix(1.00, 0.00, -0.00, -1.00, 267.2, 509.0)">n</text><text xml:space="preserve" font-family="Helvetica-Light" font-size="33.8" fill="#FEFFFF" transform="matrix(1.00, 0.00, -0.00, -1.00, 286.0, 509.0)">o</text><text xml:space="preserve" font-family="Helvetica-Light" font-size="33.8" fill="#FEFFFF" transform="matrix(1.00, 0.00, -0.00, -1.00, 304.8, 509.0)">r</text><text xml:space="preserve" font-family="Helvetica-Light" font-size="33.8" fill="#FEFFFF" transform="matrix(1.00, 0.00, -0.00, -1.00, 316.7, 509.0)">m</text><text xml:space="preserve" font-family="Helvetica-Light" font-size="33.8" fill="#FEFFFF" transform="matrix(1.00, 0.00, -0.00, -1.00, 344.8, 509.0)">a</text><text xml:space="preserve" font-family="Helvetica-Light" font-size="33.8" fill="#FEFFFF" transform="matrix(1.00, 0.00, -0.00, -1.00, 363.7, 509.0)">l</text><text xml:space="preserve" font-family="Helvetica-Light" font-size="33.8" fill="#FEFFFF" transform="matrix(1.00, 0.00, -0.00, -1.00, 371.2, 509.0)">i</text><text xml:space="preserve" font-family="Helvetica-Light" font-size="33.8" fill="#FEFFFF" transform="matrix(1.00, 0.00, -0.00, -1.00, 378.7, 509.0)">z</text><text xml:space="preserve" font-family="Helvetica-Light" font-size="33.8" fill="#FEFFFF" transform="matrix(1.00, 0.00, -0.00, -1.00, 395.6, 509.0)">a</text><text xml:space="preserve" font-family="Helvetica-Light" font-size="33.8" fill="#FEFFFF" transform="matrix(1.00, 0.00, -0.00, -1.00, 414.4, 509.0)">t</text><text xml:space="preserve" font-family="Helvetica-Light" font-size="33.8" fill="#FEFFFF" transform="matrix(1.00, 0.00, -0.00, -1.00, 423.8, 509.0)">i</text><text xml:space="preserve" font-family="Helvetica-Light" font-size="33.8" fill="#FEFFFF" transform="matrix(1.00, 0.00, -0.00, -1.00, 431.3, 509.0)">o</text><text xml:space="preserve" font-family="Helvetica-Light" font-size="33.8" fill="#FEFFFF" transform="matrix(1.00, 0.00, -0.00, -1.00, 450.1, 509.0)">n</text><text xml:space="preserve" font-family="Helvetica-Light" font-size="33.8" fill="#FEFFFF" transform="matrix(1.00, 0.00, -0.00, -1.00, 468.9, 509.0)"> </text><text xml:space="preserve" font-family="Helvetica-Light" font-size="33.8" fill="#FEFFFF" transform="matrix(1.00, 0.00, -0.00, -1.00, 478.3, 509.0)">s</text><text xml:space="preserve" font-family="Helvetica-Light" font-size="33.8" fill="#FEFFFF" transform="matrix(1.00, 0.00, -0.00, -1.00, 495.2, 509.0)">t</text><text xml:space="preserve" font-family="Helvetica-Light" font-size="33.8" fill="#FEFFFF" transform="matrix(1.00, 0.00, -0.00, -1.00, 504.6, 509.0)">e</text><text xml:space="preserve" font-family="Helvetica-Light" font-size="33.8" fill="#FEFFFF" transform="matrix(1.00, 0.00, -0.00, -1.00, 523.4, 509.0)">p</text><text xml:space="preserve" font-family="Helvetica-Light" font-size="33.8" fill="#FEFFFF" transform="matrix(1.00, 0.00, -0.00, -1.00, 544.1, 509.0)"> </text><text xml:space="preserve" font-family="Helvetica-Light" font-size="33.8" fill="#FEFFFF" transform="matrix(1.00, 0.00, -0.00, -1.00, 553.5, 509.0)">o</text><text xml:space="preserve" font-family="Helvetica-Light" font-size="33.8" fill="#FEFFFF" transform="matrix(1.00, 0.00, -0.00, -1.00, 572.3, 509.0)">n</text><text xml:space="preserve" font-family="Helvetica-Light" font-size="33.8" fill="#FEFFFF" transform="matrix(1.00, 0.00, -0.00, -1.00, 591.1, 509.0)"> </text><text xml:space="preserve" font-family="Helvetica-Light" font-size="33.8" fill="#FEFFFF" transform="matrix(1.00, 0.00, -0.00, -1.00, 600.5, 509.0)">n</text><text xml:space="preserve" font-family="Helvetica-Light" font-size="33.8" fill="#FEFFFF" transform="matrix(1.00, 0.00, -0.00, -1.00, 619.3, 509.0)">a</text><text xml:space="preserve" font-family="Helvetica-Light" font-size="33.8" fill="#FEFFFF" transform="matrix(1.00, 0.00, -0.00, -1.00, 638.1, 509.0)">m</text><text xml:space="preserve" font-family="Helvetica-Light" font-size="33.8" fill="#FEFFFF" transform="matrix(1.00, 0.00, -0.00, -1.00, 666.3, 509.0)">e</text><text xml:space="preserve" font-family="Helvetica-Light" font-size="33.8" fill="#FEFFFF" transform="matrix(1.00, 0.00, -0.00, -1.00, 685.1, 509.0)"> </text><text xml:space="preserve" font-family="Helvetica-Light" font-size="33.8" fill="#FEFFFF" transform="matrix(1.00, 0.00, -0.00, -1.00, 694.5, 509.0)">s</text><text xml:space="preserve" font-family="Helvetica-Light" font-size="33.8" fill="#FEFFFF" transform="matrix(1.00, 0.00, -0.00, -1.00, 711.4, 509.0)">t</text><text xml:space="preserve" font-family="Helvetica-Light" font-size="33.8" fill="#FEFFFF" transform="matrix(1.00, 0.00, -0.00, -1.00, 720.8, 509.0)">r</text><text xml:space="preserve" font-family="Helvetica-Light" font-size="33.8" fill="#FEFFFF" transform="matrix(1.00, 0.00, -0.00, -1.00, 732.1, 509.0)">i</text><text xml:space="preserve" font-family="Helvetica-Light" font-size="33.8" fill="#FEFFFF" transform="matrix(1.00, 0.00, -0.00, -1.00, 739.6, 509.0)">n</text><text xml:space="preserve" font-family="Helvetica-Light" font-size="33.8" fill="#FEFFFF" transform="matrix(1.00, 0.00, -0.00, -1.00, 758.4, 509.0)">g</text><text xml:space="preserve" font-family="Helvetica-Light" font-size="33.8" fill="#FEFFFF" transform="matrix(1.00, 0.00, -0.00, -1.00, 779.0, 509.0)">s</text><text xml:space="preserve" font-family="Helvetica-Light" font-size="33.8" fill="#FEFFFF" transform="matrix(1.00, 0.00, -0.00, -1.00, 795.9, 509.0)"> </text><text xml:space="preserve" font-family="Helvetica-Light" font-size="33.8" fill="#FEFFFF" transform="matrix(1.00, 0.00, -0.00, -1.00, 805.3, 509.0)">b</text><text xml:space="preserve" font-family="Helvetica-Light" font-size="33.8" fill="#FEFFFF" transform="matrix(1.00, 0.00, -0.00, -1.00, 826.0, 509.0)">e</text><text xml:space="preserve" font-family="Helvetica-Light" font-size="33.8" fill="#FEFFFF" transform="matrix(1.00, 0.00, -0.00, -1.00, 844.8, 509.0)">f</text><text xml:space="preserve" font-family="Helvetica-Light" font-size="33.8" fill="#FEFFFF" transform="matrix(1.00, 0.00, -0.00, -1.00, 854.2, 509.0)">o</text><text xml:space="preserve" font-family="Helvetica-Light" font-size="33.8" fill="#FEFFFF" transform="matrix(1.00, 0.00, -0.00, -1.00, 873.0, 509.0)">r</text><text xml:space="preserve" font-family="Helvetica-Light" font-size="33.8" fill="#FEFFFF" transform="matrix(1.00, 0.00, -0.00, -1.00, 883.7, 509.0)">e</text><text xml:space="preserve" font-family="Helvetica-Light" font-size="33.8" fill="#FEFFFF" transform="matrix(1.00, 0.00, -0.00, -1.00, 902.5, 509.0)"> </text><text xml:space="preserve" font-family="Helvetica-Light" font-size="33.8" fill="#FEFFFF" transform="matrix(1.00, 0.00, -0.00, -1.00, 110.0, 468.0)">m</text><text xml:space="preserve" font-family="Helvetica-Light" font-size="33.8" fill="#FEFFFF" transform="matrix(1.00, 0.00, -0.00, -1.00, 138.2, 468.0)">a</text><text xml:space="preserve" font-family="Helvetica-Light" font-size="33.8" fill="#FEFFFF" transform="matrix(1.00, 0.00, -0.00, -1.00, 157.0, 468.0)">t</text><text xml:space="preserve" font-family="Helvetica-Light" font-size="33.8" fill="#FEFFFF" transform="matrix(1.00, 0.00, -0.00, -1.00, 166.4, 468.0)">c</text><text xml:space="preserve" font-family="Helvetica-Light" font-size="33.8" fill="#FEFFFF" transform="matrix(1.00, 0.00, -0.00, -1.00, 185.2, 468.0)">h</text><text xml:space="preserve" font-family="Helvetica-Light" font-size="33.8" fill="#FEFFFF" transform="matrix(1.00, 0.00, -0.00, -1.00, 204.0, 468.0)">i</text><text xml:space="preserve" font-family="Helvetica-Light" font-size="33.8" fill="#FEFFFF" transform="matrix(1.00, 0.00, -0.00, -1.00, 211.5, 468.0)">n</text><text xml:space="preserve" font-family="Helvetica-Light" font-size="33.8" fill="#FEFFFF" transform="matrix(1.00, 0.00, -0.00, -1.00, 230.3, 468.0)">g</text><text xml:space="preserve" font-family="Helvetica-Light" font-size="33.8" fill="#FEFFFF" transform="matrix(1.00, 0.00, -0.00, -1.00, 251.0, 468.0)"> </text><text xml:space="preserve" font-family="Helvetica-Light" font-size="25.4" fill="#FEFFFF" transform="matrix(1.00, 0.00, -0.00, -1.00, 79.0, 392.5)">•</text><text xml:space="preserve" font-family="Helvetica-LightOblique" font-style="italic" font-size="33.8" fill="#FEFFFF" transform="matrix(1.00, 0.00, -0.00, -1.00, 110.0, 389.0)">C</text><text xml:space="preserve" font-family="Helvetica-LightOblique" font-style="italic" font-size="33.8" fill="#FEFFFF" transform="matrix(1.00, 0.00, -0.00, -1.00, 134.4, 389.0)">o</text><text xml:space="preserve" font-family="Helvetica-LightOblique" font-style="italic" font-size="33.8" fill="#FEFFFF" transform="matrix(1.00, 0.00, -0.00, -1.00, 153.2, 389.0)">u</text><text xml:space="preserve" font-family="Helvetica-LightOblique" font-style="italic" font-size="33.8" fill="#FEFFFF" transform="matrix(1.00, 0.00, -0.00, -1.00, 172.0, 389.0)">l</text><text xml:space="preserve" font-family="Helvetica-LightOblique" font-style="italic" font-size="33.8" fill="#FEFFFF" transform="matrix(1.00, 0.00, -0.00, -1.00, 179.5, 389.0)">d</text><text xml:space="preserve" font-family="Helvetica-LightOblique" font-style="italic" font-size="33.8" fill="#FEFFFF" transform="matrix(1.00, 0.00, -0.00, -1.00, 200.2, 389.0)"> </text><text xml:space="preserve" font-family="Helvetica-Light" font-size="33.8" fill="#FEFFFF" transform="matrix(1.00, 0.00, -0.00, -1.00, 209.6, 389.0)">w</text><text xml:space="preserve" font-family="Helvetica-Light" font-size="33.8" fill="#FEFFFF" transform="matrix(1.00, 0.00, -0.00, -1.00, 234.0, 389.0)">r</text><text xml:space="preserve" font-family="Helvetica-Light" font-size="33.8" fill="#FEFFFF" transform="matrix(1.00, 0.00, -0.00, -1.00, 245.3, 389.0)">i</text><text xml:space="preserve" font-family="Helvetica-Light" font-size="33.8" fill="#FEFFFF" transform="matrix(1.00, 0.00, -0.00, -1.00, 252.8, 389.0)">t</text><text xml:space="preserve" font-family="Helvetica-Light" font-size="33.8" fill="#FEFFFF" transform="matrix(1.00, 0.00, -0.00, -1.00, 262.2, 389.0)">e</text><text xml:space="preserve" font-family="Helvetica-Light" font-size="33.8" fill="#FEFFFF" transform="matrix(1.00, 0.00, -0.00, -1.00, 281.0, 389.0)"> </text><text xml:space="preserve" font-family="Helvetica-Light" font-size="33.8" fill="#FEFFFF" transform="matrix(1.00, 0.00, -0.00, -1.00, 290.4, 389.0)">s</text><text xml:space="preserve" font-family="Helvetica-Light" font-size="33.8" fill="#FEFFFF" transform="matrix(1.00, 0.00, -0.00, -1.00, 307.3, 389.0)">o</text><text xml:space="preserve" font-family="Helvetica-Light" font-size="33.8" fill="#FEFFFF" transform="matrix(1.00, 0.00, -0.00, -1.00, 326.1, 389.0)">m</text><text xml:space="preserve" font-family="Helvetica-Light" font-size="33.8" fill="#FEFFFF" transform="matrix(1.00, 0.00, -0.00, -1.00, 354.3, 389.0)">e</text><text xml:space="preserve" font-family="Helvetica-Light" font-size="33.8" fill="#FEFFFF" transform="matrix(1.00, 0.00, -0.00, -1.00, 373.1, 389.0)"> </text><text xml:space="preserve" font-family="Helvetica-Light" font-size="33.8" fill="#FEFFFF" transform="matrix(1.00, 0.00, -0.00, -1.00, 382.5, 389.0)">m</text><text xml:space="preserve" font-family="Helvetica-Light" font-size="33.8" fill="#FEFFFF" transform="matrix(1.00, 0.00, -0.00, -1.00, 410.7, 389.0)">a</text><text xml:space="preserve" font-family="Helvetica-Light" font-size="33.8" fill="#FEFFFF" transform="matrix(1.00, 0.00, -0.00, -1.00, 429.5, 389.0)">n</text><text xml:space="preserve" font-family="Helvetica-Light" font-size="33.8" fill="#FEFFFF" transform="matrix(1.00, 0.00, -0.00, -1.00, 448.3, 389.0)">u</text><text xml:space="preserve" font-family="Helvetica-Light" font-size="33.8" fill="#FEFFFF" transform="matrix(1.00, 0.00, -0.00, -1.00, 467.1, 389.0)">a</text><text xml:space="preserve" font-family="Helvetica-Light" font-size="33.8" fill="#FEFFFF" transform="matrix(1.00, 0.00, -0.00, -1.00, 485.9, 389.0)">l</text><text xml:space="preserve" font-family="Helvetica-Light" font-size="33.8" fill="#FEFFFF" transform="matrix(1.00, 0.00, -0.00, -1.00, 493.4, 389.0)"> </text><text xml:space="preserve" font-family="Helvetica-Light" font-size="33.8" fill="#FEFFFF" transform="matrix(1.00, 0.00, -0.00, -1.00, 502.8, 389.0)">r</text><text xml:space="preserve" font-family="Helvetica-Light" font-size="33.8" fill="#FEFFFF" transform="matrix(1.00, 0.00, -0.00, -1.00, 514.0, 389.0)">u</text><text xml:space="preserve" font-family="Helvetica-Light" font-size="33.8" fill="#FEFFFF" transform="matrix(1.00, 0.00, -0.00, -1.00, 532.9, 389.0)">l</text><text xml:space="preserve" font-family="Helvetica-Light" font-size="33.8" fill="#FEFFFF" transform="matrix(1.00, 0.00, -0.00, -1.00, 540.4, 389.0)">e</text><text xml:space="preserve" font-family="Helvetica-Light" font-size="33.8" fill="#FEFFFF" transform="matrix(1.00, 0.00, -0.00, -1.00, 559.2, 389.0)"> </text><text xml:space="preserve" font-family="Helvetica-Light" font-size="33.8" fill="#FEFFFF" transform="matrix(1.00, 0.00, -0.00, -1.00, 568.6, 389.0)">o</text><text xml:space="preserve" font-family="Helvetica-Light" font-size="33.8" fill="#FEFFFF" transform="matrix(1.00, 0.00, -0.00, -1.00, 587.4, 389.0)">r</text><text xml:space="preserve" font-family="Helvetica-Light" font-size="33.8" fill="#FEFFFF" transform="matrix(1.00, 0.00, -0.00, -1.00, 598.6, 389.0)"> </text><text xml:space="preserve" font-family="Helvetica-Light" font-size="33.8" fill="#FEFFFF" transform="matrix(1.00, 0.00, -0.00, -1.00, 608.0, 389.0)">t</text><text xml:space="preserve" font-family="Helvetica-Light" font-size="33.8" fill="#FEFFFF" transform="matrix(1.00, 0.00, -0.00, -1.00, 617.4, 389.0)">r</text><text xml:space="preserve" font-family="Helvetica-Light" font-size="33.8" fill="#FEFFFF" transform="matrix(1.00, 0.00, -0.00, -1.00, 628.7, 389.0)">a</text><text xml:space="preserve" font-family="Helvetica-Light" font-size="33.8" fill="#FEFFFF" transform="matrix(1.00, 0.00, -0.00, -1.00, 647.5, 389.0)">n</text><text xml:space="preserve" font-family="Helvetica-Light" font-size="33.8" fill="#FEFFFF" transform="matrix(1.00, 0.00, -0.00, -1.00, 666.3, 389.0)">s</text><text xml:space="preserve" font-family="Helvetica-Light" font-size="33.8" fill="#FEFFFF" transform="matrix(1.00, 0.00, -0.00, -1.00, 683.2, 389.0)">l</text><text xml:space="preserve" font-family="Helvetica-Light" font-size="33.8" fill="#FEFFFF" transform="matrix(1.00, 0.00, -0.00, -1.00, 690.7, 389.0)">i</text><text xml:space="preserve" font-family="Helvetica-Light" font-size="33.8" fill="#FEFFFF" transform="matrix(1.00, 0.00, -0.00, -1.00, 698.2, 389.0)">t</text><text xml:space="preserve" font-family="Helvetica-Light" font-size="33.8" fill="#FEFFFF" transform="matrix(1.00, 0.00, -0.00, -1.00, 707.6, 389.0)">e</text><text xml:space="preserve" font-family="Helvetica-Light" font-size="33.8" fill="#FEFFFF" transform="matrix(1.00, 0.00, -0.00, -1.00, 726.4, 389.0)">r</text><text xml:space="preserve" font-family="Helvetica-Light" font-size="33.8" fill="#FEFFFF" transform="matrix(1.00, 0.00, -0.00, -1.00, 737.7, 389.0)">a</text><text xml:space="preserve" font-family="Helvetica-Light" font-size="33.8" fill="#FEFFFF" transform="matrix(1.00, 0.00, -0.00, -1.00, 756.5, 389.0)">t</text><text xml:space="preserve" font-family="Helvetica-Light" font-size="33.8" fill="#FEFFFF" transform="matrix(1.00, 0.00, -0.00, -1.00, 765.9, 389.0)">i</text><text xml:space="preserve" font-family="Helvetica-Light" font-size="33.8" fill="#FEFFFF" transform="matrix(1.00, 0.00, -0.00, -1.00, 773.4, 389.0)">o</text><text xml:space="preserve" font-family="Helvetica-Light" font-size="33.8" fill="#FEFFFF" transform="matrix(1.00, 0.00, -0.00, -1.00, 792.2, 389.0)">n</text><text xml:space="preserve" font-family="Helvetica-Light" font-size="33.8" fill="#FEFFFF" transform="matrix(1.00, 0.00, -0.00, -1.00, 811.0, 389.0)"> </text><text xml:space="preserve" font-family="Helvetica-Light" font-size="33.8" fill="#FEFFFF" transform="matrix(1.00, 0.00, -0.00, -1.00, 820.4, 389.0)">p</text><text xml:space="preserve" font-family="Helvetica-Light" font-size="33.8" fill="#FEFFFF" transform="matrix(1.00, 0.00, -0.00, -1.00, 841.1, 389.0)">r</text><text xml:space="preserve" font-family="Helvetica-Light" font-size="33.8" fill="#FEFFFF" transform="matrix(1.00, 0.00, -0.00, -1.00, 851.7, 389.0)">o</text><text xml:space="preserve" font-family="Helvetica-Light" font-size="33.8" fill="#FEFFFF" transform="matrix(1.00, 0.00, -0.00, -1.00, 870.5, 389.0)">c</text><text xml:space="preserve" font-family="Helvetica-Light" font-size="33.8" fill="#FEFFFF" transform="matrix(1.00, 0.00, -0.00, -1.00, 889.3, 389.0)">e</text><text xml:space="preserve" font-family="Helvetica-Light" font-size="33.8" fill="#FEFFFF" transform="matrix(1.00, 0.00, -0.00, -1.00, 908.2, 389.0)">s</text><text xml:space="preserve" font-family="Helvetica-Light" font-size="33.8" fill="#FEFFFF" transform="matrix(1.00, 0.00, -0.00, -1.00, 925.1, 389.0)">s</text><text xml:space="preserve" font-family="Helvetica-Light" font-size="33.8" fill="#FEFFFF" transform="matrix(1.00, 0.00, -0.00, -1.00, 942.0, 389.0)"> </text><text xml:space="preserve" font-family="Helvetica-Light" font-size="33.8" fill="#FEFFFF" transform="matrix(1.00, 0.00, -0.00, -1.00, 110.0, 348.0)">t</text><text xml:space="preserve" font-family="Helvetica-Light" font-size="33.8" fill="#FEFFFF" transform="matrix(1.00, 0.00, -0.00, -1.00, 119.4, 348.0)">h</text><text xml:space="preserve" font-family="Helvetica-Light" font-size="33.8" fill="#FEFFFF" transform="matrix(1.00, 0.00, -0.00, -1.00, 138.2, 348.0)">a</text><text xml:space="preserve" font-family="Helvetica-Light" font-size="33.8" fill="#FEFFFF" transform="matrix(1.00, 0.00, -0.00, -1.00, 157.0, 348.0)">t</text><text xml:space="preserve" font-family="Helvetica-Light" font-size="33.8" fill="#FEFFFF" transform="matrix(1.00, 0.00, -0.00, -1.00, 166.4, 348.0)"> </text><text xml:space="preserve" font-family="Helvetica-Light" font-size="33.8" fill="#FEFFFF" transform="matrix(1.00, 0.00, -0.00, -1.00, 175.8, 348.0)">t</text><text xml:space="preserve" font-family="Helvetica-Light" font-size="33.8" fill="#FEFFFF" transform="matrix(1.00, 0.00, -0.00, -1.00, 185.2, 348.0)">r</text><text xml:space="preserve" font-family="Helvetica-Light" font-size="33.8" fill="#FEFFFF" transform="matrix(1.00, 0.00, -0.00, -1.00, 196.5, 348.0)">a</text><text xml:space="preserve" font-family="Helvetica-Light" font-size="33.8" fill="#FEFFFF" transform="matrix(1.00, 0.00, -0.00, -1.00, 215.3, 348.0)">n</text><text xml:space="preserve" font-family="Helvetica-Light" font-size="33.8" fill="#FEFFFF" transform="matrix(1.00, 0.00, -0.00, -1.00, 234.1, 348.0)">s</text><text xml:space="preserve" font-family="Helvetica-Light" font-size="33.8" fill="#FEFFFF" transform="matrix(1.00, 0.00, -0.00, -1.00, 251.0, 348.0)">f</text><text xml:space="preserve" font-family="Helvetica-Light" font-size="33.8" fill="#FEFFFF" transform="matrix(1.00, 0.00, -0.00, -1.00, 260.4, 348.0)">o</text><text xml:space="preserve" font-family="Helvetica-Light" font-size="33.8" fill="#FEFFFF" transform="matrix(1.00, 0.00, -0.00, -1.00, 279.2, 348.0)">r</text><text xml:space="preserve" font-family="Helvetica-Light" font-size="33.8" fill="#FEFFFF" transform="matrix(1.00, 0.00, -0.00, -1.00, 291.1, 348.0)">m</text><text xml:space="preserve" font-family="Helvetica-Light" font-size="33.8" fill="#FEFFFF" transform="matrix(1.00, 0.00, -0.00, -1.00, 319.2, 348.0)">s</text><text xml:space="preserve" font-family="Helvetica-Light" font-size="33.8" fill="#FEFFFF" transform="matrix(1.00, 0.00, -0.00, -1.00, 336.2, 348.0)"> </text><text xml:space="preserve" font-family="Helvetica-Light" font-size="33.8" fill="#FEFFFF" transform="matrix(1.00, 0.00, -0.00, -1.00, 345.6, 348.0)">“</text><text xml:space="preserve" font-family="Helvetica-Light" font-size="33.8" fill="#FEFFFF" transform="matrix(1.00, 0.00, -0.00, -1.00, 358.7, 348.0)">Α</text><text xml:space="preserve" font-family="Helvetica-Light" font-size="33.8" fill="#FEFFFF" transform="matrix(1.00, 0.00, -0.00, -1.00, 380.0, 348.0)">λ</text><text xml:space="preserve" font-family="Helvetica-Light" font-size="33.8" fill="#FEFFFF" transform="matrix(1.00, 0.00, -0.00, -1.00, 396.3, 348.0)">ε</text><text xml:space="preserve" font-family="Helvetica-Light" font-size="33.8" fill="#FEFFFF" transform="matrix(1.00, 0.00, -0.00, -1.00, 413.3, 348.0)">ξ</text><text xml:space="preserve" font-family="Helvetica-Light" font-size="33.8" fill="#FEFFFF" transform="matrix(1.00, 0.00, -0.00, -1.00, 428.3, 348.0)">ά</text><text xml:space="preserve" font-family="Helvetica-Light" font-size="33.8" fill="#FEFFFF" transform="matrix(1.00, 0.00, -0.00, -1.00, 448.4, 348.0)">ν</text><text xml:space="preserve" font-family="Helvetica-Light" font-size="33.8" fill="#FEFFFF" transform="matrix(1.00, 0.00, -0.00, -1.00, 464.3, 348.0)">δ</text><text xml:space="preserve" font-family="Helvetica-Light" font-size="33.8" fill="#FEFFFF" transform="matrix(1.00, 0.00, -0.00, -1.00, 483.1, 348.0)">ρ</text><text xml:space="preserve" font-family="Helvetica-Light" font-size="33.8" fill="#FEFFFF" transform="matrix(1.00, 0.00, -0.00, -1.00, 502.5, 348.0)">ε</text><text xml:space="preserve" font-family="Helvetica-Light" font-size="33.8" fill="#FEFFFF" transform="matrix(1.00, 0.00, -0.00, -1.00, 519.6, 348.0)">ι</text><text xml:space="preserve" font-family="Helvetica-Light" font-size="33.8" fill="#FEFFFF" transform="matrix(1.00, 0.00, -0.00, -1.00, 526.0, 348.0)">α</text><text xml:space="preserve" font-family="Helvetica-Light" font-size="33.8" fill="#FEFFFF" transform="matrix(1.00, 0.00, -0.00, -1.00, 546.0, 348.0)">”</text><text xml:space="preserve" font-family="Helvetica-Light" font-size="33.8" fill="#FEFFFF" transform="matrix(1.00, 0.00, -0.00, -1.00, 559.2, 348.0)"> </text><text xml:space="preserve" font-family="Helvetica-Light" font-size="33.8" fill="#FEFFFF" transform="matrix(1.00, 0.00, -0.00, -1.00, 568.6, 348.0)">t</text><text xml:space="preserve" font-family="Helvetica-Light" font-size="33.8" fill="#FEFFFF" transform="matrix(1.00, 0.00, -0.00, -1.00, 578.0, 348.0)">o</text><text xml:space="preserve" font-family="Helvetica-Light" font-size="33.8" fill="#FEFFFF" transform="matrix(1.00, 0.00, -0.00, -1.00, 596.8, 348.0)"> </text><text xml:space="preserve" font-family="Helvetica-Light" font-size="33.8" fill="#FEFFFF" transform="matrix(1.00, 0.00, -0.00, -1.00, 606.2, 348.0)">“</text><text xml:space="preserve" font-family="Helvetica-Light" font-size="33.8" fill="#FEFFFF" transform="matrix(1.00, 0.00, -0.00, -1.00, 619.3, 348.0)">A</text><text xml:space="preserve" font-family="Helvetica-Light" font-size="33.8" fill="#FEFFFF" transform="matrix(1.00, 0.00, -0.00, -1.00, 641.9, 348.0)">l</text><text xml:space="preserve" font-family="Helvetica-Light" font-size="33.8" fill="#FEFFFF" transform="matrix(1.00, 0.00, -0.00, -1.00, 649.4, 348.0)">e</text><text xml:space="preserve" font-family="Helvetica-Light" font-size="33.8" fill="#FEFFFF" transform="matrix(1.00, 0.00, -0.00, -1.00, 668.2, 348.0)">x</text><text xml:space="preserve" font-family="Helvetica-Light" font-size="33.8" fill="#FEFFFF" transform="matrix(1.00, 0.00, -0.00, -1.00, 685.1, 348.0)">a</text><text xml:space="preserve" font-family="Helvetica-Light" font-size="33.8" fill="#FEFFFF" transform="matrix(1.00, 0.00, -0.00, -1.00, 703.9, 348.0)">n</text><text xml:space="preserve" font-family="Helvetica-Light" font-size="33.8" fill="#FEFFFF" transform="matrix(1.00, 0.00, -0.00, -1.00, 722.7, 348.0)">d</text><text xml:space="preserve" font-family="Helvetica-Light" font-size="33.8" fill="#FEFFFF" transform="matrix(1.00, 0.00, -0.00, -1.00, 743.4, 348.0)">r</text><text xml:space="preserve" font-family="Helvetica-Light" font-size="33.8" fill="#FEFFFF" transform="matrix(1.00, 0.00, -0.00, -1.00, 754.0, 348.0)">e</text><text xml:space="preserve" font-family="Helvetica-Light" font-size="33.8" fill="#FEFFFF" transform="matrix(1.00, 0.00, -0.00, -1.00, 772.8, 348.0)">i</text><text xml:space="preserve" font-family="Helvetica-Light" font-size="33.8" fill="#FEFFFF" transform="matrix(1.00, 0.00, -0.00, -1.00, 780.3, 348.0)">a</text><text xml:space="preserve" font-family="Helvetica-Light" font-size="33.8" fill="#FEFFFF" transform="matrix(1.00, 0.00, -0.00, -1.00, 799.2, 348.0)">”</text><text xml:space="preserve" font-family="Helvetica-Light" font-size="33.8" fill="#FEFFFF" transform="matrix(1.00, 0.00, -0.00, -1.00, 812.3, 348.0)"> </text><text xml:space="preserve" font-family="Helvetica-Light" font-size="25.4" fill="#FEFFFF" transform="matrix(1.00, 0.00, -0.00, -1.00, 79.0, 270.3)">•</text><text xml:space="preserve" font-family="Helvetica-Light" font-size="33.8" fill="#FEFFFF" transform="matrix(1.00, 0.00, -0.00, -1.00, 110.0, 270.0)">B</text><text xml:space="preserve" font-family="Helvetica-Light" font-size="33.8" fill="#FEFFFF" transform="matrix(1.00, 0.00, -0.00, -1.00, 132.6, 270.0)">u</text><text xml:space="preserve" font-family="Helvetica-Light" font-size="33.8" fill="#FEFFFF" transform="matrix(1.00, 0.00, -0.00, -1.00, 151.4, 270.0)">t</text><text xml:space="preserve" font-family="Helvetica-Light" font-size="33.8" fill="#FEFFFF" transform="matrix(1.00, 0.00, -0.00, -1.00, 160.8, 270.0)"> </text><text xml:space="preserve" font-family="Helvetica-Light" font-size="33.8" fill="#FEFFFF" transform="matrix(1.00, 0.00, -0.00, -1.00, 170.2, 270.0)">t</text><text xml:space="preserve" font-family="Helvetica-Light" font-size="33.8" fill="#FEFFFF" transform="matrix(1.00, 0.00, -0.00, -1.00, 179.6, 270.0)">h</text><text xml:space="preserve" font-family="Helvetica-Light" font-size="33.8" fill="#FEFFFF" transform="matrix(1.00, 0.00, -0.00, -1.00, 198.4, 270.0)">e</text><text xml:space="preserve" font-family="Helvetica-Light" font-size="33.8" fill="#FEFFFF" transform="matrix(1.00, 0.00, -0.00, -1.00, 217.2, 270.0)">n</text><text xml:space="preserve" font-family="Helvetica-Light" font-size="33.8" fill="#FEFFFF" transform="matrix(1.00, 0.00, -0.00, -1.00, 236.0, 270.0)"> </text><text xml:space="preserve" font-family="Helvetica-Light" font-size="33.8" fill="#FEFFFF" transform="matrix(1.00, 0.00, -0.00, -1.00, 245.4, 270.0)">w</text><text xml:space="preserve" font-family="Helvetica-Light" font-size="33.8" fill="#FEFFFF" transform="matrix(1.00, 0.00, -0.00, -1.00, 269.8, 270.0)">h</text><text xml:space="preserve" font-family="Helvetica-Light" font-size="33.8" fill="#FEFFFF" transform="matrix(1.00, 0.00, -0.00, -1.00, 288.6, 270.0)">a</text><text xml:space="preserve" font-family="Helvetica-Light" font-size="33.8" fill="#FEFFFF" transform="matrix(1.00, 0.00, -0.00, -1.00, 307.4, 270.0)">t</text><text xml:space="preserve" font-family="Helvetica-Light" font-size="33.8" fill="#FEFFFF" transform="matrix(1.00, 0.00, -0.00, -1.00, 316.8, 270.0)"> </text><text xml:space="preserve" font-family="Helvetica-Light" font-size="33.8" fill="#FEFFFF" transform="matrix(1.00, 0.00, -0.00, -1.00, 326.2, 270.0)">a</text><text xml:space="preserve" font-family="Helvetica-Light" font-size="33.8" fill="#FEFFFF" transform="matrix(1.00, 0.00, -0.00, -1.00, 345.0, 270.0)">b</text><text xml:space="preserve" font-family="Helvetica-Light" font-size="33.8" fill="#FEFFFF" transform="matrix(1.00, 0.00, -0.00, -1.00, 365.7, 270.0)">o</text><text xml:space="preserve" font-family="Helvetica-Light" font-size="33.8" fill="#FEFFFF" transform="matrix(1.00, 0.00, -0.00, -1.00, 384.5, 270.0)">u</text><text xml:space="preserve" font-family="Helvetica-Light" font-size="33.8" fill="#FEFFFF" transform="matrix(1.00, 0.00, -0.00, -1.00, 403.3, 270.0)">t</text><text xml:space="preserve" font-family="Helvetica-Light" font-size="33.8" fill="#FEFFFF" transform="matrix(1.00, 0.00, -0.00, -1.00, 412.7, 270.0)"> </text><text xml:space="preserve" font-family="NotoSansSyriacEastern" font-size="33.8" fill="#FEFFFF" transform="matrix(1.00, 0.00, -0.00, -1.00, 422.1, 270.0)">ܪ</text><text xml:space="preserve" font-family="NotoSansSyriacEastern" font-size="33.8" fill="#FEFFFF" transform="matrix(1.00, 0.00, -0.00, -1.00, 439.7, 270.0)">ܐ</text><text xml:space="preserve" font-family="Helvetica-Light" font-size="33.8" fill="#FEFFFF" transform="matrix(1.00, 0.00, -0.00, -1.00, 566.7, 270.0)"> </text><text xml:space="preserve" font-family="Helvetica-Light" font-size="33.8" fill="#FEFFFF" transform="matrix(1.00, 0.00, -0.00, -1.00, 576.1, 270.0)">o</text><text xml:space="preserve" font-family="Helvetica-Light" font-size="33.8" fill="#FEFFFF" transform="matrix(1.00, 0.00, -0.00, -1.00, 594.9, 270.0)">r</text><text xml:space="preserve" font-family="Helvetica-Light" font-size="33.8" fill="#FEFFFF" transform="matrix(1.00, 0.00, -0.00, -1.00, 606.2, 270.0)"> </text><text xml:space="preserve" font-family="GeezaPro" font-size="33.8" fill="#FEFFFF" transform="matrix(1.00, 0.00, -0.00, -1.00, 615.6, 270.0)">ة</text><text xml:space="preserve" font-family="GeezaPro" font-size="33.8" fill="#FEFFFF" transform="matrix(1.00, 0.00, -0.00, -1.00, 627.4, 270.0)">ي</text><text xml:space="preserve" font-family="GeezaPro" font-size="33.8" fill="#FEFFFF" transform="matrix(1.00, 0.00, -0.00, -1.00, 649.1, 270.0)">ر</text><text xml:space="preserve" font-family="GeezaPro" font-size="33.8" fill="#FEFFFF" transform="matrix(1.00, 0.00, -0.00, -1.00, 662.9, 270.0)">د</text><text xml:space="preserve" font-family="GeezaPro" font-size="33.8" fill="#FEFFFF" transform="matrix(1.00, 0.00, -0.00, -1.00, 676.7, 270.0)">ن</text><text xml:space="preserve" font-family="GeezaPro" font-size="33.8" fill="#FEFFFF" transform="matrix(1.00, 0.00, -0.00, -1.00, 694.7, 270.0)">ك</text><text xml:space="preserve" font-family="GeezaPro" font-size="33.8" fill="#FEFFFF" transform="matrix(1.00, 0.00, -0.00, -1.00, 713.1, 270.0)">س</text><text xml:space="preserve" font-family="GeezaPro" font-size="33.8" fill="#FEFFFF" transform="matrix(1.00, 0.00, -0.00, -1.00, 744.0, 270.0)">ل</text><text xml:space="preserve" font-family="GeezaPro" font-size="33.8" fill="#FEFFFF" transform="matrix(1.00, 0.00, -0.00, -1.00, 760.0, 270.0)">إ</text><text xml:space="preserve" font-family="GeezaPro" font-size="33.8" fill="#FEFFFF" transform="matrix(1.00, 0.00, -0.00, -1.00, 769.9, 270.0)">ا</text><text xml:space="preserve" font-family="Helvetica-Light" font-size="33.8" fill="#FEFFFF" transform="matrix(1.00, 0.00, -0.00, -1.00, 741.9, 270.0)"> </text><text xml:space="preserve" font-family="Helvetica-Light" font-size="33.8" fill="#FEFFFF" transform="matrix(1.00, 0.00, -0.00, -1.00, 751.3, 270.0)">o</text><text xml:space="preserve" font-family="Helvetica-Light" font-size="33.8" fill="#FEFFFF" transform="matrix(1.00, 0.00, -0.00, -1.00, 770.1, 270.0)">r</text><text xml:space="preserve" font-family="Helvetica-Light" font-size="33.8" fill="#FEFFFF" transform="matrix(1.00, 0.00, -0.00, -1.00, 781.4, 270.0)"> </text><text xml:space="preserve" font-family="LucidaGrande" font-size="33.8" fill="#FEFFFF" transform="matrix(1.00, 0.00, -0.00, -1.00, 110.0, 219.0)">ה</text><text xml:space="preserve" font-family="LucidaGrande" font-size="33.8" fill="#FEFFFF" transform="matrix(1.00, 0.00, -0.00, -1.00, 134.1, 219.0)">י</text><text xml:space="preserve" font-family="LucidaGrande" font-size="33.8" fill="#FEFFFF" transform="matrix(1.00, 0.00, -0.00, -1.00, 144.8, 219.0)">ר</text><text xml:space="preserve" font-family="LucidaGrande" font-size="33.8" fill="#FEFFFF" transform="matrix(1.00, 0.00, -0.00, -1.00, 162.1, 219.0)">ד</text><text xml:space="preserve" font-family="LucidaGrande" font-size="33.8" fill="#FEFFFF" transform="matrix(1.00, 0.00, -0.00, -1.00, 179.0, 219.0)">נ</text><text xml:space="preserve" font-family="LucidaGrande" font-size="33.8" fill="#FEFFFF" transform="matrix(1.00, 0.00, -0.00, -1.00, 193.0, 219.0)">ס</text><text xml:space="preserve" font-family="LucidaGrande" font-size="33.8" fill="#FEFFFF" transform="matrix(1.00, 0.00, -0.00, -1.00, 215.4, 219.0)">כ</text><text xml:space="preserve" font-family="LucidaGrande" font-size="33.8" fill="#FEFFFF" transform="matrix(1.00, 0.00, -0.00, -1.00, 234.8, 219.0)">ל</text><text xml:space="preserve" font-family="LucidaGrande" font-size="33.8" fill="#FEFFFF" transform="matrix(1.00, 0.00, -0.00, -1.00, 252.8, 219.0)">א</text><text xml:space="preserve" font-family="Helvetica-Light" font-size="33.8" fill="#FEFFFF" transform="matrix(1.00, 0.00, -0.00, -1.00, 274.6, 219.0)">?</text><text xml:space="preserve" font-family="Helvetica-Light" font-size="33.8" fill="#FEFFFF" transform="matrix(1.00, 0.00, -0.00, -1.00, 291.5, 219.0)"> </text><text xml:space="preserve" font-family="Helvetica-Light" font-size="25.4" fill="#FEFFFF" transform="matrix(1.00, 0.00, -0.00, -1.00, 79.0, 143.6)">•</text><text xml:space="preserve" font-family="Helvetica-Light" font-size="33.8" fill="#FEFFFF" transform="matrix(1.00, 0.00, -0.00, -1.00, 110.0, 141.0)">S</text><text xml:space="preserve" font-family="Helvetica-Light" font-size="33.8" fill="#FEFFFF" transform="matrix(1.00, 0.00, -0.00, -1.00, 130.7, 141.0)">e</text><text xml:space="preserve" font-family="Helvetica-Light" font-size="33.8" fill="#FEFFFF" transform="matrix(1.00, 0.00, -0.00, -1.00, 149.5, 141.0)">e</text><text xml:space="preserve" font-family="Helvetica-Light" font-size="33.8" fill="#FEFFFF" transform="matrix(1.00, 0.00, -0.00, -1.00, 168.3, 141.0)">m</text><text xml:space="preserve" font-family="Helvetica-Light" font-size="33.8" fill="#FEFFFF" transform="matrix(1.00, 0.00, -0.00, -1.00, 196.4, 141.0)">s</text><text xml:space="preserve" font-family="Helvetica-Light" font-size="33.8" fill="#FEFFFF" transform="matrix(1.00, 0.00, -0.00, -1.00, 213.4, 141.0)"> </text><text xml:space="preserve" font-family="Helvetica-Light" font-size="33.8" fill="#FEFFFF" transform="matrix(1.00, 0.00, -0.00, -1.00, 222.8, 141.0)">l</text><text xml:space="preserve" font-family="Helvetica-Light" font-size="33.8" fill="#FEFFFF" transform="matrix(1.00, 0.00, -0.00, -1.00, 230.3, 141.0)">i</text><text xml:space="preserve" font-family="Helvetica-Light" font-size="33.8" fill="#FEFFFF" transform="matrix(1.00, 0.00, -0.00, -1.00, 237.8, 141.0)">k</text><text xml:space="preserve" font-family="Helvetica-Light" font-size="33.8" fill="#FEFFFF" transform="matrix(1.00, 0.00, -0.00, -1.00, 254.7, 141.0)">e</text><text xml:space="preserve" font-family="Helvetica-Light" font-size="33.8" fill="#FEFFFF" transform="matrix(1.00, 0.00, -0.00, -1.00, 273.5, 141.0)"> </text><text xml:space="preserve" font-family="Helvetica-Light" font-size="33.8" fill="#FEFFFF" transform="matrix(1.00, 0.00, -0.00, -1.00, 282.9, 141.0)">a</text><text xml:space="preserve" font-family="Helvetica-Light" font-size="33.8" fill="#FEFFFF" transform="matrix(1.00, 0.00, -0.00, -1.00, 301.7, 141.0)"> </text><text xml:space="preserve" font-family="Helvetica-Light" font-size="33.8" fill="#FEFFFF" transform="matrix(1.00, 0.00, -0.00, -1.00, 311.1, 141.0)">h</text><text xml:space="preserve" font-family="Helvetica-Light" font-size="33.8" fill="#FEFFFF" transform="matrix(1.00, 0.00, -0.00, -1.00, 329.9, 141.0)">a</text><text xml:space="preserve" font-family="Helvetica-Light" font-size="33.8" fill="#FEFFFF" transform="matrix(1.00, 0.00, -0.00, -1.00, 348.7, 141.0)">r</text><text xml:space="preserve" font-family="Helvetica-Light" font-size="33.8" fill="#FEFFFF" transform="matrix(1.00, 0.00, -0.00, -1.00, 359.4, 141.0)">d</text><text xml:space="preserve" font-family="Helvetica-Light" font-size="33.8" fill="#FEFFFF" transform="matrix(1.00, 0.00, -0.00, -1.00, 380.0, 141.0)"> </text><text xml:space="preserve" font-family="Helvetica-Light" font-size="33.8" fill="#FEFFFF" transform="matrix(1.00, 0.00, -0.00, -1.00, 389.4, 141.0)">p</text><text xml:space="preserve" font-family="Helvetica-Light" font-size="33.8" fill="#FEFFFF" transform="matrix(1.00, 0.00, -0.00, -1.00, 410.1, 141.0)">r</text><text xml:space="preserve" font-family="Helvetica-Light" font-size="33.8" fill="#FEFFFF" transform="matrix(1.00, 0.00, -0.00, -1.00, 420.7, 141.0)">o</text><text xml:space="preserve" font-family="Helvetica-Light" font-size="33.8" fill="#FEFFFF" transform="matrix(1.00, 0.00, -0.00, -1.00, 439.5, 141.0)">b</text><text xml:space="preserve" font-family="Helvetica-Light" font-size="33.8" fill="#FEFFFF" transform="matrix(1.00, 0.00, -0.00, -1.00, 460.2, 141.0)">l</text><text xml:space="preserve" font-family="Helvetica-Light" font-size="33.8" fill="#FEFFFF" transform="matrix(1.00, 0.00, -0.00, -1.00, 467.7, 141.0)">e</text><text xml:space="preserve" font-family="Helvetica-Light" font-size="33.8" fill="#FEFFFF" transform="matrix(1.00, 0.00, -0.00, -1.00, 486.5, 141.0)">m</text><text xml:space="preserve" font-family="Helvetica-Light" font-size="33.8" fill="#FEFFFF" transform="matrix(1.00, 0.00, -0.00, -1.00, 514.7, 141.0)"> </text><text xml:space="preserve" font-family="Helvetica-Light" font-size="33.8" fill="#FEFFFF" transform="matrix(1.00, 0.00, -0.00, -1.00, 524.1, 141.0)">o</text><text xml:space="preserve" font-family="Helvetica-Light" font-size="33.8" fill="#FEFFFF" transform="matrix(1.00, 0.00, -0.00, -1.00, 542.9, 141.0)">t</text><text xml:space="preserve" font-family="Helvetica-Light" font-size="33.8" fill="#FEFFFF" transform="matrix(1.00, 0.00, -0.00, -1.00, 552.3, 141.0)">h</text><text xml:space="preserve" font-family="Helvetica-Light" font-size="33.8" fill="#FEFFFF" transform="matrix(1.00, 0.00, -0.00, -1.00, 571.1, 141.0)">e</text><text xml:space="preserve" font-family="Helvetica-Light" font-size="33.8" fill="#FEFFFF" transform="matrix(1.00, 0.00, -0.00, -1.00, 589.9, 141.0)">r</text><text xml:space="preserve" font-family="Helvetica-Light" font-size="33.8" fill="#FEFFFF" transform="matrix(1.00, 0.00, -0.00, -1.00, 601.2, 141.0)"> </text><text xml:space="preserve" font-family="Helvetica-Light" font-size="33.8" fill="#FEFFFF" transform="matrix(1.00, 0.00, -0.00, -1.00, 610.6, 141.0)">s</text><text xml:space="preserve" font-family="Helvetica-Light" font-size="33.8" fill="#FEFFFF" transform="matrix(1.00, 0.00, -0.00, -1.00, 627.5, 141.0)">m</text><text xml:space="preserve" font-family="Helvetica-Light" font-size="33.8" fill="#FEFFFF" transform="matrix(1.00, 0.00, -0.00, -1.00, 655.7, 141.0)">a</text><text xml:space="preserve" font-family="Helvetica-Light" font-size="33.8" fill="#FEFFFF" transform="matrix(1.00, 0.00, -0.00, -1.00, 674.5, 141.0)">r</text><text xml:space="preserve" font-family="Helvetica-Light" font-size="33.8" fill="#FEFFFF" transform="matrix(1.00, 0.00, -0.00, -1.00, 686.3, 141.0)">t</text><text xml:space="preserve" font-family="Helvetica-Light" font-size="33.8" fill="#FEFFFF" transform="matrix(1.00, 0.00, -0.00, -1.00, 695.7, 141.0)"> </text><text xml:space="preserve" font-family="Helvetica-Light" font-size="33.8" fill="#FEFFFF" transform="matrix(1.00, 0.00, -0.00, -1.00, 705.1, 141.0)">p</text><text xml:space="preserve" font-family="Helvetica-Light" font-size="33.8" fill="#FEFFFF" transform="matrix(1.00, 0.00, -0.00, -1.00, 725.8, 141.0)">e</text><text xml:space="preserve" font-family="Helvetica-Light" font-size="33.8" fill="#FEFFFF" transform="matrix(1.00, 0.00, -0.00, -1.00, 744.6, 141.0)">o</text><text xml:space="preserve" font-family="Helvetica-Light" font-size="33.8" fill="#FEFFFF" transform="matrix(1.00, 0.00, -0.00, -1.00, 763.4, 141.0)">p</text><text xml:space="preserve" font-family="Helvetica-Light" font-size="33.8" fill="#FEFFFF" transform="matrix(1.00, 0.00, -0.00, -1.00, 784.1, 141.0)">l</text><text xml:space="preserve" font-family="Helvetica-Light" font-size="33.8" fill="#FEFFFF" transform="matrix(1.00, 0.00, -0.00, -1.00, 791.6, 141.0)">e</text><text xml:space="preserve" font-family="Helvetica-Light" font-size="33.8" fill="#FEFFFF" transform="matrix(1.00, 0.00, -0.00, -1.00, 810.4, 141.0)"> </text><text xml:space="preserve" font-family="Helvetica-Light" font-size="33.8" fill="#FEFFFF" transform="matrix(1.00, 0.00, -0.00, -1.00, 819.8, 141.0)">w</text><text xml:space="preserve" font-family="Helvetica-Light" font-size="33.8" fill="#FEFFFF" transform="matrix(1.00, 0.00, -0.00, -1.00, 844.2, 141.0)">o</text><text xml:space="preserve" font-family="Helvetica-Light" font-size="33.8" fill="#FEFFFF" transform="matrix(1.00, 0.00, -0.00, -1.00, 863.0, 141.0)">u</text><text xml:space="preserve" font-family="Helvetica-Light" font-size="33.8" fill="#FEFFFF" transform="matrix(1.00, 0.00, -0.00, -1.00, 881.8, 141.0)">l</text><text xml:space="preserve" font-family="Helvetica-Light" font-size="33.8" fill="#FEFFFF" transform="matrix(1.00, 0.00, -0.00, -1.00, 889.3, 141.0)">d</text><text xml:space="preserve" font-family="Helvetica-Light" font-size="33.8" fill="#FEFFFF" transform="matrix(1.00, 0.00, -0.00, -1.00, 910.0, 141.0)"> </text><text xml:space="preserve" font-family="Helvetica-Light" font-size="33.8" fill="#FEFFFF" transform="matrix(1.00, 0.00, -0.00, -1.00, 110.0, 100.0)">h</text><text xml:space="preserve" font-family="Helvetica-Light" font-size="33.8" fill="#FEFFFF" transform="matrix(1.00, 0.00, -0.00, -1.00, 128.8, 100.0)">a</text><text xml:space="preserve" font-family="Helvetica-Light" font-size="33.8" fill="#FEFFFF" transform="matrix(1.00, 0.00, -0.00, -1.00, 147.6, 100.0)">v</text><text xml:space="preserve" font-family="Helvetica-Light" font-size="33.8" fill="#FEFFFF" transform="matrix(1.00, 0.00, -0.00, -1.00, 164.5, 100.0)">e</text><text xml:space="preserve" font-family="Helvetica-Light" font-size="33.8" fill="#FEFFFF" transform="matrix(1.00, 0.00, -0.00, -1.00, 183.3, 100.0)"> </text><text xml:space="preserve" font-family="Helvetica-Light" font-size="33.8" fill="#FEFFFF" transform="matrix(1.00, 0.00, -0.00, -1.00, 192.7, 100.0)">a</text><text xml:space="preserve" font-family="Helvetica-Light" font-size="33.8" fill="#FEFFFF" transform="matrix(1.00, 0.00, -0.00, -1.00, 211.5, 100.0)">l</text><text xml:space="preserve" font-family="Helvetica-Light" font-size="33.8" fill="#FEFFFF" transform="matrix(1.00, 0.00, -0.00, -1.00, 219.0, 100.0)">r</text><text xml:space="preserve" font-family="Helvetica-Light" font-size="33.8" fill="#FEFFFF" transform="matrix(1.00, 0.00, -0.00, -1.00, 229.7, 100.0)">e</text><text xml:space="preserve" font-family="Helvetica-Light" font-size="33.8" fill="#FEFFFF" transform="matrix(1.00, 0.00, -0.00, -1.00, 248.5, 100.0)">a</text><text xml:space="preserve" font-family="Helvetica-Light" font-size="33.8" fill="#FEFFFF" transform="matrix(1.00, 0.00, -0.00, -1.00, 267.3, 100.0)">d</text><text xml:space="preserve" font-family="Helvetica-Light" font-size="33.8" fill="#FEFFFF" transform="matrix(1.00, 0.00, -0.00, -1.00, 288.0, 100.0)">y</text><text xml:space="preserve" font-family="Helvetica-Light" font-size="33.8" fill="#FEFFFF" transform="matrix(1.00, 0.00, -0.00, -1.00, 304.9, 100.0)"> </text><text xml:space="preserve" font-family="Helvetica-Light" font-size="33.8" fill="#FEFFFF" transform="matrix(1.00, 0.00, -0.00, -1.00, 314.3, 100.0)">d</text><text xml:space="preserve" font-family="Helvetica-Light" font-size="33.8" fill="#FEFFFF" transform="matrix(1.00, 0.00, -0.00, -1.00, 334.9, 100.0)">e</text><text xml:space="preserve" font-family="Helvetica-Light" font-size="33.8" fill="#FEFFFF" transform="matrix(1.00, 0.00, -0.00, -1.00, 353.7, 100.0)">a</text><text xml:space="preserve" font-family="Helvetica-Light" font-size="33.8" fill="#FEFFFF" transform="matrix(1.00, 0.00, -0.00, -1.00, 372.5, 100.0)">l</text><text xml:space="preserve" font-family="Helvetica-Light" font-size="33.8" fill="#FEFFFF" transform="matrix(1.00, 0.00, -0.00, -1.00, 380.1, 100.0)">t</text><text xml:space="preserve" font-family="Helvetica-Light" font-size="33.8" fill="#FEFFFF" transform="matrix(1.00, 0.00, -0.00, -1.00, 389.5, 100.0)"> </text><text xml:space="preserve" font-family="Helvetica-Light" font-size="33.8" fill="#FEFFFF" transform="matrix(1.00, 0.00, -0.00, -1.00, 398.9, 100.0)">w</text><text xml:space="preserve" font-family="Helvetica-Light" font-size="33.8" fill="#FEFFFF" transform="matrix(1.00, 0.00, -0.00, -1.00, 423.3, 100.0)">i</text><text xml:space="preserve" font-family="Helvetica-Light" font-size="33.8" fill="#FEFFFF" transform="matrix(1.00, 0.00, -0.00, -1.00, 430.8, 100.0)">t</text><text xml:space="preserve" font-family="Helvetica-Light" font-size="33.8" fill="#FEFFFF" transform="matrix(1.00, 0.00, -0.00, -1.00, 440.2, 100.0)">h</text></g></svg>